<svg width="49" height="49" viewBox="0 0 49 49" fill="none" xmlns="http://www.w3.org/2000/svg">
<g filter="url(#filter0_di_2562_8256)">
<circle cx="23.5" cy="23.5" r="22.5" fill="white"/>
</g>
<path d="M16.3238 35.7792C16.3269 35.767 16.4669 35.6691 16.486 35.6547L17.7848 36.7398L15.5527 36.513C15.7358 36.3675 15.8964 36.1961 16.0663 36.0359C16.1649 35.9431 16.2578 35.9062 16.3238 35.7792Z" fill="#E8E7E7"/>
<path d="M10.7559 35.4021C10.9519 35.4734 11.2897 35.6463 11.4977 35.6231C12.3709 36.2711 13.351 36.6446 14.4528 36.4847L14.9277 36.39C15.1244 36.4585 15.3282 36.45 15.5228 36.5153L15.3644 36.6158C14.6795 37.0215 13.7745 37.3148 12.981 37.1046C12.3225 36.9302 11.6024 36.5114 11.1641 35.9792C11.0109 35.7932 10.8752 35.6115 10.7559 35.4021Z" fill="#81AA6C"/>
<path d="M7.39346 24.1832L7.43297 24.1671C7.54781 24.1175 7.59094 24.0945 7.7144 24.1356C7.68183 24.4427 7.51148 24.7638 7.41315 25.0575C7.31696 25.3446 7.25575 25.6333 7.20783 25.9317L7.14947 26.4052C7.14655 26.4399 7.14806 26.5468 7.13049 26.5699C7.16952 27.5169 7.32934 28.3585 8.05806 29.0338C8.32939 29.2852 8.66381 29.5214 9.00587 29.6654C9.31476 29.7955 9.64511 29.8681 9.96705 29.9582C10.6023 30.1003 11.2671 30.2001 11.8637 30.4706C12.2101 30.6278 12.5204 30.849 12.8397 31.0531C13.414 31.4201 13.9895 31.6516 14.6619 31.7657L15.042 32.7454C15.2482 33.1152 15.4214 33.4918 15.6604 33.8443L16.0674 34.4005C16.0953 34.4372 16.177 34.5204 16.1832 34.5585L16.6513 35.0696L16.9186 35.3194L16.484 35.6546C16.4649 35.669 16.3249 35.7669 16.3218 35.7791C16.2558 35.9061 16.1629 35.943 16.0644 36.0358C15.8944 36.196 15.7338 36.3674 15.5508 36.5129L15.5245 36.5154C15.3299 36.4501 15.1261 36.4586 14.9294 36.3901L14.4545 36.4848C13.3527 36.6447 12.3726 36.2711 11.4994 35.6231C11.2914 35.6464 10.9536 35.4735 10.7576 35.4022L10.7018 35.3511L10.3894 34.5879C10.3187 34.4089 10.2449 34.3173 10.2731 34.1195C9.8342 33.2574 9.29564 32.5205 8.37232 32.1395L7.12482 31.6865C6.71467 31.5191 6.32968 31.3043 6.00822 30.9962C5.2869 30.305 5.03985 29.318 5.01976 28.3491C4.93833 28.2011 5.13185 27.3021 5.17884 27.0843C5.27137 26.8039 5.35183 26.5409 5.48521 26.2761C5.93235 25.3881 6.65538 24.8138 7.39346 24.1832Z" fill="#F48926"/>
<path d="M15.6818 34.9149C15.4799 35.0079 15.2826 35.0941 15.0655 35.1458L15.0236 35.1556C14.5638 35.265 14.0472 35.2471 13.5851 35.1623C12.9931 35.0538 12.4238 34.7955 11.9487 34.426C10.9547 33.6531 10.461 32.4935 9.54406 31.6555C9.32472 31.4551 9.09685 31.2612 8.84582 31.1012C8.05974 30.6004 7.06874 30.2265 6.52474 29.4267L6.49546 29.3832C6.30291 29.1057 6.17751 28.8167 6.12429 28.4821C5.98567 27.6114 6.25281 26.7416 6.7582 26.0399L6.79124 26.0528C6.48399 26.4744 6.33008 26.9556 6.25831 27.4674C6.18325 28.0023 6.24117 28.6237 6.51428 29.0966C7.13286 30.1677 8.52723 30.5247 9.44579 31.2748C10.065 31.7804 10.5377 32.4693 11.0316 33.0903C11.7282 33.9661 12.5834 34.7991 13.7119 35.0525C14.3831 35.2031 14.9619 35.1468 15.6 34.8934C15.6641 34.8547 15.7293 34.8311 15.7992 34.8059C15.7586 34.8509 15.7326 34.881 15.6818 34.9149Z" fill="#D23F1C"/>
<path d="M5.01953 28.3492L5.04006 28.2922C5.10891 28.355 5.12142 28.6387 5.12783 28.7339C5.20091 28.7476 5.20101 28.7432 5.24414 28.8049C5.31742 28.9099 5.36381 29.0281 5.42344 29.1407C5.5855 29.4468 5.74521 29.7602 5.97022 30.0257C6.16125 30.2512 6.38513 30.4761 6.63646 30.6346C6.93818 30.8249 7.27766 30.9341 7.60842 31.0617C8.22995 31.3015 8.92179 31.5994 9.42812 32.0401C9.75573 32.3252 10.0378 32.6415 10.2643 33.0125C10.3829 33.2069 10.4733 33.4172 10.5896 33.6127C11.2407 34.7073 12.038 35.5264 13.3284 35.7778C14.084 35.925 15.1445 35.7235 15.782 35.2811L15.8834 35.202C15.8282 35.1016 15.7642 34.9934 15.6802 34.9152C15.7311 34.8813 15.757 34.8512 15.7977 34.806L15.7986 34.798L16.183 34.5585L16.6511 35.0696L16.9184 35.3194L16.4838 35.6546C16.4647 35.6691 16.3247 35.7669 16.3215 35.7791C16.2556 35.9061 16.1627 35.943 16.0642 36.0358C15.8942 36.196 15.7336 36.3674 15.5505 36.5129L15.5243 36.5154C15.3297 36.4501 15.1259 36.4586 14.9292 36.3901L14.4543 36.4848C13.3524 36.6447 12.3723 36.2712 11.4992 35.6232C11.2911 35.6464 10.9534 35.4735 10.7573 35.4022L10.7016 35.3512L10.3892 34.5879C10.3185 34.4089 10.2447 34.3173 10.2729 34.1196C9.83397 33.2574 9.29541 32.5205 8.37209 32.1396L7.12459 31.6866C6.71444 31.5191 6.32945 31.3043 6.00798 30.9962C5.28667 30.305 5.03962 29.318 5.01953 28.3492Z" fill="#A10A08"/>
<path d="M14.9277 36.3901C15.4175 36.2655 15.8721 36.0045 16.3201 35.7791C16.2541 35.9061 16.1612 35.943 16.0627 36.0358C15.8927 36.196 15.7322 36.3674 15.5491 36.5129L15.5229 36.5154C15.3282 36.4501 15.1244 36.4586 14.9277 36.3901Z" fill="#CBCBC8"/>
<path d="M10.2737 34.1194C10.5821 34.7281 10.9797 35.1866 11.5001 35.623C11.292 35.6462 10.9542 35.4733 10.7582 35.402L10.7025 35.351L10.39 34.5878C10.3193 34.4087 10.2456 34.3171 10.2737 34.1194Z" fill="#CBCBC8"/>
<path d="M15.7991 34.8059L15.8 34.7978L16.1844 34.5583L16.6526 35.0694C16.4557 35.2253 16.2608 35.3618 16.0414 35.4836C15.9793 35.4194 15.8939 35.289 15.8849 35.2018C15.8296 35.1014 15.7657 34.9932 15.6816 34.915C15.7325 34.8812 15.7585 34.851 15.7991 34.8059Z" fill="#D9571F"/>
<path d="M5.12891 28.7339C5.20199 28.7475 5.20209 28.7431 5.24522 28.8048C5.3185 28.9098 5.36488 29.0281 5.42451 29.1407C5.58657 29.4468 5.74629 29.7602 5.9713 30.0257C6.16233 30.2511 6.3862 30.476 6.63754 30.6345C6.93926 30.8248 7.27873 30.934 7.60949 31.0616C8.23103 31.3014 8.92287 31.5994 9.4292 32.0401C9.75681 32.3252 10.0389 32.6414 10.2654 33.0124C10.384 33.2069 10.4744 33.4172 10.5906 33.6127C11.2418 34.7073 12.0391 35.5263 13.3294 35.7777C14.085 35.925 15.1455 35.7235 15.783 35.281L15.8845 35.2019C15.8935 35.2891 15.979 35.4195 16.0411 35.4837C15.6212 35.7504 15.1495 35.9461 14.6632 36.0509C13.212 36.3637 11.6798 35.7265 10.8474 34.4988C10.5378 34.0421 10.3396 33.5256 10.0361 33.0727C9.84337 32.7852 9.60015 32.5419 9.33214 32.3243C8.46808 31.6227 7.3487 31.562 6.43437 30.9616C5.62756 30.4318 5.31417 29.6417 5.12891 28.7339Z" fill="#F88739"/>
<path d="M7.73503 29.2493C7.15326 28.5689 6.9086 28.025 6.97289 27.1174C6.98487 26.9487 7.00435 26.681 7.13294 26.5699C7.17198 27.517 7.33179 28.3586 8.06052 29.0339C8.33185 29.2853 8.66626 29.5214 9.00832 29.6655C9.31721 29.7956 9.64757 29.8682 9.96951 29.9583C10.6048 30.1004 11.2696 30.2002 11.8661 30.4707C12.2126 30.6279 12.5228 30.8491 12.8422 31.0532C13.4165 31.4202 13.9919 31.6517 14.6643 31.7658L15.0444 32.7455C15.2506 33.1153 15.4239 33.4919 15.6628 33.8443L16.0699 34.4006C16.0977 34.4373 16.1795 34.5205 16.1857 34.5586L15.8013 34.7981L15.8004 34.8061C15.7304 34.8313 15.6652 34.8549 15.6012 34.8936C15.4905 34.7951 15.3297 34.726 15.2023 34.6483C14.5068 34.2236 13.7507 33.9031 13.0726 33.4541C12.6304 33.1614 12.2349 32.8211 11.868 32.439C11.5198 32.0765 11.195 31.6842 10.7957 31.375C9.80825 30.6102 8.51748 30.2661 7.73503 29.2493Z" fill="#B26431"/>
<path d="M7.73503 29.2493C7.15326 28.5689 6.9086 28.025 6.97289 27.1174C6.98487 26.9487 7.00435 26.681 7.13294 26.5699C7.17198 27.517 7.33179 28.3586 8.06052 29.0339C8.33185 29.2853 8.66626 29.5214 9.00832 29.6655C9.31721 29.7956 9.64757 29.8682 9.96951 29.9583C10.6048 30.1004 11.2696 30.2002 11.8661 30.4707C12.2126 30.6279 12.5228 30.8491 12.8422 31.0532C13.4165 31.4202 13.9919 31.6517 14.6643 31.7658L15.0444 32.7455C14.8377 32.7256 14.6079 32.6461 14.4109 32.5818C13.3921 32.249 12.5184 31.6282 11.5552 31.1774C10.6649 30.7606 9.73584 30.4294 8.86729 29.9661C8.71191 29.8833 8.55478 29.7929 8.40969 29.6928L7.97949 29.3653C7.95091 29.343 7.87632 29.2692 7.84443 29.2595C7.80938 29.2489 7.77148 29.2527 7.73503 29.2493Z" fill="#BE3908"/>
<path d="M14.1342 16.5407C14.6696 16.4634 15.1521 16.4388 15.693 16.4553L16.1718 16.4942L16.3397 16.5162C16.5087 16.5323 16.684 16.5425 16.847 16.5929L16.9163 16.4751C17.0812 16.5337 17.2513 16.5472 17.4207 16.5879C17.6117 16.6339 17.7976 16.7022 17.9908 16.7375L18.7639 17.0073C20.9008 17.9441 22.7446 19.5218 23.6109 21.7348L23.6758 21.9118L23.633 21.931C23.5565 21.9484 23.5343 21.9102 23.4855 21.8623C23.3743 21.9206 23.2418 21.9095 23.1196 21.9291C22.9865 21.9506 22.8531 21.9983 22.7258 22.0418C22.3824 22.2269 22.0793 22.4633 21.8172 22.7531C21.472 23.1347 21.2146 23.5963 20.9249 24.0198L20.2309 24.9415C20.146 25.0543 20.0389 25.278 19.9123 25.3281C19.7815 25.5319 19.6577 25.7326 19.4993 25.9168C19.4496 25.9746 19.2882 26.1208 19.2686 26.1846C19.2679 26.4085 18.136 27.5831 17.9143 27.8031C17.6317 28.0835 17.3129 28.3054 16.9627 28.4934C16.1414 28.9343 15.2265 29.1696 14.7855 30.081C14.6805 30.2982 14.6038 30.5549 14.5884 30.7968C14.5858 31.131 14.5931 31.4366 14.6622 31.7655C13.9899 31.6513 13.4144 31.4199 12.8401 31.0529C12.5208 30.8488 12.2105 30.6275 11.864 30.4704C11.2675 30.1999 10.6027 30.1001 9.96743 29.958C9.64549 29.8679 9.31513 29.7952 9.00624 29.6652C8.66415 29.5211 8.32977 29.285 8.05844 29.0336C7.32975 28.3582 7.1699 27.5167 7.13086 26.5696C7.14843 26.5466 7.14693 26.4396 7.14984 26.405L7.2082 25.9315C7.25609 25.6331 7.3173 25.3443 7.41352 25.0572C7.51189 24.7636 7.68224 24.4425 7.71477 24.1354C7.59131 24.0942 7.54818 24.1173 7.43335 24.1669L7.39384 24.183C7.3505 23.9734 7.34081 23.7735 7.33692 23.5598C7.40212 23.4832 7.49449 23.417 7.57089 23.3507L7.52222 22.7749C7.52739 22.3882 7.54664 22.0257 7.65037 21.6516C7.8559 20.9103 8.23395 20.2202 8.71885 19.626C8.79488 19.5328 8.88299 19.397 8.98635 19.3394C9.10605 19.2829 9.1954 19.1761 9.28998 19.0852C9.46351 18.9185 9.6357 18.7508 9.84954 18.6354C9.91346 18.601 9.91534 18.6186 9.98027 18.6394C10.0452 18.6247 10.2401 18.3853 10.2885 18.3248C10.39 18.185 10.5361 18.0698 10.6723 17.9658L11.0064 17.7522L11.5169 17.4366L11.838 17.2682L13.4677 16.6759L14.1342 16.5407Z" fill="#F3EFD5"/>
<path d="M8.30859 26.2007C8.37413 25.7856 8.47646 25.4022 8.62376 25.0088C8.745 24.6849 8.89941 24.3526 8.98068 24.0174C9.02488 23.8351 9.01616 23.6225 9.02978 23.435C9.05439 23.0949 9.09236 22.757 9.17436 22.4254C9.52504 21.0081 10.2967 19.7302 11.5668 18.958C11.5169 19.1409 11.3346 19.3218 11.2249 19.4783L10.5766 20.4214C10.2679 20.9124 10.024 21.4541 9.8334 22.0013C9.68485 22.428 9.56264 22.9262 9.52159 23.3758C9.49955 23.6172 9.51703 23.8678 9.47443 24.1058C9.41228 24.4534 9.28497 24.7873 9.20606 25.1319L9.066 25.8777C9.03088 26.1172 9.02253 26.5476 8.85802 26.7258C8.82992 26.7563 8.79504 26.7908 8.75892 26.8118C8.69808 26.847 8.63298 26.8477 8.5703 26.8173C8.44027 26.7543 8.3702 26.542 8.34247 26.4108L8.32781 26.3226L8.30859 26.2007Z" fill="#FEFEFE"/>
<path d="M18.8039 19.5002C19.7957 20.2954 20.3193 21.4585 20.4551 22.7009C20.5204 23.299 20.431 23.9836 20.2379 24.552C20.1463 24.8218 20.0208 25.0671 19.9112 25.3284C19.7805 25.5322 19.6566 25.7329 19.4982 25.9171C19.4485 25.9749 19.2871 26.1211 19.2675 26.1849L18.8757 26.5325C17.7958 27.4029 16.5683 27.7715 15.1868 27.6107C13.9551 27.4674 12.7548 26.8288 11.9844 25.8541C12.0432 25.8278 12.0445 25.8333 12.1027 25.8548C12.2689 25.9164 12.4298 26.0186 12.5915 26.0942C12.9411 26.2576 13.3188 26.3721 13.6992 26.4377C15.1066 26.6804 16.5422 26.3748 17.7106 25.5478C18.7042 24.8444 19.3925 23.7956 19.6125 22.5927C19.7866 21.641 19.5972 20.7274 19.0769 19.9182C18.9976 19.7948 18.8241 19.6368 18.8039 19.5002Z" fill="#FAA13B"/>
<path d="M14.1342 16.5407C14.6697 16.4634 15.1522 16.4388 15.6931 16.4553L16.1719 16.4942L16.3398 16.5162C16.5088 16.5323 16.6841 16.5425 16.847 16.5929L16.9164 16.4751C17.0813 16.5337 17.2513 16.5472 17.4208 16.5879C17.6117 16.6339 17.7977 16.7022 17.9908 16.7375L18.764 17.0073C20.9008 17.9441 22.7447 19.5218 23.611 21.7348L23.6759 21.9118L23.6331 21.931C23.5566 21.9484 23.5344 21.9102 23.4855 21.8623C23.3744 21.9206 23.2419 21.9095 23.1197 21.9291C22.9866 21.9506 22.8532 21.9983 22.7259 22.0418C22.6936 22.0128 22.6752 21.9966 22.67 21.9512C22.6548 21.8207 22.6382 21.7179 22.5851 21.5932C22.4197 21.2046 22.2842 20.8111 22.0658 20.4457C21.8758 20.1277 21.6682 19.8191 21.4045 19.5557C21.1587 19.31 20.8583 19.1065 20.5725 18.9114C19.8898 18.4454 19.1152 17.9967 18.3191 17.7576L17.1649 17.4367C17.0094 17.394 16.8622 17.3836 16.7068 17.3529C16.5761 17.327 16.4627 17.3223 16.3296 17.3352L16.3016 17.3444C16.0945 17.4083 15.8703 17.407 15.6556 17.4277C15.4503 17.4474 15.248 17.4852 15.045 17.521C13.7922 17.7417 12.6174 18.2388 11.5685 18.9526L11.5658 18.9578C10.2958 19.73 9.52404 21.0079 9.1734 22.4253C9.09139 22.7568 9.05343 23.0947 9.02881 23.4348C9.01519 23.6223 9.02392 23.835 8.97971 24.0172C8.89845 24.3524 8.74407 24.6847 8.62279 25.0086C8.47549 25.402 8.37316 25.7854 8.30763 26.2005L8.28596 26.1611L8.23713 26.1762C8.12914 26.5099 8.17455 26.9444 8.24887 27.2825C8.40442 27.99 8.68004 28.569 9.30141 28.9798C9.59048 29.1709 9.95525 29.3056 10.2938 29.3744C10.5852 29.4337 10.9588 29.3421 11.199 29.5247L10.6004 29.7C10.3811 29.7537 10.1053 29.763 9.96743 29.9579C9.64549 29.8678 9.31513 29.7952 9.00624 29.6651C8.66415 29.5211 8.32977 29.2849 8.05844 29.0335C7.32974 28.3582 7.1699 27.5166 7.13086 26.5696C7.14843 26.5465 7.14692 26.4396 7.14984 26.4049L7.2082 25.9315C7.25609 25.633 7.3173 25.3443 7.41352 25.0572C7.51189 24.7635 7.68223 24.4424 7.71477 24.1353C7.59131 24.0942 7.54818 24.1173 7.43334 24.1668L7.39383 24.1829C7.3505 23.9733 7.34081 23.7734 7.33692 23.5597C7.40212 23.4831 7.49449 23.4169 7.57089 23.3506L7.52222 22.7748C7.52739 22.3881 7.54664 22.0256 7.65037 21.6515C7.8559 20.9103 8.23394 20.2201 8.71885 19.6259C8.79488 19.5328 8.88299 19.397 8.98635 19.3394C9.10605 19.2828 9.1954 19.176 9.28998 19.0852C9.46351 18.9184 9.63569 18.7507 9.84954 18.6353C9.91346 18.6009 9.91534 18.6185 9.98027 18.6393C10.0452 18.6246 10.2401 18.3852 10.2885 18.3247C10.39 18.185 10.5361 18.0698 10.6723 17.9658L11.0064 17.7522L11.5169 17.4365L11.838 17.2682L13.4677 16.6758L14.1342 16.5407Z" fill="#FEFEFE"/>
<path d="M16.9169 16.4751C17.0819 16.5337 17.2519 16.5472 17.4213 16.588C17.6123 16.6339 17.7982 16.7023 17.9914 16.7375L18.7645 17.0074C20.9014 17.9441 22.7452 19.5218 23.6115 21.7349L23.6764 21.9119L23.6336 21.931C23.5571 21.9484 23.5349 21.9102 23.4861 21.8623L22.7774 20.5162C22.4302 19.9865 22.0524 19.4983 21.5995 19.0541C20.3213 17.8002 18.5923 16.9594 16.8477 16.5929L16.9169 16.4751Z" fill="#B2D9A1"/>
<path d="M8.98534 19.3393C9.10504 19.2828 9.19438 19.176 9.28896 19.0851C9.46249 18.9184 9.63468 18.7507 9.84852 18.6353C9.91245 18.6009 9.91432 18.6185 9.97925 18.6393C9.66583 18.9555 9.35862 19.2694 9.08759 19.6237C8.82331 19.9693 8.60232 20.3732 8.40589 20.761C8.07017 21.4235 7.76718 22.1311 7.7765 22.8878C7.77996 23.1654 7.84435 23.4598 7.82426 23.7346C7.81628 23.8439 7.76574 23.9369 7.7495 24.0426L7.71378 24.1353C7.59033 24.0942 7.5472 24.1173 7.43236 24.1668L7.39285 24.1829C7.34952 23.9733 7.33983 23.7734 7.33594 23.5597C7.40114 23.4831 7.4935 23.4169 7.5699 23.3506L7.52124 22.7748C7.5264 22.3881 7.54566 22.0257 7.64939 21.6515C7.85492 20.9103 8.23296 20.2201 8.71786 19.626C8.79386 19.5327 8.88197 19.397 8.98534 19.3393Z" fill="url(#paint0_linear_2562_8256)"/>
<path d="M8.23438 26.1765C8.28515 25.865 8.33197 25.5509 8.41706 25.2463L8.6304 24.5812C8.69879 24.3981 8.83153 24.1446 8.82972 23.9491L8.82704 23.857C8.83157 22.3094 9.28585 20.7816 10.3895 19.6609C11.3946 18.6402 12.8534 17.8794 14.2456 17.5559C14.9299 17.397 15.6261 17.3416 16.3268 17.3354L16.2988 17.3447C16.0916 17.4086 15.8674 17.4073 15.6528 17.428C15.4474 17.4477 15.2452 17.4855 15.0422 17.5213C13.7894 17.742 12.6146 18.239 11.5657 18.9529L11.563 18.9581C10.2929 19.7303 9.52122 21.0082 9.17057 22.4255C9.08857 22.7571 9.05061 23.095 9.02599 23.4351C9.01237 23.6226 9.02109 23.8353 8.97689 24.0175C8.89562 24.3526 8.74125 24.685 8.61997 25.0089C8.47267 25.4023 8.37034 25.7857 8.30481 26.2008L8.28314 26.1614L8.23438 26.1765Z" fill="#CBCBC8"/>
<path d="M11.9857 25.8541L11.981 25.8512C11.2776 25.067 10.9746 23.8926 11.0084 22.8599C11.0485 21.6343 11.5582 20.4842 12.4618 19.6508C13.3734 18.8101 14.6191 18.3076 15.8688 18.3701C16.7229 18.4127 17.5252 18.639 18.2563 19.09C18.4445 19.2062 18.6552 19.3362 18.8052 19.5001C18.8255 19.6367 18.9989 19.7947 19.0782 19.9181C19.5985 20.7273 19.788 21.6409 19.6139 22.5926C19.3938 23.7955 18.7056 24.8443 17.7119 25.5477C16.5436 26.3747 15.1079 26.6803 13.7005 26.4376C13.3202 26.372 12.9424 26.2575 12.5928 26.0941C12.4311 26.0185 12.2703 25.9163 12.104 25.8547C12.0458 25.8332 12.0445 25.8277 11.9857 25.8541Z" fill="#FDC831"/>
<path d="M12.0373 22.7275C12.1176 22.7224 12.2082 22.7112 12.2862 22.7347C12.3967 22.7679 12.4715 22.8484 12.5263 22.9465C12.5811 23.0445 12.5954 23.1762 12.5611 23.2838C12.5119 23.4378 12.3744 23.5126 12.2395 23.5802L12.073 23.577C11.9518 23.5609 11.8549 23.4805 11.7913 23.3798C11.7199 23.267 11.7066 23.162 11.7402 23.0347C11.7788 22.8885 11.9153 22.7999 12.0373 22.7275Z" fill="#FEFEFE"/>
<path d="M14.0105 19.4979C14.2634 19.4835 14.5871 19.462 14.8149 19.589C14.9324 19.6546 15.0345 19.7818 15.0619 19.9147C15.0699 19.9533 15.0719 19.9913 15.0689 20.0306C15.0311 20.5118 14.5373 20.5266 14.194 20.6752C13.9729 20.7708 13.7632 20.9033 13.587 21.0679C13.4112 21.2321 13.2539 21.4327 13.16 21.6557C13.0859 21.8314 13.0411 22.0088 12.9317 22.168C12.8813 22.2161 12.8285 22.2685 12.7675 22.3028C12.6602 22.3632 12.4975 22.3649 12.3808 22.3313L12.3535 22.3226C12.3136 22.3102 12.2765 22.2979 12.2415 22.2739C12.109 22.1831 12.0247 21.9963 11.994 21.8433C11.9117 21.4328 12.135 20.8925 12.3618 20.5559C12.7423 19.9909 13.3492 19.6263 14.0105 19.4979Z" fill="#FEFEFE"/>
<path d="M10.6706 17.9657L10.3431 17.3352C10.1556 16.9018 10.0279 16.4695 9.97719 15.999C9.86299 14.9408 10.1383 13.6253 10.5371 12.6438C10.9976 11.5106 11.8956 10.3742 13.0489 9.89598C13.5039 9.70733 13.9618 9.63703 14.4517 9.68969C14.6003 9.70569 14.7797 9.73195 14.9131 9.79936C14.9712 9.82867 14.9701 9.84769 14.9926 9.90648C14.7733 9.8821 14.5546 9.85855 14.3338 9.88002C13.8013 9.9319 13.2963 10.1955 12.8843 10.5245L12.5129 10.833C11.6345 11.5875 11.0714 12.5371 10.6536 13.6046C10.4122 14.2212 10.2326 14.8347 10.1842 15.4977C10.1334 16.1937 10.3651 17.028 10.8282 17.5578L11.0047 17.752L10.6706 17.9657Z" fill="url(#paint1_linear_2562_8256)"/>
<path d="M15.8594 10.3014C16.9083 11.0866 17.3988 12.4153 17.7831 13.6201C17.8105 13.7061 17.89 14.0375 17.963 14.0464C17.9929 14.1057 17.9933 14.1062 17.97 14.1715C17.8333 14.554 17.6353 14.935 17.4703 15.3079C17.3277 15.6302 17.197 16.0643 16.9811 16.341C16.9951 16.1326 17.0661 15.9411 17.0708 15.7252C17.0889 14.8879 16.6768 14.1964 16.4933 13.4029C16.5877 13.2569 16.5497 12.8536 16.5199 12.6797C16.4526 12.287 16.3751 11.8994 16.2642 11.516L16.0266 10.8095C15.963 10.6438 15.8675 10.4802 15.8594 10.3014Z" fill="#F88739"/>
<path d="M11.0051 17.7523L10.8286 17.5581C10.3655 17.0283 10.1338 16.194 10.1846 15.498C10.233 14.8349 10.4126 14.2215 10.654 13.6049C11.0719 12.5374 11.635 11.5878 12.5134 10.8333C12.5922 10.9133 12.7041 10.9086 12.8074 10.9371C13.0771 11.0111 13.5745 11.1282 13.7701 11.3217C13.9688 11.4051 14.1129 11.4935 14.1989 11.7044L14.2328 11.802L14.1592 11.8308C13.9286 11.7235 13.6897 11.6618 13.4395 11.7541C13.3834 11.7747 13.2944 11.8244 13.2703 11.8797L13.2464 11.899C13.088 12.022 12.8852 12.0332 12.7184 12.1566C11.969 12.7112 11.5259 13.5051 11.3987 14.4191C11.3355 14.8727 11.3073 15.4004 11.3816 15.8541C11.4549 16.3028 11.5231 16.9242 11.8367 17.2683L11.5156 17.4366L11.0051 17.7523Z" fill="#F88739"/>
<path d="M13.771 11.3218C13.9697 11.4052 14.1138 11.4936 14.1998 11.7044L14.2337 11.8021L14.1601 11.8308C13.9295 11.7235 13.6906 11.6618 13.4404 11.7541C13.3844 11.7748 13.2953 11.8245 13.2712 11.8798L13.2473 11.899C13.0889 12.022 12.8861 12.0332 12.7193 12.1567C11.9699 12.7113 11.5269 13.5051 11.3996 14.4192C11.3365 14.8728 11.3082 15.4004 11.3825 15.8542C11.4559 16.3028 11.524 16.9242 11.8376 17.2684L11.5165 17.4367C11.1601 16.5991 10.9677 15.6028 11.0742 14.6933C11.1855 13.7435 11.4964 12.9676 12.1523 12.257C12.5795 11.7944 13.1182 11.352 13.771 11.3218Z" fill="#A10A08"/>
<path d="M13.2709 11.8798C13.295 11.8244 13.3841 11.7747 13.4401 11.7541C13.6903 11.6618 13.9292 11.7235 14.1598 11.8308L14.2334 11.8021L14.2462 11.8362C14.2405 11.9911 14.2514 12.1903 14.2036 12.3379C14.1562 12.4841 13.9979 12.6515 13.9011 12.7731L13.8872 12.7943C13.7045 13.0695 13.4939 13.315 13.3327 13.606C13.0261 14.1593 12.8769 15.0146 12.9987 15.6337L13.018 15.721C13.0959 16.0951 13.2626 16.3596 13.4671 16.676L11.8374 17.2684C11.5238 16.9243 11.4556 16.3029 11.3822 15.8542C11.308 15.4005 11.3362 14.8728 11.3994 14.4192C11.5266 13.5052 11.9696 12.7113 12.719 12.1567C12.8859 12.0333 13.0887 12.022 13.2471 11.8991L13.2709 11.8798Z" fill="url(#paint2_linear_2562_8256)"/>
<path d="M12.748 12.9693L12.9629 12.8206L13.1254 12.9574C13.1161 13.0346 13.0828 13.0473 13.0234 13.0952C12.9784 13.1315 12.9452 13.1434 12.8906 13.1584L12.748 12.9693Z" fill="#A10A08"/>
<path d="M12.2198 15.5448C12.2172 15.4607 12.2057 15.4369 12.2638 15.3701C12.2993 15.3293 12.3456 15.3153 12.3944 15.2957C12.4748 15.2991 12.5205 15.2995 12.5866 15.3522C12.6387 15.4585 12.6793 15.5673 12.6702 15.6877C12.5685 15.6726 12.4847 15.6827 12.3835 15.6976C12.2002 15.8612 11.9977 16.0551 11.8805 16.2725L11.8786 16.2921L11.8237 16.2522C11.7109 15.9534 12.0849 15.8748 12.1972 15.6677C12.211 15.6421 12.2141 15.576 12.2198 15.5448Z" fill="#A10A08"/>
<path d="M12.3839 15.6973C12.4852 15.6824 12.569 15.6723 12.6707 15.6874C12.7304 15.8222 12.7365 15.9291 12.6787 16.0673C12.6262 16.1928 12.5191 16.2785 12.3929 16.3242C12.2046 16.3923 12.0582 16.3471 11.8809 16.2722C11.9981 16.0548 12.2006 15.8609 12.3839 15.6973Z" fill="#F88739"/>
<path d="M12.3764 14.1162C12.4414 14.1048 12.474 14.1105 12.5341 14.1394C12.6688 14.2045 12.7875 14.4134 12.822 14.5532C12.8446 14.645 12.8609 14.7993 12.8103 14.8781L12.6361 14.9021C12.5125 14.8926 12.422 14.8641 12.3249 14.7845C12.234 14.7101 12.1714 14.5849 12.1699 14.4665C12.1685 14.3547 12.3076 14.2004 12.3764 14.1162Z" fill="#F48926"/>
<path d="M12.7465 12.9696L12.889 13.1587C12.8782 13.1879 13.0532 13.5517 13.0528 13.6583C13.0525 13.7213 13.0258 13.7973 12.9785 13.8396C12.8875 13.9207 12.8161 13.9138 12.7033 13.9122C12.6138 13.8532 12.5351 13.7671 12.4781 13.6765C12.3997 13.5523 12.3561 13.4272 12.4007 13.2822C12.4479 13.1282 12.6139 13.0396 12.7465 12.9696Z" fill="#F97139"/>
<path d="M13.271 11.8798C13.2951 11.8244 13.3841 11.7747 13.4402 11.7541C13.6903 11.6618 13.9292 11.7235 14.1598 11.8308L14.2334 11.8021L14.2462 11.8362C14.2406 11.9911 14.2514 12.1903 14.2036 12.3379C14.1563 12.4841 13.9979 12.6515 13.9011 12.7731C13.7793 12.7595 13.7001 12.7701 13.6051 12.685L13.5324 12.796C13.4864 12.8509 13.4348 12.8731 13.3649 12.8824C13.2995 12.8463 13.2536 12.8168 13.2153 12.7508C13.1278 12.6004 13.1248 12.438 13.1646 12.274L13.1133 12.2779C13.1856 12.1439 13.2643 12.0205 13.3245 11.8799H13.271V11.8798Z" fill="#BE1A11"/>
<path d="M13.1652 12.2738L13.3857 11.9C13.4448 11.899 13.4354 11.8993 13.4756 11.9374C13.5943 12.0498 13.646 12.2571 13.6499 12.4177C13.652 12.5104 13.6347 12.5973 13.6057 12.6849L13.533 12.7958C13.487 12.8507 13.4354 12.8729 13.3655 12.8822C13.3001 12.8462 13.2542 12.8166 13.2159 12.7507C13.1284 12.6002 13.1254 12.4378 13.1652 12.2738Z" fill="#F48926"/>
<path d="M12.5137 10.8332L12.885 10.5247C13.297 10.1956 13.802 9.93212 14.3346 9.88024C14.5553 9.85877 14.774 9.88235 14.9934 9.9067C15.3109 9.99554 15.5893 10.1051 15.8567 10.3013C15.8648 10.4801 15.9604 10.6437 16.024 10.8094L16.2616 11.5159C16.3725 11.8993 16.45 12.2869 16.5173 12.6796C16.5471 12.8535 16.5851 13.2567 16.4907 13.4028C16.6741 14.1963 17.0863 14.8878 17.0682 15.7251C17.0635 15.941 16.9926 16.1325 16.9785 16.3409L16.9154 16.4751L16.8461 16.593C16.6832 16.5426 16.5079 16.5324 16.3388 16.5163L16.1709 16.4943L15.6921 16.4554C15.1512 16.4389 14.6687 16.4634 14.1333 16.5407L13.4667 16.6759C13.2622 16.3595 13.0955 16.095 13.0176 15.7209L12.9983 15.6335C12.8765 15.0145 13.0257 14.1592 13.3323 13.6058C13.4935 13.3149 13.7041 13.0693 13.8868 12.7941L13.9007 12.773C13.9975 12.6513 14.1558 12.484 14.2032 12.3377C14.251 12.1902 14.2401 11.991 14.2458 11.8361L14.233 11.802L14.1992 11.7043C14.1131 11.4934 13.969 11.405 13.7703 11.3216C13.5748 11.1281 13.0774 11.011 12.8076 10.937C12.7043 10.9086 12.5925 10.9133 12.5137 10.8332Z" fill="#FAA13B"/>
<path d="M14.5163 14.3713L14.4863 14.3165C14.5251 14.0045 14.7701 12.5172 14.9449 12.3621C15.0171 12.298 15.1263 12.2478 15.2247 12.2619C15.2786 12.2696 15.258 12.2611 15.2927 12.3108C15.2166 12.6706 15.1418 13.0459 14.9919 13.3833L14.9159 13.5707C14.8562 13.8339 14.6444 14.1298 14.5163 14.3713Z" fill="#F9B787"/>
<path d="M14.2469 11.8363C14.4251 12.031 14.4396 12.1255 14.4322 12.3811C14.4303 12.4473 14.4147 12.4881 14.3853 12.5456L14.371 12.5748C14.2344 12.849 14.0504 13.0969 13.9212 13.3753C13.8194 13.5947 13.7662 13.8092 13.723 14.046C13.6845 14.2575 13.6847 14.5202 13.748 14.7259L13.7586 14.7626C13.7873 14.8578 13.8352 14.9571 13.9236 15.0096C13.965 15.0342 14.0104 15.0253 14.0527 15.0055C14.2858 14.8962 14.3967 14.5768 14.5181 14.3715C14.6462 14.1299 14.858 13.8341 14.9177 13.5709C14.9459 13.5886 14.9351 13.5785 14.9574 13.6083L14.9737 13.631L15.0093 13.6351L15.2536 13.3544L15.2178 14.0245C15.2162 14.1999 15.2393 14.3744 15.2222 14.5497C15.1728 15.0559 14.9272 15.5854 14.6321 15.9945C14.5574 16.0981 14.4754 16.2034 14.3831 16.2917C14.2986 16.3725 14.2003 16.4435 14.1344 16.5409L13.4678 16.676C13.2633 16.3597 13.0966 16.0951 13.0187 15.721L12.9994 15.6337C12.8777 15.0147 13.0269 14.1594 13.3335 13.606C13.4947 13.3151 13.7053 13.0695 13.888 12.7943L13.9019 12.7731C13.9987 12.6515 14.157 12.4841 14.2044 12.3379C14.2521 12.1904 14.2413 11.9912 14.2469 11.8363Z" fill="#F97139"/>
<path d="M15.4091 12.8949C15.5069 12.7565 15.631 12.604 15.8097 12.5779C15.9159 12.5625 16.0408 12.6147 16.1215 12.6822C16.3292 12.856 16.4265 13.1484 16.4922 13.4028C16.6757 14.1963 17.0878 14.8878 17.0697 15.7251C17.065 15.941 16.9941 16.1325 16.9801 16.3409L16.9169 16.4751L16.8476 16.593C16.6847 16.5426 16.5094 16.5324 16.3403 16.5163L16.1724 16.4943L15.6936 16.4554C15.1527 16.4389 14.6702 16.4634 14.1348 16.5407C14.2007 16.4434 14.299 16.3724 14.3835 16.2916C14.4757 16.2033 14.5577 16.0979 14.6324 15.9944C14.9275 15.5853 15.1731 15.0558 15.2225 14.5495C15.2396 14.3743 15.2165 14.1997 15.2181 14.0244L15.254 13.3543C15.2957 13.1942 15.3431 13.0466 15.4091 12.8949Z" fill="#BE3908"/>
<path d="M16.1155 13.5563C16.1081 13.679 16.1024 13.8067 16.0476 13.9196C15.973 14.0729 15.706 14.1492 15.5527 14.2065C15.6527 13.9318 15.8096 13.5852 16.0351 13.3937C16.0479 13.4211 16.0962 13.5463 16.1155 13.5563Z" fill="#F48926"/>
<path d="M15.9896 14.3588C16.0738 14.3464 16.1256 14.3357 16.2053 14.3759C16.2421 14.4357 16.2595 14.4903 16.2577 14.5609C16.2548 14.6751 16.2088 14.936 16.1116 15.0064C16.0342 15.0624 15.981 15.0399 15.8942 15.0286L15.8484 14.9982C15.7235 14.9168 15.6354 14.8376 15.5352 14.7285C15.6751 14.58 15.8144 14.4622 15.9896 14.3588Z" fill="#F48926"/>
<path d="M15.6925 16.4553L15.8977 16.4546C15.879 16.3796 15.6772 16.2545 15.6144 16.1921C15.5547 16.1328 15.5096 16.0587 15.4648 15.9879C15.6112 15.8906 15.7456 15.804 15.8782 15.6875C16.0334 15.782 16.2786 15.9238 16.3226 16.1119C16.3527 16.2405 16.2589 16.372 16.1889 16.4708L16.1713 16.4942L15.6925 16.4553Z" fill="#F48926"/>
<path d="M15.4062 12.8949C15.504 12.7565 15.6282 12.604 15.8068 12.5779C15.9131 12.5625 16.038 12.6147 16.1187 12.6822C16.3263 12.856 16.4236 13.1484 16.4893 13.4028C16.6728 14.1963 17.085 14.8878 17.0668 15.7251C17.0621 15.941 16.9912 16.1325 16.9772 16.3409L16.9141 16.4751L16.8447 16.593C16.6818 16.5426 16.5065 16.5324 16.3375 16.5163C16.506 16.3157 16.5557 16.1072 16.5894 15.8541C16.6673 15.27 16.5127 14.7249 16.3117 14.1828C16.267 14.0625 16.2306 13.9177 16.1715 13.8062C16.1268 13.7219 16.1237 13.6511 16.1133 13.5563C16.0941 13.5463 16.0458 13.4212 16.0329 13.3937L16.0179 13.3713C15.8748 13.1028 15.6803 13.004 15.4062 12.8949Z" fill="#A10A08"/>
<path d="M37.7975 22.9583L37.8111 22.9988C37.8316 23.0547 37.8191 23.0316 37.8478 23.0663C37.9463 23.1851 37.9271 23.5922 37.936 23.7486C37.958 24.135 38.0279 24.5009 37.9837 24.8902C37.8712 25.8797 37.2382 26.8481 36.4669 27.4654C36.1796 27.6954 35.8423 27.8858 35.5021 28.0251C35.299 28.1083 35.0853 28.1694 34.8844 28.2569C34.5376 28.4078 34.2073 28.5881 33.8996 28.8085C33.6837 28.963 33.4747 29.1583 33.295 29.3524L32.8483 29.87C32.7629 29.969 32.719 30.0573 32.5957 30.1129C32.9527 29.3812 33.467 28.6558 34.0382 28.0784C34.5277 27.5836 35.0777 27.1697 35.5985 26.7118C35.9628 26.3915 36.3095 26.0369 36.6309 25.6736C36.9505 25.3125 37.2521 24.9267 37.4478 24.4828C37.6039 24.2282 37.6785 23.9301 37.7395 23.6411C37.788 23.4119 37.792 23.1914 37.7975 22.9583Z" fill="#81AA6C"/>
<path d="M24.9204 7.84484C25.6537 7.3254 26.3816 6.94567 27.3091 7.00638C27.8117 7.05789 28.2843 7.2061 28.7164 7.47273C28.9732 7.6311 29.2223 7.82569 29.4455 8.02803C29.9225 8.46018 30.4986 9.16751 31.1906 9.19847C31.6912 9.22084 32.1275 8.92536 32.6187 8.87341C33.1225 8.82015 33.635 8.9428 34.0333 9.26702C35.0198 10.0701 34.5585 11.5131 35.2068 12.4726C35.4577 12.8439 35.8253 13.0992 36.1698 13.3764C36.6809 13.8533 37.067 14.3266 37.0904 15.0593C37.096 15.2359 37.0803 15.3983 37.046 15.5713L37.0367 15.6207C36.9847 15.8902 36.8613 16.0871 36.7616 16.3364C36.8619 16.5338 36.8532 16.8538 36.8703 17.0771C36.9341 17.9073 36.9326 18.71 36.8819 19.541C36.8679 19.7701 36.8657 20.1001 36.7919 20.3166C36.7771 20.3601 36.7824 20.3475 36.7618 20.3819C37.2565 21.2121 37.6565 21.989 37.8009 22.9585C37.7954 23.1917 37.7913 23.4122 37.7429 23.6414C37.6818 23.9303 37.6073 24.2284 37.4511 24.4831C37.2555 24.9269 36.9538 25.3128 36.6342 25.6739C36.3128 26.0372 35.9661 26.3918 35.6019 26.712C35.081 27.1699 34.531 27.5839 34.0416 28.0786C33.4704 28.656 32.9561 29.3815 32.599 30.1131L32.2465 30.8181C32.1838 30.6868 32.1418 30.5653 32.1055 30.4253C31.9638 29.9126 31.8877 29.3951 31.9958 28.866L32.1277 27.5373L32.1356 27.3991C32.128 26.815 31.9841 26.2081 31.7089 25.6922C31.4945 25.2903 31.2037 24.9267 30.9295 24.5647C31.2248 24.2741 31.4863 23.9654 31.7257 23.6278C32.6716 22.2947 33.2291 20.5833 33.2405 18.947C33.2423 18.6986 33.2566 18.4373 33.214 18.192C33.2165 17.8678 33.1654 17.526 33.1162 17.2058C32.9886 16.3755 32.7592 15.5426 32.3863 14.788C31.4092 12.8111 29.2858 11.4213 27.25 10.7257L25.9369 10.3756L24.7751 10.2472L24.6404 10.2611C24.1201 10.2923 23.6224 10.3741 23.1256 10.5344L22.6445 10.6892C22.6763 10.5417 22.8562 10.3446 22.9473 10.2136C23.3671 9.61032 23.7889 8.99344 24.2791 8.44475C24.4756 8.22494 24.7018 8.04118 24.9204 7.84484Z" fill="#F48926"/>
<path d="M31.9944 28.866C32.1268 29.0612 32.1506 29.6999 32.1121 29.9417C32.1057 29.9817 32.0758 29.9743 32.0647 30.0018C32.0395 30.0647 32.0705 30.1084 32.0839 30.1626L32.0907 30.2171L32.1192 30.2563L32.1461 30.2159L32.1922 30.1525L32.223 30.1628C32.1914 30.2565 32.152 30.3387 32.1042 30.4252C31.9624 29.9125 31.8864 29.395 31.9944 28.866Z" fill="#D9571F"/>
<path d="M34.0215 9.83215C34.0773 9.87009 34.1136 9.99616 34.134 10.0582C34.2108 10.2908 34.2705 10.5282 34.3149 10.7691C34.4614 11.5634 34.5829 12.3812 34.8684 13.1399C35.0061 13.5056 35.2039 13.8378 35.3497 14.1975C35.6151 14.8523 35.6558 15.4953 35.3797 16.1555C35.3598 16.1948 35.3561 16.2027 35.3184 16.2288C35.3246 16.1059 35.384 16.0003 35.4057 15.8807L35.4112 15.849C35.5101 15.3227 35.4324 14.7999 35.24 14.3049C35.0195 13.7374 34.6895 13.2262 34.545 12.6272C34.4032 12.0395 34.3509 11.4379 34.2532 10.8426C34.1969 10.4992 34.0956 10.1705 34.0215 9.83215Z" fill="#D9571F"/>
<path d="M35.5621 13.4967L35.5862 13.4869L35.6564 13.5167C35.9016 13.8635 36.1228 14.2361 36.2494 14.6446C36.5545 15.6281 35.8227 16.2983 35.4069 17.104C35.2201 17.4661 35.1528 18.0603 35.2756 18.4547L35.2739 18.5054C35.2586 18.4837 35.2566 18.4823 35.2425 18.4547C35.0966 18.1694 35.0467 17.7137 35.1371 17.4064L35.1503 17.3634C35.2524 17.0188 35.4485 16.7008 35.6464 16.4025C35.8067 16.1608 35.9978 15.9043 36.0885 15.6264L36.1015 15.585C36.1695 15.3792 36.1718 15.135 36.1365 14.9215L36.1299 14.8845C36.0396 14.352 35.7528 13.9796 35.5621 13.4967Z" fill="#D9571F"/>
<path d="M32.4437 9.82748C32.6544 9.80682 32.9369 9.8695 33.1045 10.0012C33.5473 10.3488 33.5724 11.045 33.6503 11.562C33.561 11.427 33.5013 11.2776 33.4371 11.1295C33.3113 10.8689 33.1343 10.5468 32.8741 10.4014C32.6948 10.3011 32.4874 10.2732 32.2864 10.2497C32.179 10.2372 32.0148 10.2382 31.9177 10.1926C31.8599 10.1655 31.8345 10.1309 31.8105 10.0745L31.8297 10.0272C32.0087 9.88865 32.2255 9.85454 32.4437 9.82748Z" fill="#FDC831"/>
<path d="M28.7603 9.08586C28.5106 8.86742 28.227 8.59744 27.912 8.48005C27.2304 8.22596 26.611 8.36414 25.9978 8.71831C25.7889 8.83902 25.6014 8.98189 25.3809 9.08281C25.7961 8.59408 26.3412 8.18059 26.9937 8.11166C27.5282 8.05522 27.9801 8.25172 28.3896 8.5862C28.7925 8.91002 29.1164 9.29612 29.5498 9.58985C29.7907 9.75315 30.0734 9.87335 30.3365 9.99684C30.4947 10.0711 30.6784 10.1718 30.8497 10.2031C31.0287 10.2359 31.2238 10.2016 31.4056 10.1926C30.9724 10.3601 30.6234 10.44 30.1787 10.2449C29.6587 10.0168 29.1355 9.50342 28.7603 9.08586Z" fill="url(#paint3_linear_2562_8256)"/>
<path d="M34.1914 12.6229L34.7585 13.7172C35.1857 14.4668 35.3547 15.4602 35.0617 16.2826C34.9899 16.484 34.8859 16.6694 34.8003 16.8646C34.6986 17.0965 34.6231 17.329 34.5558 17.5729C34.5409 17.661 34.5196 17.736 34.4849 17.8184C34.409 17.4391 34.399 17.0319 34.5247 16.6628C34.596 16.453 34.696 16.2678 34.742 16.0477C34.893 15.3263 34.7783 14.6918 34.5496 14.0007C34.4701 13.7603 34.3691 13.5249 34.3024 13.2804C34.2458 13.0735 34.2264 12.8362 34.1914 12.6229Z" fill="#FDC831"/>
<path d="M35.4662 19.8071C36.1654 20.4696 36.6559 21.3276 36.895 22.2645C36.9955 22.6582 37.0463 23.1587 36.958 23.5588C36.7542 24.483 36.2369 25.2555 35.5117 25.8612L34.0601 27.0304C33.6454 27.3514 33.1998 27.6363 32.8539 28.0358C32.6868 28.2289 32.5681 28.4677 32.4497 28.6922C32.3995 28.8061 32.3473 28.9061 32.2754 29.0079C32.3239 28.7221 32.4185 28.4824 32.5295 28.2163C32.6174 28.0055 32.7063 27.7652 32.8406 27.5798C33.0246 27.3256 33.2868 27.1159 33.5429 26.9385C33.8688 26.7127 34.2184 26.5433 34.5587 26.3432C35.3556 25.8747 35.9371 25.2527 36.308 24.4023C36.7709 23.3412 36.7349 22.2333 36.2017 21.2054C35.9548 20.7292 35.664 20.3107 35.4662 19.8071Z" fill="#FAA13B"/>
<path d="M24.6387 10.261C25.201 9.73409 25.8006 9.18919 26.5326 8.91796C26.9826 8.75117 27.5337 8.74487 27.969 8.95408C28.392 9.15733 28.7313 9.49181 29.0474 9.83179C29.3272 10.1327 29.5936 10.4556 29.9631 10.6507C30.5426 10.9567 31.251 10.9275 31.8836 10.8751C32.1351 10.8543 32.4097 10.8178 32.6574 10.8848C33.2672 11.0496 33.5839 11.7184 33.766 12.2664C34.1398 13.3909 34.4529 14.6608 34.3561 15.8516C34.301 16.5289 34.1186 17.2298 34.2353 17.91C34.3134 18.3651 34.4645 18.8109 34.6749 19.2221C34.9993 19.8558 35.4347 20.4157 35.7421 21.06C36.0095 21.6206 36.1442 22.2295 36.1274 22.8496C36.1116 23.435 35.9661 24.0129 35.7021 24.5358C35.2761 25.3795 34.536 26.0522 33.7461 26.5521L32.3825 27.34C32.2893 27.3973 32.2166 27.4778 32.1259 27.5371L32.1339 27.3988C32.2066 27.3647 32.2579 27.3013 32.3197 27.2514C32.4312 27.1616 32.5506 27.0785 32.671 27.0013L33.4792 26.5308C34.0959 26.1457 34.6865 25.6841 35.1175 25.0922C35.718 24.2674 36.0571 23.255 35.8879 22.2244C35.8351 21.9029 35.7617 21.5891 35.6339 21.2877C35.3336 20.5799 34.8379 19.9659 34.4897 19.2813C34.3096 18.9271 34.1955 18.561 34.0861 18.1805C33.9646 17.4681 34.0875 16.8262 34.1772 16.1211C34.2946 15.1994 34.1807 14.4275 33.9391 13.5367C33.8516 13.2144 33.7562 12.8791 33.6235 12.5726C33.6255 12.5046 33.6373 12.419 33.6172 12.3539L33.6053 12.3242C33.453 11.8564 33.1608 11.2562 32.6461 11.1062C32.4382 11.0455 32.2202 11.0685 32.0073 11.0817C31.3299 11.1237 30.6916 11.1886 30.0509 10.9006C29.3079 10.5666 28.9676 9.81046 28.3313 9.35296C27.9889 9.10662 27.6384 8.91816 27.2029 8.93946C26.253 8.98584 25.3993 9.56516 24.7734 10.247L24.6387 10.261Z" fill="#D9571F"/>
<path d="M24.9185 7.84484C25.6518 7.3254 26.3797 6.94567 27.3072 7.00638C27.8098 7.05789 28.2824 7.2061 28.7146 7.47273C28.9713 7.6311 29.2204 7.82569 29.4436 8.02803C29.9206 8.46018 30.4967 9.16751 31.1887 9.19847C31.6893 9.22084 32.1256 8.92536 32.6168 8.87341C33.1206 8.82015 33.6331 8.9428 34.0314 9.26702C35.0179 10.0701 34.5566 11.5131 35.2049 12.4726C35.4558 12.8439 35.8234 13.0992 36.1679 13.3764C36.679 13.8533 37.0651 14.3266 37.0886 15.0593C37.0942 15.2359 37.0784 15.3983 37.0441 15.5713L37.0348 15.6207C36.9828 15.8902 36.8594 16.0871 36.7597 16.3364C36.86 16.5338 36.8513 16.8538 36.8684 17.0771C36.9322 17.9073 36.9308 18.71 36.88 19.541C36.8661 19.7701 36.8638 20.1001 36.79 20.3166C36.7752 20.3601 36.7805 20.3475 36.7599 20.3819C37.2546 21.2121 37.6546 21.989 37.799 22.9585C37.7935 23.1917 37.7894 23.4122 37.741 23.6414C37.6799 23.9303 37.6054 24.2284 37.4492 24.4831C37.2536 24.9269 36.9519 25.3128 36.6323 25.6739C36.3109 26.0372 35.9642 26.3918 35.6 26.712C35.0791 27.1699 34.5291 27.5839 34.0397 28.0786C33.4685 28.656 32.9542 29.3815 32.5972 30.1131L32.2446 30.8181C32.1819 30.6868 32.1399 30.5653 32.1036 30.4253C32.1514 30.3388 32.1908 30.2565 32.2224 30.1628C32.5304 29.5128 32.852 28.8749 33.3207 28.3232C34.5036 26.9311 36.2894 26.0686 37.0755 24.3541C37.0848 24.2583 37.164 24.12 37.1968 24.0244C37.3025 23.7169 37.3342 23.3851 37.326 23.062C37.3024 22.1379 36.7859 21.2927 36.36 20.5022C35.9835 19.8035 35.622 18.9623 35.6066 18.1594C35.5833 16.9415 36.9279 16.1951 36.6974 14.9242C36.5825 14.291 36.1158 13.7876 35.6568 13.3682C35.4578 13.1864 35.2864 13.0564 35.1312 12.8284C34.8072 12.3525 34.7085 11.7818 34.5982 11.2281C34.4761 10.6148 34.3779 9.85499 33.815 9.47831L33.7889 9.46141L33.6778 9.38974C33.3616 9.20477 32.8454 9.12337 32.4887 9.22026L32.4551 9.22996L31.6198 9.46054C31.3817 9.52047 31.0572 9.51953 30.8216 9.44705L30.7845 9.43444C30.1562 9.23596 29.7441 8.73543 29.2825 8.29872C28.9061 7.94244 28.4588 7.60675 27.964 7.43557L27.6806 7.34488L27.5915 7.32731C27.5312 7.309 27.4909 7.31114 27.4299 7.29998C27.252 7.26738 27.0795 7.27526 26.8961 7.26701C26.8492 7.26489 26.8202 7.2601 26.7754 7.27492L26.7429 7.28693C26.6833 7.30367 26.6742 7.29904 26.6215 7.27264L26.5679 7.3261L26.5406 7.29944C26.5022 7.33787 26.498 7.32617 26.4463 7.3264C26.4013 7.36222 26.4239 7.35129 26.363 7.36756L26.2645 7.39358C26.2191 7.41247 26.191 7.43433 26.1408 7.44879L26.096 7.46113C26.048 7.50865 25.9734 7.51751 25.9141 7.55527C25.8598 7.58998 25.7949 7.60511 25.7466 7.64126L25.7189 7.66303L25.6245 7.71683C25.5847 7.74557 25.5983 7.75278 25.5445 7.77089C25.5029 7.78488 25.5082 7.77854 25.4768 7.80208C25.2802 7.94942 25.0808 8.09877 24.9037 8.26931L24.4155 8.78487L24.3717 8.8283C24.3352 8.8835 24.3049 8.92714 24.257 8.97651C24.2274 9.00703 24.2005 9.03037 24.1768 9.06575L24.0888 9.18532C23.9038 9.38427 23.7191 9.62779 23.5633 9.8522C23.534 9.89433 23.51 9.9278 23.4741 9.96506L23.4286 10.0139C23.4033 10.0564 23.3743 10.0818 23.3478 10.1217C23.2645 10.2468 23.1901 10.3992 23.1236 10.5345L22.6426 10.6893C22.6743 10.5418 22.8542 10.3447 22.9453 10.2136C23.3651 9.61039 23.7869 8.99351 24.2772 8.44482C24.4737 8.22494 24.6999 8.04118 24.9185 7.84484Z" fill="#D9571F"/>
<path d="M37.0753 24.3539L37.0977 24.4046C36.946 24.7068 36.7905 25.0031 36.5855 25.2741C36.3695 25.5597 36.1121 25.7994 35.8568 26.046L34.0456 27.669C33.8405 27.8703 33.606 28.0454 33.4299 28.2791C33.3517 28.3827 33.2544 28.4696 33.177 28.576C32.8884 28.9726 32.6505 29.3887 32.4352 29.8284L32.4687 29.8784L32.5301 29.8729L32.5595 29.898L32.627 29.8191L32.6706 29.832C32.717 29.784 32.7406 29.7568 32.7716 29.6972L32.8053 29.65L32.7984 29.5715L32.8455 29.5557C32.867 29.5119 32.8643 29.535 32.8516 29.4861C32.8751 29.4518 32.8868 29.4397 32.9217 29.4169C32.9628 29.3902 32.9712 29.3644 32.9939 29.3233C33.0131 29.2886 33.0391 29.2654 33.068 29.2391L33.0749 29.1921C33.1298 29.1369 33.112 29.1277 33.1424 29.0707C33.1649 29.0285 33.2244 29.0187 33.2444 28.9654C33.261 28.9216 33.2539 28.9414 33.2903 28.8955C33.3221 28.8555 33.3357 28.8385 33.3444 28.7879C33.4046 28.7404 33.4074 28.7382 33.4453 28.6732L33.5328 28.5857L33.533 28.5453C33.5674 28.5097 33.6003 28.4799 33.6406 28.4509L33.6408 28.4107C33.8232 28.2432 33.9685 28.0274 34.1663 27.8851C34.3025 27.7871 34.3897 27.6431 34.5365 27.555C34.6128 27.5092 34.6541 27.3737 34.7454 27.3731L34.7786 27.3353C34.8115 27.2985 34.8416 27.281 34.8801 27.2519C34.9499 27.199 35.0028 27.1464 35.0754 27.0969L35.1428 27.023L35.1899 26.9692L35.2304 26.969L35.3516 26.8345L35.3788 26.8342L35.517 26.7083C35.5837 26.6417 35.4806 26.7421 35.5874 26.6658C35.6134 26.6472 35.6266 26.6152 35.6483 26.5917C35.7598 26.4704 35.8917 26.3627 36.005 26.2416C36.2485 25.981 36.551 25.7452 36.746 25.4467C36.7863 25.385 36.851 25.3474 36.8921 25.2791C36.9171 25.2377 36.9435 25.2186 36.9818 25.1905L36.9881 25.1679C37.0045 25.1242 37.0336 25.104 37.0626 25.0693C37.1052 25.0184 37.129 24.9597 37.1704 24.9076C37.2056 24.8634 37.2051 24.8481 37.2244 24.8L37.2447 24.7729C37.2597 24.7479 37.2634 24.7173 37.2784 24.6922L37.3031 24.6681C37.3399 24.631 37.3557 24.5967 37.3792 24.5506C37.4051 24.4999 37.3923 24.5035 37.4491 24.4829C37.2535 24.9267 36.9519 25.3126 36.6322 25.6737C36.3108 26.037 35.9641 26.3916 35.5999 26.7119C35.079 27.1698 34.529 27.5837 34.0396 28.0785C33.4684 28.6559 32.9541 29.3813 32.5971 30.113L32.2445 30.8179C32.1818 30.6866 32.1398 30.5651 32.1035 30.4251C32.1513 30.3386 32.1907 30.2564 32.2223 30.1626C32.5304 29.5126 32.8519 28.8747 33.3206 28.323C34.5035 26.9309 36.2893 26.0685 37.0753 24.3539Z" fill="#A10A08"/>
<path d="M24.7734 10.2473C25.3994 9.56545 26.253 8.98614 27.203 8.93975C27.6384 8.91846 27.9889 9.10691 28.3314 9.35325C28.9677 9.81079 29.3079 10.5669 30.0509 10.9009C30.6916 11.1889 31.3299 11.124 32.0074 11.082C32.2202 11.0688 32.4383 11.0458 32.6461 11.1065C33.1609 11.2565 33.4531 11.8567 33.6054 12.3245L33.6172 12.3542C33.6374 12.4193 33.6256 12.5048 33.6236 12.5729C33.7563 12.8794 33.8517 13.2147 33.9391 13.537C34.1808 14.4278 34.2946 15.1996 34.1773 16.1214C34.0876 16.8265 33.9646 17.4684 34.0862 18.1808C34.1956 18.5613 34.3096 18.9274 34.4897 19.2816C34.8379 19.9662 35.3337 20.5803 35.6339 21.288C35.7617 21.5894 35.8351 21.9032 35.8879 22.2247C36.0571 23.2553 35.7181 24.2677 35.1176 25.0925C34.6866 25.6844 34.0959 26.146 33.4792 26.5311L32.6711 27.0016C32.5507 27.0788 32.4313 27.1619 32.3198 27.2517C32.2579 27.3016 32.2066 27.365 32.1339 27.3991C32.1263 26.8151 31.9823 26.2081 31.7072 25.6922C31.4928 25.2904 31.202 24.9268 30.9278 24.5648C31.2231 24.2742 31.4846 23.9654 31.724 23.6279C32.6699 22.2948 33.2273 20.5834 33.2388 18.9471C33.2406 18.6987 33.2549 18.4373 33.2122 18.192C33.2148 17.8679 33.1636 17.5261 33.1144 17.2058C32.9869 16.3756 32.7575 15.5427 32.3845 14.7881C31.4075 12.8112 29.284 11.4213 27.2483 10.7258L25.9351 10.3757L24.7734 10.2473Z" fill="url(#paint4_linear_2562_8256)"/>
<path d="M24.7734 10.2473C25.3994 9.56545 26.253 8.98614 27.203 8.93975C27.6384 8.91846 27.9889 9.10691 28.3314 9.35325C28.9677 9.81079 29.3079 10.5669 30.0509 10.9009C30.6916 11.1889 31.3299 11.124 32.0074 11.082C32.2202 11.0688 32.4383 11.0458 32.6461 11.1065C33.1609 11.2565 33.4531 11.8567 33.6054 12.3245L33.6172 12.3542C33.6374 12.4193 33.6256 12.5048 33.6236 12.5729C33.7563 12.8794 33.8517 13.2147 33.9391 13.537C34.1808 14.4278 34.2946 15.1996 34.1773 16.1214C34.0876 16.8265 33.9646 17.4684 34.0862 18.1808C34.055 18.2079 34.0729 18.1944 34.0317 18.2195C33.8754 18.0407 33.7856 17.7565 33.7083 17.5351C33.5496 17.0806 33.6635 16.5142 33.6961 16.0436C33.7133 15.7968 33.7093 15.5451 33.7074 15.2976C33.7066 15.1799 33.7232 15.0147 33.6912 14.9043C33.6652 14.8145 33.6795 14.7093 33.6637 14.6149L33.6377 14.4532L33.5978 14.2106C33.5864 14.1639 33.5726 14.1263 33.5653 14.0777C33.5405 13.9114 33.4892 13.7352 33.4362 13.5758L33.396 13.4563C33.3739 13.3825 33.337 13.3177 33.3145 13.2439C33.298 13.1901 33.3083 13.2143 33.2893 13.1725C33.2017 12.9798 33.1527 12.7584 33.0347 12.5807L33.008 12.6209L33.035 12.7017L33.1376 13.0039L33.2659 13.3752C33.3435 13.6038 33.4199 13.864 33.4553 14.1027L33.4699 14.1971C33.4868 14.2574 33.4866 14.2972 33.497 14.3588L33.5085 14.3851C33.5346 14.447 33.5119 14.5111 33.5247 14.5744C33.5822 14.8601 33.5925 16.3159 33.4961 16.5502L33.4389 16.5667C33.0819 16.2917 33.0822 15.7631 33.0549 15.3501C33.0368 15.076 33.0161 14.8002 32.9647 14.5299C32.8458 13.9044 32.5243 12.9921 31.9135 12.6815C31.6267 12.5357 31.3048 12.4893 31.0161 12.3485C30.6306 12.1608 30.2772 11.883 29.9238 11.6417C29.3126 11.2464 28.681 10.838 27.9556 10.7019C27.7313 10.6598 27.4965 10.6432 27.269 10.6693L27.2484 10.7258L25.9353 10.3757L24.7734 10.2473Z" fill="#F48926"/>
<path d="M24.7719 10.2474L25.9337 10.3759L27.2468 10.7259C29.2825 11.4215 31.406 12.8113 32.383 14.7882C32.756 15.5428 32.9854 16.3758 33.1129 17.206C33.1621 17.5262 33.2132 17.868 33.2107 18.1922L33.1948 18.4005C33.1724 18.3005 33.2101 18.1659 33.1478 18.0909C33.1524 17.9905 33.151 17.9074 33.1412 17.8079L33.1409 17.7675L33.1345 17.7326L33.0736 17.2555C33.0457 17.093 33.0288 16.9317 32.9927 16.7705L32.986 16.7031L32.9451 16.6801L32.8907 16.7227C32.8876 16.873 32.9108 17.0092 32.9145 17.1553C32.9182 17.3019 32.9049 17.4746 32.9412 17.6155C32.9784 17.7598 32.9581 17.9869 32.9251 18.1315L32.9022 18.2911C32.8815 18.4309 32.8914 18.5692 32.8667 18.7106C32.7991 19.0982 32.754 19.4833 32.6617 19.8676C32.3851 21.0191 31.8275 22.2449 31.0712 23.1574C30.9077 23.3547 30.7419 23.5834 30.537 23.7377L30.3516 23.861C29.984 23.5007 29.6416 23.1122 29.2516 22.7756C28.5817 22.1976 27.7364 21.8749 26.8518 21.885C26.214 21.8922 25.5847 22.0553 24.9407 22.0437C24.6998 22.0394 24.4517 22.0196 24.2128 21.9888C24.055 21.9684 23.8242 21.887 23.6735 21.9123L23.6086 21.7353C22.7424 19.5222 20.8985 17.9445 18.7616 17.0078L17.9885 16.7379C17.7953 16.7027 17.6094 16.6343 17.4184 16.5884C17.249 16.5476 17.079 16.5341 16.9141 16.4755L16.9772 16.3413C17.1931 16.0646 17.3237 15.6305 17.4663 15.3082C17.6313 14.9352 17.8293 14.5543 17.966 14.1717C17.9893 14.1065 17.9889 14.1061 17.9591 14.0467L17.9416 13.9083L18.0382 13.824C18.1976 13.6943 18.3159 13.5004 18.4489 13.3428L19.0061 12.7406C19.9867 11.7429 21.3313 11.121 22.6414 10.6895L23.1224 10.5347C23.6193 10.3744 24.1169 10.2926 24.6372 10.2614L24.7719 10.2474Z" fill="#F3EFD5"/>
<path d="M29.2719 15.7191C29.5078 16.5931 29.3941 17.4766 28.9441 18.2605C28.4655 19.0941 27.6364 19.6965 26.7128 19.9383C25.7507 20.1902 24.7098 20.0366 23.8537 19.5343C23.052 19.064 22.467 18.3581 22.1973 17.4658L22.233 17.428L22.7918 17.9907C23.0504 18.2098 23.3087 18.3943 23.6118 18.5469C24.5327 19.0103 25.8501 19.0739 26.8196 18.7469C27.8948 18.3841 28.5873 17.5871 28.988 16.5419C29.0828 16.2947 29.1293 15.9876 29.2501 15.7588L29.2719 15.7191Z" fill="#FAA13B"/>
<path d="M17.9897 16.7376C17.9126 16.5504 17.9252 16.2939 17.954 16.0965C18.0114 15.7031 18.1728 15.3605 18.3715 15.0188C18.7094 14.438 19.1214 13.9041 19.6493 13.4838C20.1115 13.1157 20.6451 12.7714 21.1919 12.5454C21.9216 12.2439 22.661 11.9648 23.4393 11.8146C24.6841 11.5744 25.9062 11.7196 27.0844 12.168C27.2042 12.2135 27.3215 12.255 27.4286 12.3271C26.5855 12.2329 25.7886 12.2897 24.9508 12.3989C23.3242 12.6108 21.7668 13.0584 20.4638 14.1029C19.7329 14.6886 19.1527 15.4007 18.9005 16.3206C18.8391 16.5447 18.8295 16.7909 18.7629 17.0074L17.9897 16.7376Z" fill="#FEFEFE"/>
<path d="M22.1991 17.4658L22.182 17.4097C21.9898 16.664 22.1274 15.818 22.5074 15.1529C22.9858 14.3156 23.8473 13.6753 24.7756 13.4251C25.8332 13.1401 26.9019 13.2655 27.85 13.8207C28.5297 14.2188 29.0778 14.9539 29.2738 15.7191L29.252 15.7588C29.1312 15.9876 29.0847 16.2947 28.9899 16.5419C28.5892 17.5871 27.8967 18.3841 26.8215 18.7469C25.852 19.0739 24.5346 19.0103 23.6137 18.5469C23.3106 18.3943 23.0522 18.2098 22.7937 17.9907L22.2349 17.428L22.1991 17.4658Z" fill="#FDC831"/>
<path d="M23.1222 15.6789C23.1949 15.6575 23.2582 15.6495 23.3329 15.6638C23.4364 15.6834 23.5322 15.765 23.5873 15.8524C23.6634 15.9733 23.6706 16.1169 23.632 16.2518C23.5814 16.429 23.4823 16.5096 23.3238 16.5927L23.2958 16.5941C23.2348 16.5984 23.171 16.6081 23.1109 16.5929C23.0138 16.5683 22.9327 16.4951 22.8829 16.4101C22.8064 16.2793 22.8015 16.13 22.8493 15.9876C22.8991 15.8394 22.9861 15.7502 23.1222 15.6789Z" fill="#FEFEFE"/>
<path d="M25.0441 13.7877C25.3171 13.7544 25.6814 13.7403 25.921 13.897C26.0153 13.9586 26.0604 14.022 26.0876 14.1298C26.0569 14.5302 25.6145 14.6675 25.2779 14.7391C25.1551 14.7652 24.996 14.7784 24.8836 14.8336C24.6654 14.9408 24.4496 15.2007 24.2719 15.3684C24.1748 15.4452 24.0588 15.5339 23.9375 15.5656C23.8069 15.5998 23.689 15.5921 23.5754 15.5186C23.4579 15.4427 23.3805 15.318 23.3568 15.1807C23.3212 14.9746 23.3933 14.7712 23.5116 14.605C23.8374 14.1472 24.5114 13.8839 25.0441 13.7877Z" fill="#FEFEFE"/>
<path d="M23.6739 21.9121C23.8246 21.8868 24.0554 21.9682 24.2132 21.9886C24.4521 22.0194 24.7002 22.0392 24.941 22.0435C25.5851 22.0551 26.2144 21.8919 26.8521 21.8848C27.7367 21.8747 28.5821 22.1973 29.2519 22.7755C29.642 23.112 29.9844 23.5006 30.352 23.8609L30.5374 23.7375C30.7423 23.5832 30.908 23.3545 31.0716 23.1572C31.8279 22.2447 32.3855 21.0189 32.6621 19.8674C32.7544 19.4832 32.7996 19.098 32.8671 18.7104C32.8918 18.569 32.8819 18.4307 32.9026 18.291L32.9255 18.1313C32.9585 17.9867 32.9788 17.7596 32.9416 17.6154C32.9053 17.4744 32.9186 17.3017 32.9149 17.1551C32.9111 17.009 32.888 16.8728 32.891 16.7226L32.9454 16.6799L32.9864 16.7029L32.9931 16.7704C33.0292 16.9315 33.046 17.0928 33.0739 17.2554L33.1349 17.7324L33.1413 17.7673L33.1415 17.8077C33.1513 17.9072 33.1527 17.9903 33.1482 18.0907C33.2104 18.1657 33.1728 18.3004 33.1951 18.4003L33.2111 18.192C33.2538 18.4373 33.2394 18.6986 33.2377 18.947C33.2262 20.5834 32.6688 22.2947 31.7229 23.6279C31.4834 23.9654 31.2219 24.2742 30.9267 24.5647C31.2009 24.9268 31.4917 25.2903 31.7061 25.6922C31.9812 26.2081 32.1252 26.815 32.1328 27.3991L32.1248 27.5373L31.9929 28.866C31.8849 29.3951 31.9609 29.9126 32.1026 30.4253C32.1389 30.5653 32.1809 30.6868 32.2436 30.8181C32.3819 31.2106 32.5582 31.5937 32.6069 32.0129C32.6231 32.1521 32.6126 32.2961 32.6186 32.4363L32.6506 32.1056C32.7335 32.23 32.7443 32.4157 32.7509 32.5622C32.768 32.9438 32.7633 33.3328 32.6897 33.7084C32.5525 34.4092 32.2227 35.1137 31.7728 35.6658C31.455 36.0559 31.0313 36.3909 30.6095 36.6616C30.3129 36.8519 30.0011 37.0186 29.7148 37.2251C29.3115 37.5161 28.9431 37.8886 28.5963 38.2445L28.6079 38.2898C28.1698 38.5571 27.6329 38.7926 27.1535 38.9795C27.1076 38.9755 27.0663 38.9727 27.0204 38.9796L26.9437 38.9921C25.8139 39.1523 24.889 38.5145 23.8287 38.2827C23.2355 38.1528 22.6525 38.1808 22.0506 38.1573C20.5099 38.0973 19.0662 37.7062 17.8223 36.7555L17.7812 36.7397L16.4824 35.6546L16.917 35.3194L16.6497 35.0696L16.1816 34.5585C16.1754 34.5205 16.0936 34.4372 16.0658 34.4006L15.6587 33.8443C15.4198 33.4918 15.2465 33.1152 15.0404 32.7455L14.6602 31.7657C14.5911 31.4368 14.5838 31.1312 14.5863 30.7971C14.6019 30.5552 14.6785 30.2985 14.7835 30.0813C15.2245 29.1698 16.1394 28.9346 16.9607 28.4937C17.3109 28.3056 17.6297 28.0837 17.9123 27.8033C18.134 27.5834 19.2659 26.4088 19.2666 26.1848C19.2862 26.1211 19.4476 25.9748 19.4973 25.9171C19.6557 25.7329 19.7795 25.5321 19.9103 25.3284C20.0368 25.2782 20.144 25.0546 20.2289 24.9417L20.9229 24.0201C21.2126 23.5965 21.47 23.1349 21.8152 22.7533C22.0773 22.4636 22.3804 22.2271 22.7238 22.0421C22.8511 21.9985 22.9845 21.9508 23.1176 21.9294C23.2398 21.9097 23.3723 21.9208 23.4835 21.8625C23.5323 21.9104 23.5545 21.9486 23.631 21.9312L23.6739 21.9121Z" fill="#D9D2A7"/>
<path d="M16.919 35.3195C17.0724 35.4104 17.1921 35.5388 17.3302 35.6499C17.5718 35.8441 17.8308 36.0244 18.093 36.1895C18.2929 36.3153 18.5011 36.4414 18.7158 36.54C18.8614 36.6068 19.0434 36.6473 19.1741 36.7382C18.9918 36.7704 18.8013 36.7607 18.6165 36.7615L17.8242 36.7555L17.7832 36.7398L16.4844 35.6546L16.919 35.3195Z" fill="#CBCBC8"/>
<path d="M32.6225 32.4365L32.6545 32.1058C32.7375 32.2302 32.7483 32.4159 32.7548 32.5624C32.7719 32.944 32.7672 33.333 32.6936 33.7086C32.5565 34.4094 32.2266 35.1139 31.7767 35.666C31.4589 36.0561 31.0352 36.3911 30.6134 36.6618C30.3168 36.8521 30.005 37.0188 29.7188 37.2253C29.3154 37.5163 28.947 37.8888 28.6002 38.2447L28.6118 38.29C28.1737 38.5573 27.6368 38.7928 27.1574 38.9796C27.1115 38.9757 27.0702 38.9729 27.0244 38.9798L26.9476 38.9923C25.8178 39.1525 24.8929 38.5147 23.8326 38.2828C23.2394 38.153 22.6564 38.181 22.0545 38.1575C20.5138 38.0975 19.0701 37.7064 17.8262 36.7557L18.6184 36.7616C18.8032 36.7609 18.9937 36.7706 19.176 36.7383C19.3723 36.7861 19.5598 36.8708 19.7544 36.9271C20.2885 37.0815 20.8386 37.1718 21.3946 37.1869C22.2063 37.2089 23.001 37.0237 23.8113 37.1767C24.7818 37.3601 25.5838 37.9962 26.5776 38.123C27.1315 38.1938 27.7423 38.0968 28.2142 37.785C28.4635 37.6204 28.6831 37.3817 28.8713 37.1523C29.1651 36.7941 29.4189 36.4116 29.7576 36.0915C30.1466 35.7238 30.6485 35.5413 31.0666 35.2129C31.9387 34.5281 32.4902 33.5307 32.6225 32.4365Z" fill="#81AA6C"/>
<path d="M28.6426 36.7415C28.515 36.9416 28.2802 37.0791 28.071 37.1769C27.9054 37.2543 27.7299 37.3123 27.551 37.3508C26.9103 37.4887 26.2777 37.3215 25.699 37.045C25.1626 36.7887 24.6936 36.4737 24.1014 36.3412C23.4979 36.2062 22.8617 36.2371 22.2464 36.2264C20.6867 36.1994 19.3155 35.8068 18.0091 34.951C17.6136 34.6919 17.2145 34.4054 16.8784 34.0718C16.156 33.3548 15.4965 32.4098 15.133 31.4566C15.0737 31.3011 14.9976 31.1424 14.966 30.9785L14.9598 30.9434C14.9468 30.8751 14.946 30.8198 14.9562 30.7509C15.0123 30.3735 15.1932 30.0484 15.4642 29.7829C15.8596 29.3955 16.3334 29.1798 16.8543 29.013C17.3523 28.8535 17.7862 28.7693 18.2261 28.4586C18.5606 28.2222 18.8284 27.8989 19.0855 27.5829L19.9596 26.509C20.3857 26.0092 20.8645 25.5474 21.2346 25.0032C21.7836 24.1961 21.9443 23.196 22.8125 22.6371C22.9847 22.5263 23.1754 22.4372 23.3798 22.4084C23.8256 22.3456 24.3108 22.4702 24.7633 22.4511C25.7089 22.4109 26.6372 22.0196 27.5826 22.2327C27.9246 22.3098 28.2677 22.4343 28.5671 22.6192C29.0768 22.9342 29.5018 23.3664 29.9135 23.796C30.4752 24.382 30.9891 24.9649 31.4204 25.6566C31.6388 26.0069 31.8173 26.4662 31.8567 26.8782C31.8873 27.1976 31.8512 27.5185 31.8205 27.8363C31.8012 28.0357 31.7997 28.2436 31.753 28.4386C31.698 28.9334 31.6418 29.4069 31.7275 29.9031C31.7892 30.2605 31.9204 30.6512 32.0539 30.9883C32.136 31.1955 32.2362 31.3898 32.2996 31.605C32.5512 32.4585 32.2248 33.4802 31.6834 34.1611C31.4331 34.476 31.1084 34.7524 30.7947 35.0031C30.0692 35.5827 29.2249 36.0006 28.6426 36.7415Z" fill="#F3EFD5"/>
<path d="M28.0457 27.7412C28.6882 28.5077 29.0684 29.5594 28.9701 30.5666C28.8679 31.6134 28.3215 32.5524 27.5077 33.213C26.6839 33.8817 25.5943 34.17 24.5455 34.0519C23.6116 33.9467 22.629 33.4446 22.0352 32.7068C22.1895 32.7227 22.454 32.924 22.6087 32.9992C23.2523 33.3119 24.102 33.3476 24.7976 33.2277C25.9468 33.0296 27.023 32.2725 27.6787 31.3207C28.1349 30.6587 28.5525 29.6427 28.3962 28.8234C28.3656 28.6627 28.3342 28.5113 28.2766 28.3572C28.2222 28.2117 28.0283 27.9214 28.0405 27.7786L28.0457 27.7412Z" fill="#FAA13B"/>
<path d="M28.6434 36.7416C28.5911 36.6005 28.555 36.3737 28.5869 36.2258L28.5936 36.1978C28.7622 35.4369 29.853 34.9617 30.4229 34.5272C30.7797 34.2553 31.1355 33.9131 31.367 33.5261C31.7162 32.9424 31.8918 32.1471 31.7173 31.4793L31.7036 31.4284C31.6052 31.0505 31.4186 30.7186 31.2679 30.3613C31.0348 29.8079 30.9427 29.2666 30.8732 28.6737C30.6856 27.0704 30.0755 25.6483 28.7736 24.6323C27.8858 23.9395 27.019 23.5675 25.9068 23.4054C25.4775 23.3428 25 23.3061 24.5682 23.3621L23.6133 23.4737C25.1293 22.8757 26.8606 22.815 28.3646 23.4684C29.2974 23.8737 30.2369 24.6984 30.7835 25.5554C31.1084 26.0648 31.3427 26.6215 31.5108 27.2005C31.5794 27.4367 31.6259 27.677 31.6611 27.9204C31.6822 28.0662 31.6759 28.2647 31.7334 28.3957L31.7537 28.4387C31.6987 28.9335 31.6425 29.407 31.7282 29.9032C31.7899 30.2606 31.9211 30.6513 32.0546 30.9883C32.1367 31.1956 32.2369 31.3899 32.3003 31.6051C32.5519 32.4586 32.2255 33.4803 31.6841 34.1612C31.4338 34.4761 31.1091 34.7525 30.7954 35.0032C30.07 35.5828 29.2257 36.0007 28.6434 36.7416Z" fill="#FEFEFE"/>
<path d="M22.0341 32.7068L21.9542 32.6274C21.3193 31.883 21.0057 30.8436 21.0923 29.8735C21.1897 28.7807 21.7041 27.8804 22.5517 27.191C23.35 26.5418 24.4305 26.2313 25.4544 26.3474C26.4117 26.4559 27.443 26.9834 28.0446 27.7412L28.0395 27.7785C28.0273 27.9213 28.2211 28.2116 28.2755 28.3571C28.3331 28.5112 28.3645 28.6626 28.3952 28.8233C28.5514 29.6426 28.1338 30.6586 27.6777 31.3206C27.0219 32.2725 25.9458 33.0295 24.7965 33.2276C24.101 33.3475 23.2513 33.3119 22.6077 32.9991C22.453 32.9239 22.1884 32.7226 22.0341 32.7068Z" fill="#FDC831"/>
<path d="M21.918 30.1485C21.9891 30.1345 22.0626 30.1499 22.1297 30.1751C22.2172 30.2081 22.3109 30.3051 22.3459 30.3911C22.39 30.4993 22.3809 30.613 22.3276 30.7169C22.2729 30.8233 22.1767 30.8747 22.0676 30.9098C21.9965 30.915 21.9322 30.9167 21.8641 30.8916C21.7472 30.8486 21.6513 30.7556 21.6095 30.6372C21.5759 30.542 21.5919 30.4359 21.6425 30.35C21.7071 30.2401 21.799 30.1845 21.918 30.1485Z" fill="#FEFEFE"/>
<path d="M23.771 27.1255C23.9511 27.1188 24.1475 27.1514 24.2813 27.2813C24.3761 27.3733 24.4335 27.4808 24.4265 27.6156C24.408 27.969 23.9452 28.1328 23.6849 28.2805C23.552 28.3559 23.4264 28.4569 23.317 28.5632C23.1541 28.7214 23.0185 28.8961 22.9105 29.0963C22.7646 29.3668 22.7005 29.599 22.4602 29.8029L22.4516 29.8063C22.4021 29.8264 22.35 29.8492 22.2972 29.8588C22.1977 29.877 22.0831 29.8452 22.0017 29.7874C21.9039 29.718 21.8418 29.5921 21.827 29.4746C21.7678 29.0036 22.1111 28.3289 22.3901 27.9667C22.7309 27.5243 23.2167 27.2051 23.771 27.1255Z" fill="#FEFEFE"/>
<defs>
<filter id="filter0_di_2562_8256" x="0" y="0" width="49" height="50" filterUnits="userSpaceOnUse" color-interpolation-filters="sRGB">
<feFlood flood-opacity="0" result="BackgroundImageFix"/>
<feColorMatrix in="SourceAlpha" type="matrix" values="0 0 0 0 0 0 0 0 0 0 0 0 0 0 0 0 0 0 127 0" result="hardAlpha"/>
<feOffset dx="1" dy="1"/>
<feGaussianBlur stdDeviation="1"/>
<feComposite in2="hardAlpha" operator="out"/>
<feColorMatrix type="matrix" values="0 0 0 0 0 0 0 0 0 0 0 0 0 0 0 0 0 0 0.09 0"/>
<feBlend mode="normal" in2="BackgroundImageFix" result="effect1_dropShadow_2562_8256"/>
<feBlend mode="normal" in="SourceGraphic" in2="effect1_dropShadow_2562_8256" result="shape"/>
<feColorMatrix in="SourceAlpha" type="matrix" values="0 0 0 0 0 0 0 0 0 0 0 0 0 0 0 0 0 0 127 0" result="hardAlpha"/>
<feOffset dy="4"/>
<feGaussianBlur stdDeviation="5"/>
<feComposite in2="hardAlpha" operator="arithmetic" k2="-1" k3="1"/>
<feColorMatrix type="matrix" values="0 0 0 0 0 0 0 0 0 0 0 0 0 0 0 0 0 0 0.09 0"/>
<feBlend mode="normal" in2="shape" result="effect2_innerShadow_2562_8256"/>
</filter>
<linearGradient id="paint0_linear_2562_8256" x1="9.37266" y1="21.5362" x2="7.74743" y2="21.228" gradientUnits="userSpaceOnUse">
<stop stop-color="#DDDBC6"/>
<stop offset="1" stop-color="#E8E9E9"/>
</linearGradient>
<linearGradient id="paint1_linear_2562_8256" x1="13.3978" y1="14.1035" x2="10.4276" y2="13.009" gradientUnits="userSpaceOnUse">
<stop stop-color="#C72C0E"/>
<stop offset="1" stop-color="#DC5120"/>
</linearGradient>
<linearGradient id="paint2_linear_2562_8256" x1="11.4681" y1="14.1464" x2="13.8493" y2="14.7372" gradientUnits="userSpaceOnUse">
<stop stop-color="#AE160C"/>
<stop offset="1" stop-color="#DB2612"/>
</linearGradient>
<linearGradient id="paint3_linear_2562_8256" x1="29.5379" y1="8.46606" x2="27.2563" y2="10.7864" gradientUnits="userSpaceOnUse">
<stop stop-color="#FEBB60"/>
<stop offset="1" stop-color="#FFD96A"/>
</linearGradient>
<linearGradient id="paint4_linear_2562_8256" x1="29.1976" y1="18.2621" x2="34.5199" y2="16.9171" gradientUnits="userSpaceOnUse">
<stop stop-color="#DD5C0C"/>
<stop offset="1" stop-color="#F17C20"/>
</linearGradient>
</defs>
</svg>
