<svg width="49" height="49" viewBox="0 0 49 49" fill="none" xmlns="http://www.w3.org/2000/svg">
<g filter="url(#filter0_di_2562_8548)">
<circle cx="23.5" cy="23.5" r="22.5" fill="white"/>
</g>
<path d="M18.1667 20.2711C19.2127 21.3871 20.379 24.7109 22.634 27.1263C22.9953 27.514 23.3756 27.824 23.7627 28.0703C25.7807 29.3729 27.9345 29.0122 28.2296 29.5852C28.5811 30.2695 28.4213 31.2523 27.9324 31.7148C27.4473 32.1757 27.994 32.6675 28.1031 33.4335C28.1256 33.5882 28.1102 33.7118 28.0664 33.8112C27.9582 34.0614 27.6699 34.1626 27.3404 34.2181C27.1432 34.2519 26.9338 34.2679 26.7367 34.2856C26.4703 34.3102 26.2967 34.4484 26.1852 34.6371C26.1347 34.7147 26.0966 34.8004 26.0654 34.8922C25.9873 35.1231 25.9535 35.385 25.9298 35.6063C25.8695 36.12 25.1768 36.4995 24.2511 35.9739C24.1067 35.8928 23.9407 35.7874 23.7527 35.6663C23.111 35.2594 22.2343 34.6842 21.2401 34.257C20.6537 34.0024 20.024 33.7997 19.3798 33.718C19.3798 33.718 17.7049 33.4855 16.2135 34.2017C14.7235 34.9151 13.282 35.7336 12.0127 35.0966C11.4286 34.805 11.2531 34.4582 11.217 34.1046C11.1718 33.6873 11.3217 33.264 11.22 32.9155C11.2109 32.8833 11.1997 32.8565 11.1872 32.8326C10.9448 32.3476 10.0579 33.1262 8.93183 33.1552C7.85425 33.1817 7.35825 31.5932 7.38521 30.4933C7.38901 30.3903 7.39557 30.2887 7.40821 30.1956C7.5282 29.279 7.7911 28.851 7.21324 28.1631C7.10888 28.0383 6.97545 27.9079 6.8101 27.7616C5.93127 26.9891 5.37327 26.0118 5.40542 25.1163L5.40638 25.1136C5.41424 24.9078 5.4525 24.705 5.52558 24.5101C5.92003 23.471 7.95443 22.8905 8.48695 22.6866C8.62218 22.634 8.71687 22.4952 8.79149 22.3042C9.005 21.7485 9.03811 20.7808 9.38815 20.4736C9.59383 20.2947 9.96362 20.211 10.4039 20.2255C10.9657 20.2453 11.6489 20.4253 12.2626 20.7763C12.8361 21.1017 13.388 21.1839 13.8449 21.0883C13.9692 21.0628 14.0822 21.0267 14.1914 20.976C14.3387 20.9095 14.4718 20.8243 14.5873 20.7192C14.6808 20.6371 14.7605 20.5428 14.8303 20.4415C14.9671 20.2375 15.2279 20.0399 15.5534 19.8939C16.3162 19.5527 17.437 19.4899 18.1667 20.2711Z" fill="#9EBF26"/>
<path d="M28.2303 29.5852C28.5818 30.2695 28.4221 31.2523 27.9331 31.7148C27.448 32.1757 27.9948 32.6674 28.1038 33.4335C28.1263 33.5881 28.111 33.7118 28.0672 33.8111C27.9589 34.0614 27.6706 34.1626 27.3411 34.2181C27.1439 34.2518 26.9345 34.2679 26.7374 34.2856C26.471 34.3102 26.2974 34.4484 26.1859 34.6371C26.1354 34.7147 26.0973 34.8004 26.0661 34.8922C25.988 35.1231 25.9542 35.3849 25.9305 35.6062C25.8702 36.12 25.1775 36.4995 24.2518 35.9738C24.1074 35.8928 23.9415 35.7874 23.7534 35.6663C23.1117 35.2594 22.235 34.6842 21.2408 34.257C21.0501 33.6601 20.7483 33.3284 20.6695 32.9703C20.6551 32.9043 20.6474 32.8378 20.651 32.7666C20.6618 32.5304 20.7734 32.427 20.9183 32.3436C20.9222 32.342 20.926 32.3405 20.9271 32.3376C21.0001 32.2979 21.0815 32.2613 21.1637 32.2154C21.2731 32.1491 21.3824 32.0672 21.4582 31.9271C21.509 31.8339 21.5159 31.7544 21.4984 31.6807C21.4422 31.4457 21.1199 31.2732 21.1485 30.8765C21.1542 30.8156 21.165 30.7504 21.1883 30.6775C21.3097 30.2933 21.511 30.1726 21.7576 30.0957C21.8717 30.0567 21.9944 30.0274 22.1227 29.9847C22.2177 29.9538 22.3184 29.9156 22.4206 29.8591C22.4572 29.8391 22.4912 29.8181 22.5184 29.7976C22.5801 29.7468 22.6161 29.6981 22.6371 29.6464C22.6897 29.4938 22.5928 29.3276 22.5459 29.1472C22.5146 29.03 22.5011 28.9072 22.5635 28.7777C22.6291 28.6397 22.7444 28.5663 22.8799 28.5138C23.1468 28.4103 23.4963 28.3913 23.7229 28.1227C23.736 28.1058 23.7494 28.0891 23.7625 28.0723L23.7636 28.0694C25.781 29.373 27.9349 29.0124 28.2303 29.5852Z" fill="#E9F79A"/>
<g opacity="0.44">
<path d="M23.5817 33.2611C23.7924 33.3502 23.9938 33.4385 24.1844 33.5224C24.187 33.5234 24.187 33.5234 24.1898 33.5247C24.6953 33.7526 25.1207 33.967 25.418 34.1388C25.8389 34.3798 26.0734 34.5353 26.1864 34.6383C26.3629 34.7955 26.2461 34.8336 26.0666 34.8934C26.0192 34.9089 25.9717 34.9245 25.922 34.9455C25.7971 34.996 25.4264 34.8799 24.9081 34.6752C23.9168 34.2875 22.3676 33.5681 20.8464 33.0279C20.7909 33.0084 20.7328 32.988 20.6698 32.9718C19.5086 32.6131 17.6956 32.5489 15.9963 32.6169C14.1779 32.6902 12.4884 32.9137 11.8681 33.0919C11.4422 33.213 11.3512 32.9701 11.7155 32.6973C11.816 32.6211 11.9484 32.5452 12.1204 32.4727C12.918 32.139 16.0133 31.8989 18.3955 31.9413C19.1658 31.9542 20.0408 32.1143 20.9187 32.345C20.9285 32.3523 20.9432 32.3551 20.9577 32.3577L20.9605 32.3588C21.8786 32.6087 22.7927 32.9368 23.5817 33.2611Z" fill="#4A5E00"/>
<path d="M8.60964 28.2116C8.1035 28.4657 8.70965 28.7021 9.48813 28.7793C10.2664 28.8564 18.4226 30.2578 21.7298 31.7842C25.037 33.3107 26.6903 34.3053 27.3106 34.2066C27.9312 34.1081 27.3193 33.6704 26.24 33.0808C25.1605 32.4915 20.5634 30.4507 18.0054 29.8835C15.4473 29.3163 10.7293 28.235 9.99209 28.2048C9.25439 28.1742 8.87353 28.0791 8.60964 28.2116Z" fill="#4A5E00"/>
<path d="M14.2503 20.9963C14.3009 21.0201 14.4373 21.1357 14.6475 21.3194C16.0121 22.5399 20.3908 26.7982 22.4558 28.234C22.5962 28.3323 22.7389 28.4252 22.88 28.5143C24.4326 29.4978 26.1575 30.1052 27.1119 30.4747C27.5726 30.6496 27.8528 30.7698 27.8484 30.8505C27.8358 31.1146 27.617 31.1775 27.0068 30.9892C26.8465 30.9397 26.0075 30.6836 24.8675 30.2257C24.2782 29.9857 23.606 29.6929 22.9047 29.3474C22.7939 29.2928 22.6758 29.2257 22.5461 29.1474C22.1671 28.9202 21.717 28.5946 21.2245 28.2105C19.9469 27.2124 18.3798 25.805 17.06 24.584C16.9935 24.5221 16.9242 24.4591 16.8588 24.3944C15.7485 23.3663 14.8397 22.4961 14.4654 22.1633C13.8654 21.6309 13.7571 21.2672 13.8461 21.088C13.9024 20.9653 14.048 20.9264 14.1926 20.9757C14.2124 20.9807 14.2325 20.9858 14.2503 20.9963Z" fill="#4A5E00"/>
<path d="M9.84555 21.7848C11.3844 23.5723 19.9032 29.0385 21.7425 30.0876C23.5818 31.1365 26.2272 32.1822 26.7658 32.133C27.3044 32.0838 27.2318 32.1142 26.5841 31.7906C25.9362 31.4669 24.4099 31.3852 21.3782 29.551C18.3464 27.7169 11.0553 22.349 10.3378 21.6071C9.62017 20.865 9.59385 21.4925 9.84555 21.7848Z" fill="#4A5E00"/>
</g>
<path opacity="0.39" d="M14.9724 32.2185C16.4414 32.1868 16.755 32.3492 15.9947 32.6156C15.5619 32.7687 14.7796 32.9567 13.6635 33.1637C11.4932 33.5652 11.5779 33.7611 11.2164 34.1048C11.1712 33.6875 11.3211 33.2642 11.2194 32.9157C11.2103 32.8835 11.1992 32.8567 11.1867 32.8327C11.3541 32.7871 11.5306 32.7418 11.7141 32.6962C12.6427 32.4665 13.7563 32.2425 14.9724 32.2185Z" fill="#4A5E00"/>
<path opacity="0.39" d="M12.1652 28.9605C14.5781 29.4871 16.732 29.9971 16.9863 30.2745C17.0647 30.3539 16.9762 30.4159 16.6856 30.4529C15.4498 30.6114 9.11991 30.1422 7.38465 30.4932C7.38845 30.3902 7.39501 30.2886 7.40765 30.1955C7.52764 29.2788 7.79054 28.8509 7.21268 28.1629C7.578 28.2295 7.99041 28.2895 8.43694 28.3512C9.53394 28.5035 10.8426 28.6721 12.1652 28.9605Z" fill="#4A5E00"/>
<path opacity="0.39" d="M8.79141 22.3035C9.40955 22.8304 10.3073 23.4241 11.358 24.2413C13.1141 25.6115 17.1303 27.5571 18.4965 28.4392C18.8262 28.6558 19.0021 28.8065 18.9468 28.8728C18.6622 29.2064 15.9422 28.0263 13.5637 26.8012C11.4188 25.6937 6.88519 23.6738 5.40643 25.1133C5.41429 24.9075 5.45255 24.7047 5.52563 24.5098C5.92008 23.4707 7.95447 22.8902 8.48699 22.6862C8.62222 22.6336 8.71667 22.4948 8.79141 22.3035Z" fill="#4A5E00"/>
<path opacity="0.39" d="M19.1746 27.1518C19.1746 27.1518 13.3018 22.6366 11.4309 20.9885C11.0654 20.6656 10.721 20.4147 10.4027 20.2249C10.9644 20.2447 11.6476 20.4248 12.2613 20.7758C12.8349 21.1012 13.3868 21.1834 13.8437 21.0877C13.9 20.9651 14.0456 20.9262 14.1902 20.9755C14.3374 20.9089 14.4705 20.8238 14.586 20.7186C14.5719 20.8933 14.5885 21.0933 14.6455 21.3191C14.7548 21.7814 15.0285 22.3455 15.5454 22.9959C15.9344 23.4866 16.3834 23.9542 16.8565 24.3939C16.9219 24.4586 16.9912 24.5216 17.0577 24.5835C18.6956 26.0733 20.5377 27.2475 21.0398 27.9111C21.1393 28.0403 21.1969 28.1396 21.222 28.2103C21.3694 28.6344 20.3539 28.1196 19.1746 27.1518Z" fill="#4A5E00"/>
<path opacity="0.39" d="M18.1641 20.2702C19.2102 21.3862 20.3765 24.71 22.6315 27.1254C22.9927 27.5131 23.3731 27.8231 23.7602 28.0694C25.7781 29.372 27.932 29.0113 28.2271 29.5843C28.5785 30.2686 28.4188 31.2513 27.9299 31.7138C27.4447 32.1748 27.9915 32.6665 28.1006 33.4326C28.1231 33.5872 28.1077 33.7109 28.0639 33.8102C27.9557 34.0605 27.6674 34.1617 27.3378 34.2172C27.1406 34.2509 26.9313 34.267 26.7341 34.2847C26.4678 34.3093 26.2942 34.4475 26.1827 34.6362C26.3591 34.7934 26.2424 34.8314 26.0628 34.8913C25.9847 35.1221 25.9509 35.384 25.9272 35.6053C25.867 36.119 25.1743 36.4986 24.2485 35.9729C24.1042 35.8919 23.9382 35.7864 23.7501 35.6654C23.9531 35.2604 24.682 35.0792 24.9045 34.6728C24.9799 34.5421 25.001 34.3894 24.9362 34.1982C24.849 33.938 24.5651 33.7179 24.1859 33.5222C24.1831 33.5211 24.1831 33.5211 24.1806 33.5199C23.9972 33.4262 23.7946 33.3407 23.5778 33.2586C22.6122 32.8938 21.415 32.6312 20.9571 32.3562L20.9542 32.3551C20.9444 32.3479 20.931 32.3423 20.924 32.3365C20.6366 32.1562 20.775 32.127 21.1606 32.2143C21.7038 32.3342 22.7355 32.6846 23.7668 33.1677C24.7764 33.6422 25.3805 33.7994 25.7452 33.7043C26.0256 33.6379 26.1636 33.4157 26.2347 33.0773C26.4013 32.3032 24.0068 32.034 22.1806 31.2713C20.3543 30.5089 22.1954 30.8692 23.2802 31.3773C24.3632 31.8815 26.125 32.2506 26.5766 32.1213L26.5804 32.1197C26.7283 32.0754 26.7023 31.9447 26.532 31.7645C26.1912 31.4041 25.2783 30.8552 24.0513 30.4792C23.196 30.2165 22.6997 29.9575 22.5152 29.7967C22.3701 29.6711 22.4188 29.6057 22.6338 29.6455C22.734 29.6641 22.8713 29.7074 23.045 29.7782C23.7527 30.0693 24.1413 30.0789 24.864 30.2246C25.175 30.2846 25.5458 30.3693 26.0291 30.5122C26.7567 30.723 27.0822 30.6624 27.1085 30.4735C27.142 30.2434 26.7314 29.8293 26.0711 29.5068C25.5587 29.257 24.7139 28.7894 23.7196 28.122C22.3803 27.2285 20.7765 25.974 19.3532 24.4005C16.8772 21.6576 16.2414 20.2182 15.5507 19.8926C16.3137 19.5517 17.4345 19.489 18.1641 20.2702Z" fill="#4A5E00"/>
<path d="M25.2855 15.5708C25.9961 16.9253 26.2335 20.44 27.7624 23.3692C28.0072 23.8392 28.291 24.2393 28.5985 24.5801C30.1956 26.3739 32.3677 26.6007 32.4996 27.2317C32.6557 27.9849 32.2398 28.8897 31.6452 29.205C31.0548 29.5197 31.4504 30.1396 31.3514 30.9069C31.3316 31.0622 31.284 31.1768 31.2153 31.2611C31.0442 31.4734 30.7395 31.494 30.407 31.4598C30.2078 31.4395 30.0019 31.3994 29.8071 31.3641C29.5439 31.3165 29.3397 31.4036 29.1819 31.5558C29.1127 31.617 29.0528 31.6896 28.9986 31.7698C28.8617 31.9715 28.7593 32.2147 28.6775 32.4217C28.4825 32.9005 27.7134 33.0816 26.9616 32.3282C26.8442 32.2116 26.7123 32.0658 26.5632 31.8989C26.0534 31.3357 25.3618 30.5472 24.5176 29.8705C24.0204 29.4687 23.4675 29.1056 22.8685 28.855C22.8685 28.855 21.3162 28.1841 19.6879 28.4765C18.0617 28.7665 16.454 29.171 15.4006 28.2183C14.9156 27.7815 14.8391 27.4006 14.8981 27.05C14.9657 26.6357 15.2234 26.2679 15.2181 25.9048C15.2181 25.8714 15.2142 25.8425 15.2086 25.816C15.1043 25.2841 14.042 25.7977 12.9491 25.5253C11.9034 25.2635 11.8492 23.6002 12.1683 22.547C12.1995 22.4488 12.2331 22.3526 12.2699 22.2663C12.6299 21.4149 12.9975 21.0727 12.6241 20.2555C12.5567 20.1075 12.4627 19.9461 12.3428 19.7611C11.7017 18.7822 11.4249 17.6913 11.6945 16.8368L11.6964 16.8346C11.7588 16.6384 11.8497 16.4531 11.9722 16.2848C12.6296 15.3886 14.7451 15.3719 15.313 15.3171C15.4574 15.3026 15.5856 15.1941 15.7086 15.0296C16.0625 14.5511 16.3527 13.6273 16.7717 13.4245C17.0177 13.3068 17.3964 13.3249 17.8168 13.4565C18.353 13.6254 18.9634 13.9813 19.4612 14.4832C19.927 14.9495 20.4372 15.1763 20.903 15.2058C21.0296 15.2144 21.1481 15.2097 21.2667 15.1899C21.4264 15.1651 21.5772 15.1184 21.7166 15.048C21.8287 14.9938 21.9305 14.9242 22.0249 14.8452C22.211 14.6852 22.5154 14.5642 22.8679 14.5102C23.6937 14.3844 24.7908 14.6229 25.2855 15.5708Z" fill="#9EBF26"/>
<path d="M32.4976 27.2312C32.6537 27.9844 32.2377 28.8893 31.6431 29.2045C31.0527 29.5192 31.4483 30.1391 31.3493 30.9065C31.3295 31.0617 31.282 31.1764 31.2132 31.2607C31.0421 31.473 30.7375 31.4935 30.405 31.4593C30.2057 31.439 29.9998 31.3989 29.8051 31.3636C29.5419 31.316 29.3376 31.4031 29.1799 31.5553C29.1106 31.6165 29.0508 31.6891 28.9965 31.7693C28.8596 31.971 28.7572 32.2142 28.6754 32.4212C28.4804 32.9 27.7113 33.0812 26.9596 32.3277C26.8421 32.2111 26.7103 32.0653 26.5611 31.8984C26.0514 31.3352 25.3597 30.5467 24.5155 29.87C24.491 29.244 24.2885 28.8439 24.308 28.4775C24.3119 28.4101 24.3221 28.3439 24.3447 28.2763C24.4181 28.0515 24.5534 27.9816 24.715 27.9399C24.7192 27.9394 24.7231 27.9388 24.725 27.9366C24.8063 27.9177 24.8945 27.9043 24.9855 27.882C25.1084 27.8473 25.2359 27.7975 25.3463 27.6828C25.4201 27.6063 25.4482 27.5317 25.4507 27.4561C25.4593 27.2145 25.1944 26.9625 25.328 26.5877C25.35 26.5306 25.3775 26.4705 25.4195 26.4065C25.6393 26.0688 25.8652 26.0062 26.1235 25.9978C26.2436 25.9906 26.3697 25.995 26.5049 25.9881C26.6045 25.9836 26.7122 25.9739 26.8257 25.9466C26.8663 25.9372 26.9045 25.926 26.9365 25.9135C27.0096 25.881 27.0569 25.8437 27.0912 25.7994C27.1827 25.6664 27.1334 25.4803 27.1365 25.2939C27.1376 25.1726 27.1574 25.0507 27.252 24.9425C27.3519 24.827 27.4826 24.7872 27.627 24.7727C27.9117 24.7444 28.2539 24.8192 28.5438 24.6205C28.5611 24.6077 28.5783 24.5952 28.5953 24.5824L28.5973 24.5802C30.1938 26.3734 32.3657 26.6005 32.4976 27.2312Z" fill="#E9F79A"/>
<g opacity="0.44">
<path d="M27.0389 29.5336C27.2183 29.6755 27.3889 29.8144 27.55 29.9463C27.5522 29.9479 27.5522 29.9479 27.5547 29.9499C27.981 30.3044 28.3341 30.6246 28.5747 30.8692C28.9161 31.2139 29.1003 31.4262 29.1821 31.5556C29.3104 31.7543 29.1877 31.7598 28.9988 31.7696C28.949 31.7718 28.8989 31.774 28.8455 31.781C28.7116 31.7963 28.3852 31.5854 27.9406 31.2501C27.0887 30.6121 25.7874 29.5053 24.4655 28.579C24.4173 28.5456 24.3667 28.5103 24.3102 28.4777C23.2868 27.8222 21.5565 27.2769 19.9007 26.8893C18.1286 26.4747 16.4405 26.2396 15.7956 26.2457C15.3529 26.2488 15.3298 25.9903 15.7536 25.8247C15.871 25.7783 16.0185 25.7402 16.2035 25.7162C17.061 25.6072 20.1085 26.2015 22.3931 26.8779C23.1321 27.0957 23.9326 27.4833 24.7173 27.9399C24.7248 27.9494 24.7381 27.956 24.7515 27.9627L24.7537 27.9644C25.5714 28.4505 26.365 29.0103 27.0389 29.5336Z" fill="#4A5E00"/>
<path d="M13.9536 20.6733C13.398 20.7832 13.9191 21.1727 14.6489 21.4546C15.3785 21.7364 22.8655 25.2628 25.6454 27.6161C28.4256 29.9694 29.7536 31.369 30.3782 31.4394C31.0026 31.5098 30.5299 30.9249 29.6465 30.0688C28.7633 29.2126 24.8769 26.0199 22.5628 24.7909C20.2487 23.5619 15.9903 21.2615 15.2878 21.0355C14.5852 20.8093 14.2433 20.616 13.9536 20.6733Z" fill="#4A5E00"/>
<path d="M21.3144 15.2253C21.3567 15.2617 21.4575 15.4095 21.611 15.6426C22.6005 17.1827 25.685 22.4547 27.2921 24.3893C27.4011 24.5215 27.5138 24.6492 27.626 24.7724C28.8599 26.1347 30.3605 27.18 31.1816 27.7907C31.5789 28.0821 31.8168 28.2729 31.7912 28.3494C31.7088 28.6007 31.4812 28.6029 30.9434 28.2585C30.802 28.168 30.0617 27.6975 29.0853 26.9521C28.5814 26.5637 28.0116 26.1024 27.4279 25.5821C27.3358 25.5 27.2395 25.4037 27.1354 25.2938C26.8305 24.9739 26.4838 24.5398 26.1115 24.0384C25.1463 22.7357 24.0117 20.9614 23.0654 19.4325C23.0178 19.3552 22.9677 19.2759 22.9218 19.196C22.1261 17.9089 21.4822 16.8279 21.2104 16.4072C20.7741 15.7342 20.7669 15.3547 20.9002 15.2058C20.9872 15.1026 21.1378 15.104 21.2638 15.19C21.2819 15.2003 21.3 15.2105 21.3144 15.2253Z" fill="#4A5E00"/>
<path d="M16.8584 14.8097C17.8648 16.9429 24.6165 24.4834 26.1095 25.9851C27.6025 27.4867 29.8732 29.2001 30.4055 29.2964C30.9375 29.3926 30.8596 29.4026 30.3217 28.9177C29.7836 28.4327 28.3346 27.9472 25.9017 25.3707C23.469 22.7942 17.874 15.6761 17.3801 14.7696C16.8865 13.8631 16.6937 14.4608 16.8584 14.8097Z" fill="#4A5E00"/>
</g>
<path opacity="0.39" d="M19.0216 26.2335C20.4459 26.5947 20.705 26.835 19.9009 26.889C19.4432 26.921 18.6388 26.8935 17.5077 26.7953C15.3088 26.6033 15.3383 26.8147 14.8984 27.0493C14.966 26.635 15.2237 26.2672 15.2184 25.9041C15.2184 25.8707 15.2145 25.8417 15.2089 25.8153C15.3826 25.8159 15.5648 25.8195 15.7537 25.8242C16.7103 25.8512 17.8436 25.9324 19.0216 26.2335Z" fill="#4A5E00"/>
<path opacity="0.39" d="M17.1857 22.3448C19.3707 23.4959 21.3106 24.5618 21.4817 24.8971C21.5362 24.9945 21.4341 25.0306 21.1444 24.9889C19.9113 24.8119 13.9356 22.6715 12.1699 22.5468C12.2011 22.4486 12.2347 22.3523 12.2715 22.2661C12.6315 21.4147 12.9991 21.0724 12.6257 20.2552C12.9601 20.4169 13.3413 20.585 13.7553 20.7633C14.7717 21.2024 15.9876 21.7138 17.1857 22.3448Z" fill="#4A5E00"/>
<path opacity="0.39" d="M15.7092 15.0294C16.1641 15.7022 16.8714 16.5138 17.666 17.5814C18.9929 19.3705 22.3448 22.3167 23.4261 23.5315C23.6862 23.8281 23.8156 24.0204 23.7444 24.0693C23.381 24.315 21.0747 22.4519 19.1087 20.637C17.3371 18.9976 13.5064 15.8413 11.6973 16.8343C11.7596 16.6382 11.8506 16.4529 11.973 16.2845C12.6305 15.3883 14.7459 15.3717 15.3138 15.3168C15.4579 15.3024 15.5862 15.1939 15.7092 15.0294Z" fill="#4A5E00"/>
<path opacity="0.39" d="M24.4226 22.472C24.4226 22.472 19.9669 16.5539 18.6035 14.4666C18.3373 14.0578 18.0727 13.7242 17.8164 13.4563C18.3526 13.6252 18.963 13.9811 19.4608 14.483C19.9266 14.9493 20.4368 15.1761 20.9026 15.2056C20.9897 15.1023 21.1402 15.1037 21.2663 15.1897C21.426 15.165 21.5768 15.1182 21.7162 15.0478C21.6561 15.2125 21.6188 15.4095 21.6132 15.6421C21.5951 16.1168 21.7084 16.7336 22.0334 17.4985C22.2774 18.0753 22.5854 18.6457 22.924 19.1955C22.9699 19.2753 23.02 19.3546 23.0676 19.432C24.2487 21.3048 25.7108 22.9278 26.018 23.7013C26.0792 23.8521 26.1084 23.9634 26.1137 24.0379C26.1424 24.4862 25.301 23.7193 24.4226 22.472Z" fill="#4A5E00"/>
<path opacity="0.39" d="M25.2842 15.5708C25.9948 16.9252 26.2322 20.4399 27.7611 23.3692C28.0059 23.8391 28.2897 24.2392 28.5972 24.5801C30.1943 26.3739 32.3665 26.6006 32.4983 27.2317C32.6544 27.9849 32.2385 28.8897 31.6439 29.2049C31.0535 29.5196 31.4491 30.1395 31.3501 30.9069C31.3303 31.0622 31.2827 31.1768 31.214 31.2611C31.0429 31.4734 30.7382 31.494 30.4057 31.4598C30.2065 31.4395 30.0006 31.3994 29.8059 31.3641C29.5426 31.3165 29.3384 31.4036 29.1807 31.5558C29.3089 31.7544 29.1862 31.76 28.9973 31.7697C28.8604 31.9714 28.758 32.2146 28.6762 32.4216C28.4812 32.9005 27.7121 33.0816 26.9603 32.3281C26.8429 32.2116 26.711 32.0658 26.5619 31.8988C26.8654 31.5627 27.6164 31.5825 27.9392 31.2503C28.0468 31.1442 28.1078 31.0026 28.0964 30.8015C28.0819 30.5274 27.8668 30.2397 27.5535 29.9498C27.5513 29.9481 27.5513 29.9481 27.5488 29.9462C27.3969 29.807 27.2246 29.6704 27.0377 29.5335C26.2041 28.9245 25.1203 28.3519 24.7525 27.9646L24.7503 27.9629C24.7428 27.9534 24.7311 27.9445 24.7261 27.9367C24.4971 27.6863 24.6384 27.6952 24.9865 27.8822C25.4779 28.1426 26.3788 28.7556 27.2441 29.4965C28.0908 30.223 28.6309 30.5357 29.0079 30.5413C29.2956 30.5522 29.4881 30.3746 29.647 30.0677C30.014 29.366 27.7781 28.4682 26.2213 27.2459C24.6646 26.0239 26.3432 26.8622 27.2528 27.6412C28.162 28.4161 29.7616 29.2417 30.2313 29.2375L30.2354 29.2369C30.3896 29.2336 30.3996 29.1006 30.2836 28.8816C30.0513 28.4434 29.3178 27.6707 28.2355 26.981C27.4812 26.4996 27.0722 26.1176 26.9372 25.9137C26.8309 25.754 26.8955 25.7036 27.0919 25.7996C27.1835 25.8441 27.3042 25.9226 27.4531 26.0372C28.0574 26.5066 28.4294 26.6196 29.0872 26.9523C29.371 27.0934 29.7057 27.2737 30.1331 27.5402C30.7783 27.9376 31.108 27.9659 31.1837 27.7909C31.2774 27.5781 30.992 27.0695 30.4419 26.5826C30.0148 26.205 29.3251 25.5292 28.5449 24.6207C27.4926 23.4023 26.2814 21.7654 25.3293 19.8695C23.6746 16.5655 23.4459 15.0085 22.8672 14.5107C23.6924 14.3844 24.7895 14.6228 25.2842 15.5708Z" fill="#4A5E00"/>
<path d="M41.5369 25.1196C41.2877 26.4792 40.6913 27.5384 39.9064 28.3177C38.3577 29.8593 36.0778 30.3052 34.3093 29.7857C31.6419 29.004 30.3174 27.773 30.6069 27.5007C30.6069 27.5007 30.7652 27.3464 31.0117 27.1164C31.3546 26.7947 31.8641 26.3229 32.3418 25.8957C32.3445 25.8965 32.3445 25.8965 32.3445 25.8965C32.5707 25.6953 32.7924 25.5023 32.9874 25.3426C33.3056 25.0754 33.5515 24.8957 33.628 24.898C33.9096 24.9111 35.7506 25.5355 36.7602 24.5314C37.7695 23.527 36.515 22.1077 36.804 21.6284C36.878 21.5147 37.0344 21.2595 37.2409 20.9392C37.6775 20.253 38.3269 19.2596 38.7722 18.6698C38.9969 18.3796 39.1684 18.1862 39.2437 18.1793C39.5327 18.152 42.2786 21.0723 41.5369 25.1196Z" fill="#769D00"/>
<path d="M38.7742 18.6698C39.5051 19.4929 40.6758 21.5299 40.8374 23.6039C40.9193 24.675 40.7327 25.7561 40.0721 26.6822C39.8566 26.986 39.5948 27.2694 39.2742 27.533C36.8809 29.5025 33.8081 28.5283 32.0628 27.6878C31.6113 27.4719 31.2529 27.2643 31.0137 27.1167C31.3566 26.7951 31.8661 26.3232 32.3438 25.896C32.3462 25.8966 32.3462 25.8966 32.3462 25.8966C32.5725 25.6955 32.7942 25.5025 32.9892 25.3428C33.3074 25.0756 33.5533 24.8959 33.6298 24.8982C33.9114 24.9112 35.7524 25.5357 36.762 24.5315C37.7713 23.5272 36.5167 22.1079 36.8058 21.6285C36.8798 21.5148 37.0361 21.2596 37.2427 20.9393C37.6793 20.2531 38.3287 19.2598 38.7742 18.6698Z" fill="#F7CA2D"/>
<path d="M37.2432 20.9393C37.401 21.0954 37.5002 21.3444 37.494 21.5888C37.4782 21.997 37.7672 22.2129 37.9235 22.49C38.0775 22.7638 37.8815 23.3817 37.6849 23.7924C37.4826 24.2019 37.6339 24.7327 37.2195 25.0236C36.8048 25.3176 36.6629 25.333 36.4174 25.5749C36.2841 25.7043 36.1197 25.8754 35.8999 25.9771C35.735 26.0533 35.5415 26.092 35.3069 26.049C35.2698 26.0421 35.2302 26.0321 35.1878 26.0211C34.5673 25.8394 34.3585 25.6059 33.917 25.6905C33.5738 25.7547 33.1466 25.7299 32.9895 25.3429C33.3077 25.0757 33.5536 24.896 33.6301 24.8983C33.9117 24.9114 35.7528 25.5358 36.7623 24.5317C37.7717 23.5273 36.5171 22.108 36.8061 21.6287C36.8803 21.5148 37.0367 21.2596 37.2432 20.9393Z" fill="#BCC917"/>
<path opacity="0.25" d="M32.2445 28.5084C31.681 27.8821 32.1086 27.656 32.5012 27.1074C32.8938 26.5588 33.8473 27.9404 36.2623 27.5554C38.6771 27.1705 40.071 25.909 40.0702 26.5984C40.0693 27.2878 40.3172 27.8159 38.3643 28.5957C36.4113 29.3756 33.7215 29.2619 33.1287 28.9808C32.5359 28.6998 32.3652 28.6426 32.2445 28.5084Z" fill="white"/>
<path opacity="0.46" d="M41.534 25.1199C41.2848 26.4795 40.6884 27.5387 39.9036 28.318C40.1009 28.0169 40.3158 27.6836 40.4794 27.3882C40.9125 26.6066 41.1018 24.9935 40.8327 23.604C40.8315 23.5948 40.8295 23.5887 40.8282 23.5795C40.5547 22.1832 39.9294 21.9948 39.1694 22.3317C38.4122 22.6692 38.1904 23.3801 37.9508 24.3806C37.742 25.2624 37.2334 25.7608 35.8949 25.9771C35.7123 26.0058 35.5157 26.0289 35.3019 26.049C33.5157 26.2068 33.1019 25.5274 32.3418 25.897C32.568 25.6958 32.7897 25.5028 32.9847 25.3431C33.3029 25.0759 33.5488 24.8962 33.6253 24.8985C33.9069 24.9116 35.748 25.536 36.7575 24.5319C37.7669 23.5275 36.5123 22.1082 36.8013 21.6289C36.8754 21.5152 37.0317 21.26 37.2383 20.9397C37.6748 20.2534 38.3242 19.2601 38.7696 18.6703C38.9942 18.3801 39.1658 18.1867 39.241 18.1798C39.5298 18.1524 42.2757 21.0726 41.534 25.1199Z" fill="#154405"/>
<path d="M39.53 21.177C39.5966 22.5576 39.2566 23.7248 38.6697 24.6622C37.5122 26.5155 35.3937 27.4685 33.5531 27.3651C30.778 27.2105 29.208 26.3133 29.428 25.9822C29.428 25.9822 29.5472 25.7957 29.7348 25.516C29.9957 25.1246 30.3845 24.5494 30.7523 24.0247C30.7553 24.0247 30.7553 24.0247 30.7553 24.0247C30.9298 23.7774 31.1019 23.5389 31.2554 23.3391C31.5045 23.0067 31.703 22.7756 31.7781 22.7604C32.0553 22.7093 33.9901 22.8985 34.7447 21.6907C35.4993 20.4832 33.9546 19.3865 34.1271 18.8539C34.1733 18.7264 34.2675 18.4422 34.3958 18.0835C34.6647 17.3158 35.0711 16.2007 35.3706 15.5252C35.5236 15.1915 35.6466 14.9641 35.7181 14.9403C35.9938 14.8481 39.3318 17.0672 39.53 21.177Z" fill="#769D00"/>
<path d="M35.3701 15.525C36.269 16.1606 37.8726 17.8777 38.5013 19.8605C38.8245 20.885 38.8891 21.9802 38.4561 23.0324C38.3154 23.3771 38.1249 23.7128 37.8726 24.0424C35.9899 26.5048 32.7761 26.255 30.8854 25.8332C30.3966 25.7257 30.0003 25.605 29.7339 25.5159C29.9948 25.1245 30.3836 24.5493 30.7515 24.0246C30.7544 24.0245 30.7544 24.0246 30.7544 24.0246C30.9289 23.7773 31.101 23.5388 31.2545 23.339C31.5036 23.0066 31.7021 22.7754 31.7772 22.7603C32.0544 22.7092 33.9892 22.8984 34.7438 21.6906C35.4984 20.4831 33.9537 19.3864 34.1262 18.8538C34.1724 18.7262 34.2666 18.4421 34.3949 18.0833C34.6642 17.3156 35.0706 16.2006 35.3701 15.525Z" fill="#F7CA2D"/>
<path d="M34.397 18.0832C34.586 18.1994 34.7394 18.4192 34.7889 18.6585C34.8665 19.0597 35.197 19.204 35.4121 19.4383C35.6241 19.6699 35.5739 20.316 35.4759 20.7608C35.3722 21.2058 35.6402 21.6882 35.3029 22.0657C34.9659 22.4462 34.8313 22.4934 34.6472 22.7849C34.547 22.9411 34.4257 23.1453 34.2348 23.2943C34.0917 23.4061 33.912 23.4875 33.6738 23.4992C33.636 23.501 33.5951 23.5002 33.5513 23.4993C32.9056 23.4634 32.6495 23.2835 32.2386 23.4665C31.9189 23.6072 31.4973 23.68 31.2564 23.339C31.5055 23.0067 31.704 22.7755 31.7791 22.7603C32.0563 22.7092 33.9911 22.8985 34.7457 21.6906C35.5003 20.4831 33.9557 19.3865 34.1281 18.8538C34.1745 18.7261 34.2687 18.4419 34.397 18.0832Z" fill="#BCC917"/>
<path opacity="0.25" d="M31.2509 26.5911C30.5595 26.1095 30.9246 25.792 31.1822 25.1685C31.4398 24.5451 32.6825 25.6733 34.9466 24.7494C37.2105 23.8253 38.281 22.2798 38.4369 22.9512C38.5928 23.6226 38.9543 24.0805 37.23 25.2841C35.5058 26.4876 32.8603 26.9887 32.2192 26.8499C31.5782 26.711 31.399 26.6942 31.2509 26.5911Z" fill="white"/>
<path opacity="0.46" d="M39.5289 21.1766C39.5956 22.5572 39.2555 23.7244 38.6687 24.6618C38.7923 24.3237 38.9257 23.9502 39.0178 23.6252C39.2618 22.7656 39.0789 21.1517 38.5011 19.8598C38.4978 19.8514 38.4946 19.8457 38.4912 19.8368C37.9072 18.5394 37.2555 18.4981 36.5921 18.9991C35.9316 19.5002 35.8772 20.2428 35.8715 21.2714C35.8686 22.1775 35.4867 22.7786 34.2326 23.2937C34.0612 23.363 33.875 23.4306 33.6715 23.4986C31.9679 24.0587 31.4105 23.4912 30.7545 24.024C30.9289 23.7768 31.101 23.5382 31.2546 23.3385C31.5037 23.0061 31.7022 22.7749 31.7772 22.7598C32.0545 22.7086 33.9893 22.8979 34.7438 21.69C35.4984 20.4826 33.9538 19.3859 34.1263 18.8533C34.1725 18.7257 34.2666 18.4416 34.395 18.0828C34.6638 17.3152 35.0703 16.2001 35.3698 15.5246C35.5227 15.1909 35.6457 14.9635 35.7172 14.9397C35.9928 14.8477 39.3308 17.0668 39.5289 21.1766Z" fill="#154405"/>
<path d="M36.6835 17.7935C37.0624 19.1227 36.997 20.3367 36.6385 21.3829C35.933 23.451 34.0866 24.861 32.2708 25.1789C29.5333 25.6597 27.8004 25.1432 27.9394 24.7704C27.9394 24.7704 28.013 24.5617 28.132 24.2464C28.2969 23.806 28.5449 23.1575 28.7837 22.5628C28.7866 22.562 28.7866 22.562 28.7866 22.562C28.9004 22.2816 29.0137 22.0101 29.1177 21.7808C29.2847 21.4004 29.4254 21.1302 29.4949 21.0984C29.7532 20.9855 31.6803 20.7296 32.1404 19.3822C32.6005 18.0347 30.8468 17.3181 30.8936 16.76C30.9095 16.6253 30.9366 16.3272 30.9801 15.9486C31.0672 15.1399 31.2095 13.9616 31.3476 13.2355C31.4206 12.876 31.4888 12.6264 31.5529 12.5869C31.8001 12.4346 35.5555 13.8363 36.6835 17.7935Z" fill="#769D00"/>
<path d="M31.3465 13.2353C32.3664 13.6495 34.3186 14.957 35.3818 16.7449C35.9297 17.6689 36.2416 18.7208 36.0595 19.8439C36.0009 20.2115 35.8915 20.5815 35.721 20.96C34.4477 23.7861 31.2613 24.2737 29.3243 24.2933C28.8238 24.2998 28.4106 24.2724 28.1309 24.2462C28.2958 23.8058 28.5438 23.1573 28.7826 22.5626C28.7855 22.5618 28.7855 22.5618 28.7855 22.5618C28.8993 22.2814 29.0126 22.0099 29.1166 21.7806C29.2836 21.4002 29.4243 21.1299 29.4938 21.0982C29.7521 20.9853 31.6792 20.7294 32.1393 19.3819C32.5994 18.0345 30.8457 17.3179 30.8925 16.7598C30.9084 16.6251 30.9355 16.327 30.979 15.9484C31.0663 15.1399 31.2086 13.9616 31.3465 13.2353Z" fill="#F7CA2D"/>
<path d="M30.9806 15.9483C31.1913 16.0184 31.3905 16.1976 31.4931 16.4194C31.6601 16.7924 32.0146 16.8577 32.2775 17.037C32.5368 17.2141 32.6349 17.8549 32.6404 18.3103C32.6405 18.7673 33.0113 19.1758 32.7688 19.6204C32.5272 20.0676 32.4067 20.1443 32.2938 20.47C32.2318 20.645 32.16 20.8712 32.0081 21.0598C31.8942 21.2012 31.7378 21.3215 31.5083 21.3868C31.4719 21.3973 31.4319 21.4056 31.3891 21.4145C30.7523 21.5263 30.4616 21.4096 30.1035 21.6812C29.8242 21.8909 29.4303 22.0577 29.1182 21.7805C29.2852 21.4001 29.4259 21.1298 29.4955 21.0981C29.7538 20.9852 31.6808 20.7293 32.1409 19.3818C32.601 18.0344 30.8473 17.3178 30.8941 16.7597C30.9101 16.625 30.9371 16.3269 30.9806 15.9483Z" fill="#BCC917"/>
<path opacity="0.25" d="M29.8505 24.9488C29.0677 24.637 29.3511 24.2449 29.4599 23.5792C29.5689 22.9133 31.0357 23.7295 33.0301 22.3146C35.0244 20.8997 35.7154 19.1514 36.0198 19.7697C36.3244 20.3882 36.7806 20.7519 35.3753 22.3159C33.97 23.8804 31.5079 24.9699 30.8521 24.9805C30.1966 24.9911 30.0181 25.0155 29.8505 24.9488Z" fill="white"/>
<path opacity="0.46" d="M36.6798 17.7934C37.0586 19.1226 36.9932 20.3366 36.6347 21.3828C36.6782 21.0255 36.7229 20.6314 36.739 20.2942C36.7811 19.4015 36.236 17.8716 35.3794 16.7451C35.3742 16.7376 35.3699 16.7328 35.3646 16.7253C34.5008 15.5948 33.8566 15.7028 33.3246 16.3415C32.7953 16.9796 32.9113 17.7152 33.1397 18.7182C33.3428 19.6012 33.1078 20.2734 32.0039 21.0604C31.8528 21.1669 31.6869 21.2749 31.5041 21.3874C29.9725 22.3201 29.3005 21.8944 28.7828 22.5625C28.8965 22.2821 29.0099 22.0106 29.1138 21.7813C29.2808 21.4009 29.4215 21.1306 29.4911 21.0989C29.7494 20.986 31.6764 20.7301 32.1365 19.3826C32.5966 18.0352 30.8429 17.3186 30.8897 16.7605C30.9057 16.6258 30.9327 16.3277 30.9762 15.9491C31.0633 15.1404 31.2056 13.9621 31.3437 13.236C31.4167 12.8764 31.4849 12.6269 31.549 12.5874C31.7964 12.4345 35.5518 13.8362 36.6798 17.7934Z" fill="#154405"/>
<path d="M33.1357 15.1471C33.8071 16.3553 34.0192 17.5523 33.9085 18.6526C33.6918 20.827 32.2147 22.6198 30.5188 23.3424C27.9623 24.4333 26.1575 24.3244 26.2079 23.9301C26.2079 23.9301 26.2323 23.7103 26.2763 23.376C26.3367 22.9096 26.4305 22.2218 26.528 21.5883C26.5307 21.5869 26.5307 21.5869 26.5307 21.5869C26.5776 21.288 26.6262 20.9978 26.6754 20.7509C26.7515 20.3424 26.8271 20.0473 26.8877 20.0004C27.1135 19.8316 28.9321 19.1441 29.0734 17.7273C29.215 16.3104 27.3444 16.0115 27.2629 15.4577C27.2481 15.3229 27.2062 15.0264 27.1626 14.6481C27.0634 13.8409 26.934 12.6611 26.9031 11.9225C26.8922 11.5556 26.902 11.2973 26.9556 11.244C27.1613 11.0398 31.1369 11.5505 33.1357 15.1471Z" fill="#769D00"/>
<path d="M26.904 11.9224C27.9915 12.0937 30.1898 12.923 31.632 14.4219C32.3757 15.1972 32.9189 16.1503 32.9968 17.2854C33.0234 17.6567 33.0011 18.0419 32.9212 18.4493C32.3243 21.4908 29.3323 22.6907 27.4506 23.1503C26.9648 23.2706 26.5562 23.3377 26.2776 23.3759C26.338 22.9095 26.4318 22.2216 26.5293 21.5882C26.532 21.5868 26.532 21.5868 26.532 21.5868C26.5789 21.2878 26.6275 20.9976 26.6767 20.7508C26.7528 20.3422 26.8284 20.0472 26.889 20.0003C27.1148 19.8315 28.9335 19.144 29.0747 17.7272C29.2163 16.3103 27.3457 16.0114 27.2642 15.4576C27.2494 15.3227 27.2075 15.0263 27.1639 14.6479C27.0645 13.8406 26.9351 12.6608 26.904 11.9224Z" fill="#F7CA2D"/>
<path d="M27.1643 14.6481C27.3855 14.6684 27.6202 14.7978 27.7707 14.9903C28.0181 15.3156 28.3782 15.2985 28.6749 15.4134C28.9677 15.5269 29.209 16.1288 29.3179 16.5708C29.4221 17.0157 29.876 17.3294 29.741 17.8172C29.6074 18.3077 29.5075 18.4096 29.4717 18.7525C29.4512 18.937 29.4326 19.1736 29.3275 19.3919C29.2487 19.5556 29.1236 19.7082 28.915 19.8241C28.882 19.8427 28.845 19.8599 28.8052 19.8784C28.2106 20.1323 27.9011 20.0847 27.6141 20.4306C27.3898 20.6983 27.0441 20.9505 26.6772 20.7513C26.7533 20.3428 26.8289 20.0477 26.8895 20.0008C27.1152 19.8321 28.9339 19.1445 29.0751 17.7277C29.2167 16.3108 27.3462 16.0119 27.2647 15.4581C27.2496 15.3231 27.208 15.0264 27.1643 14.6481Z" fill="#BCC917"/>
<path opacity="0.25" d="M28.1115 23.6691C27.2784 23.5434 27.465 23.0971 27.4197 22.424C27.3743 21.7509 28.9885 22.2119 30.6087 20.3805C32.2292 18.549 32.5041 16.6892 32.9413 17.222C33.3785 17.7549 33.9054 18.0052 32.8927 19.8482C31.8801 21.6913 29.7306 23.3124 29.0944 23.4719C28.4581 23.6314 28.2897 23.6959 28.1115 23.6691Z" fill="white"/>
<path opacity="0.46" d="M33.1378 15.1472C33.8093 16.3554 34.0214 17.5525 33.9107 18.6527C33.8716 18.295 33.8257 17.901 33.7644 17.5688C33.6023 16.6901 32.7235 15.324 31.6328 14.4221C31.6261 14.4159 31.6207 14.4123 31.614 14.4061C30.5154 13.5018 29.9129 13.7532 29.5403 14.4965C29.1702 15.2382 29.4503 15.9282 29.9007 16.8528C30.2998 17.6664 30.2237 18.3745 29.3273 19.3918C29.2043 19.5301 29.0673 19.6727 28.9148 19.8241C27.6357 21.0806 26.8845 20.819 26.5323 21.5873C26.5792 21.2883 26.6277 20.9981 26.677 20.7512C26.7531 20.3427 26.8287 20.0477 26.8893 20.0008C27.115 19.832 28.9337 19.1445 29.0749 17.7276C29.2165 16.3108 27.346 16.0119 27.2645 15.4581C27.2496 15.3232 27.2078 15.0268 27.1641 14.6484C27.065 13.8412 26.9355 12.6615 26.9047 11.9228C26.8938 11.556 26.9036 11.2977 26.9572 11.2444C27.1635 11.0399 31.139 11.5506 33.1378 15.1472Z" fill="#154405"/>
<path d="M35.8952 30.3109C34.613 30.6854 31.5638 30.2828 28.7929 31.0867C28.3483 31.2152 27.9568 31.3891 27.6123 31.5936C25.8016 32.6515 25.2328 34.4717 24.6702 34.4756C23.9986 34.4792 23.296 33.9672 23.1285 33.4038C22.961 32.844 22.3623 33.0761 21.7223 32.8587C21.593 32.8153 21.5028 32.7544 21.4427 32.6812C21.2905 32.4982 21.3253 32.2338 21.4118 31.955C21.4633 31.7881 21.5334 31.6189 21.5974 31.4581C21.6834 31.2408 21.6441 31.0513 21.5412 30.8897C21.5009 30.8198 21.4488 30.7561 21.3896 30.6957C21.2404 30.5438 21.0501 30.4142 20.8868 30.3084C20.5106 30.0589 20.4881 29.3697 21.2627 28.8558C21.3826 28.7753 21.5304 28.6877 21.6987 28.5886C22.2688 28.2495 23.0629 27.7935 23.7877 27.1875C24.2173 26.831 24.6235 26.4204 24.9413 25.951C24.9413 25.951 25.7832 24.7379 25.8135 23.2938C25.8458 21.8517 25.7765 20.406 26.7737 19.6684C27.2311 19.3284 27.5706 19.3287 27.8602 19.4397C28.2033 19.5691 28.4735 19.8529 28.7854 19.911C28.814 19.9166 28.8393 19.9185 28.863 19.9182C29.3366 19.9207 29.0797 18.9227 29.5016 18.034C29.9058 17.184 31.339 17.4244 32.1854 17.8793C32.2642 17.923 32.3407 17.9684 32.4083 18.0148C33.0749 18.4697 33.3045 18.8434 34.0685 18.6648C34.2068 18.6328 34.3612 18.5802 34.5404 18.5092C35.4889 18.1295 36.4703 18.0802 37.155 18.4586L37.1567 18.4606C37.3139 18.5479 37.4569 18.6575 37.5799 18.7914C38.2337 19.5087 37.8832 21.3222 37.8322 21.8178C37.8197 21.9438 37.8907 22.0723 38.01 22.2059C38.3587 22.5915 39.0993 22.9992 39.2006 23.3926C39.2588 23.6235 39.1784 23.9446 38.993 24.2818C38.756 24.7117 38.3461 25.1727 37.8306 25.5122C37.3509 25.8305 37.069 26.2281 36.9633 26.6218C36.9341 26.7286 36.9177 26.831 36.9141 26.9359C36.9077 27.077 36.9218 27.2142 36.958 27.3455C36.985 27.4509 37.0273 27.55 37.0785 27.6443C37.1834 27.8313 37.2343 28.1126 37.2198 28.4237C37.1851 29.1529 36.7916 30.0508 35.8952 30.3109Z" fill="#9EBF26"/>
<path d="M24.6703 34.4758C23.9986 34.4794 23.296 33.9674 23.1285 33.404C22.961 32.8442 22.3623 33.0762 21.7223 32.8589C21.593 32.8155 21.5028 32.7546 21.4427 32.6814C21.2905 32.4983 21.3253 32.234 21.4118 31.9552C21.4633 31.7883 21.5334 31.6191 21.5974 31.4583C21.6834 31.241 21.6441 31.0515 21.5412 30.8898C21.5009 30.82 21.4488 30.7563 21.3896 30.6959C21.2404 30.544 21.0501 30.4143 20.8868 30.3086C20.5106 30.059 20.4881 29.3698 21.2627 28.8559C21.3826 28.7755 21.5304 28.6879 21.6987 28.5888C22.2688 28.2497 23.0629 27.7936 23.7877 27.1876C24.3277 27.2744 24.7053 27.1704 25.0153 27.2502C25.0723 27.2652 25.1271 27.2853 25.1811 27.3164C25.3608 27.418 25.3973 27.5457 25.4051 27.6915C25.4048 27.6951 25.4045 27.6987 25.4062 27.7007C25.4084 27.7733 25.4048 27.8512 25.4081 27.933C25.4168 28.0443 25.4373 28.162 25.5166 28.2764C25.5695 28.3526 25.6285 28.3896 25.6928 28.4049C25.8981 28.4539 26.1594 28.2708 26.4574 28.4494C26.5024 28.4781 26.5492 28.512 26.5968 28.5591C26.848 28.8053 26.8628 29.0095 26.8255 29.2318C26.811 29.3362 26.7851 29.443 26.7679 29.5599C26.7545 29.6461 26.7442 29.7396 26.7481 29.8414C26.7492 29.8779 26.7523 29.9124 26.7573 29.9419C26.7726 30.0101 26.7965 30.0571 26.8283 30.0938C26.9265 30.1951 27.094 30.1851 27.2531 30.2198C27.3569 30.2415 27.4576 30.2797 27.5341 30.3793C27.6157 30.4847 27.6274 30.6035 27.6148 30.7296C27.5901 30.9783 27.4671 31.2582 27.587 31.5406C27.5948 31.5576 27.6029 31.5743 27.6107 31.5913L27.6123 31.5932C25.8016 32.6516 25.2328 34.4716 24.6703 34.4758Z" fill="#E9F79A"/>
<g opacity="0.44">
<path d="M23.6432 29.4042C23.4907 29.5333 23.3424 29.6552 23.2019 29.7707C23.1999 29.7723 23.1999 29.7723 23.198 29.774C22.821 30.0778 22.4862 30.3246 22.235 30.4885C21.8811 30.7214 21.6677 30.8424 21.5428 30.89C21.3505 30.9654 21.3672 30.8597 21.3911 30.6961C21.3978 30.6529 21.4045 30.6098 21.4078 30.5628C21.4178 30.4457 21.6543 30.2028 22.0183 29.8797C22.7113 29.2606 23.883 28.3375 24.9038 27.3656C24.9409 27.33 24.9798 27.293 25.0171 27.2501C25.7547 26.4872 26.5199 25.0999 27.1373 23.7496C27.7975 22.3045 28.29 20.8999 28.3957 20.3468C28.4694 19.9673 28.6945 19.992 28.7633 20.3835C28.783 20.492 28.79 20.625 28.7786 20.7875C28.724 21.5404 27.6898 24.0465 26.7171 25.8854C26.4033 26.4802 25.9333 27.0988 25.4072 27.6917C25.3977 27.6964 25.3896 27.7067 25.3819 27.717L25.3799 27.7187C24.8232 28.3347 24.2071 28.9176 23.6432 29.4042Z" fill="#4A5E00"/>
<path d="M33.4842 19.7326C33.4858 19.2379 33.0624 19.6171 32.6954 20.193C32.3284 20.769 28.0191 26.5694 25.5255 28.5435C23.0319 30.5176 21.6051 31.4129 21.4371 31.9355C21.269 32.4577 21.8514 32.1539 22.7365 31.5454C23.6215 30.9372 27.0246 28.1609 28.4756 26.3922C29.9267 24.6234 32.63 21.3747 32.9444 20.8124C33.2588 20.2498 33.4833 19.9905 33.4842 19.7326Z" fill="#4A5E00"/>
<path d="M36.8762 26.974C36.8378 27.0041 36.6936 27.0647 36.4677 27.1557C34.9789 27.7372 29.9344 29.4684 28.0015 30.5104C27.8696 30.5811 27.7408 30.6554 27.6159 30.7302C26.2372 31.5516 25.0837 32.6556 24.4195 33.2533C24.1015 33.5432 23.8972 33.7137 23.8363 33.6787C23.6357 33.5649 23.673 33.3696 24.0603 32.9686C24.1621 32.8632 24.6925 32.3106 25.4988 31.6033C25.9181 31.2391 26.4114 30.8309 26.957 30.4208C27.0433 30.356 27.1421 30.2903 27.2542 30.2202C27.5808 30.0146 28.0118 29.7926 28.5054 29.5605C29.787 28.959 31.5012 28.2937 32.9731 27.7472C33.0476 27.7197 33.1241 27.6908 33.2001 27.6652C34.4391 27.2058 35.4752 26.8413 35.882 26.681C36.5334 26.4237 36.8595 26.4829 36.9641 26.6226C37.0375 26.715 37.0103 26.8435 36.9148 26.9367C36.9031 26.9504 36.8915 26.9643 36.8762 26.974Z" fill="#4A5E00"/>
<path d="M38.0028 23.2316C36.0034 23.7252 28.3848 28.2045 26.8422 29.2234C25.2994 30.2426 23.4413 31.8909 23.2674 32.3297C23.0933 32.7684 23.0983 32.7 23.6061 32.3233C24.1138 31.9462 24.7794 30.7896 27.4043 29.1516C30.0291 27.5137 37.0866 23.9517 37.9475 23.6854C38.8081 23.4189 38.3298 23.1506 38.0028 23.2316Z" fill="#4A5E00"/>
</g>
<path opacity="0.39" d="M27.8486 23.1106C27.2938 24.2675 27.0434 24.4478 27.1361 23.7503C27.1875 23.353 27.3497 22.6693 27.6288 21.718C28.1722 19.8689 27.9861 19.8578 27.8611 19.4407C28.2042 19.5701 28.4744 19.8539 28.7863 19.912C28.8149 19.9176 28.8403 19.9195 28.8639 19.9192C28.8336 20.0678 28.7991 20.2231 28.7623 20.3839C28.5743 21.1983 28.3094 22.154 27.8486 23.1106Z" fill="#4A5E00"/>
<path opacity="0.39" d="M31.4954 22.2085C30.1334 23.8804 28.8867 25.357 28.57 25.4455C28.4771 25.4753 28.4637 25.3818 28.5497 25.1411C28.9139 24.1161 31.7761 19.3702 32.1874 17.8802C32.2661 17.9239 32.3426 17.9693 32.4102 18.0158C33.0769 18.4707 33.3065 18.8443 34.0705 18.6657C33.8746 18.9242 33.6648 19.2216 33.4408 19.5452C32.8894 20.3393 32.2419 21.292 31.4954 22.2085Z" fill="#4A5E00"/>
<path opacity="0.39" d="M38.01 22.2064C37.3556 22.4799 36.5392 22.9451 35.4881 23.4412C33.7279 24.2687 30.6281 26.6298 29.4019 27.3457C29.1031 27.5171 28.9164 27.5947 28.8866 27.5255C28.7392 27.1721 30.7313 25.5191 32.6239 24.1493C34.3325 22.9156 37.6945 20.1808 37.1567 18.4611C37.3139 18.5484 37.4569 18.6581 37.5798 18.7919C38.2337 19.5092 37.8831 21.3227 37.8322 21.8183C37.8197 21.9446 37.8906 22.0728 38.01 22.2064Z" fill="#4A5E00"/>
<path opacity="0.39" d="M30.1352 28.3826C30.1352 28.3826 35.969 25.5891 37.9909 24.7819C38.3866 24.6245 38.7179 24.4556 38.9915 24.2822C38.7544 24.7121 38.3446 25.1731 37.829 25.5126C37.3493 25.8309 37.0674 26.2285 36.9617 26.6222C37.0352 26.7146 37.0079 26.8431 36.9125 26.9363C36.9061 27.0774 36.9203 27.2146 36.9564 27.3459C36.8259 27.266 36.6637 27.2001 36.4653 27.1553C36.0622 27.0582 35.5146 27.0487 34.804 27.1948C34.2684 27.3042 33.7269 27.4694 33.1977 27.6648C33.1215 27.6904 33.045 27.7193 32.9707 27.7468C31.1641 28.4349 29.5228 29.4065 28.8077 29.5362C28.668 29.5626 28.5679 29.5684 28.503 29.5601C28.1146 29.5075 28.9162 28.9196 30.1352 28.3826Z" fill="#4A5E00"/>
<path opacity="0.39" d="M35.8952 30.3108C34.613 30.6853 31.5638 30.2827 28.7929 31.0865C28.3483 31.2151 27.9568 31.389 27.6123 31.5935C25.8016 32.6513 25.2328 34.4715 24.6703 34.4754C23.9986 34.4791 23.296 33.9671 23.1285 33.4037C22.961 32.8439 22.3623 33.0759 21.7223 32.8586C21.593 32.8152 21.5028 32.7543 21.4427 32.6811C21.2905 32.498 21.3253 32.2337 21.4118 31.9549C21.4633 31.7879 21.5334 31.6188 21.5974 31.458C21.6834 31.2407 21.6441 31.0512 21.5412 30.8895C21.3489 30.9649 21.3656 30.8592 21.3896 30.6956C21.2404 30.5437 21.0501 30.414 20.8868 30.3083C20.5106 30.0587 20.4881 29.3695 21.2627 28.8556C21.3826 28.7752 21.5304 28.6876 21.6987 28.5885C21.9341 28.9062 21.7877 29.5456 22.0164 29.8792C22.0885 29.9894 22.1992 30.0662 22.3734 30.0913C22.6105 30.126 22.894 29.9916 23.1959 29.7732C23.1978 29.7716 23.1978 29.7716 23.1998 29.7699C23.345 29.6639 23.4916 29.5401 23.6411 29.4035C24.3063 28.795 24.983 27.9661 25.3778 27.7179L25.3798 27.7162C25.3892 27.7115 25.3987 27.7032 25.4062 27.7001C25.6599 27.5473 25.6282 27.6667 25.4081 27.9324C25.1004 28.3083 24.4207 28.9736 23.6372 29.5865C22.8692 30.1859 22.5086 30.5943 22.4388 30.916C22.3798 31.1605 22.4986 31.3556 22.734 31.5445C23.2716 31.9797 24.4254 30.2206 25.7401 29.0988C27.0545 27.9769 26.0475 29.2691 25.2239 29.9135C24.404 30.5581 23.4215 31.7849 23.3442 32.1878L23.3439 32.1914C23.32 32.3241 23.4321 32.3555 23.6397 32.2938C24.0548 32.1705 24.8425 31.6758 25.6196 30.8684C26.1616 30.3058 26.5592 30.0214 26.757 29.941C26.912 29.8776 26.944 29.9413 26.828 30.0929C26.774 30.1636 26.6861 30.2535 26.5625 30.3611C26.0564 30.7974 25.8959 31.0965 25.4974 31.6021C25.3277 31.8208 25.1157 32.0762 24.8138 32.3962C24.3625 32.8797 24.2813 33.1571 24.4182 33.252C24.5843 33.3689 25.0687 33.2122 25.5804 32.8255C25.9771 32.525 26.6744 32.0512 27.5867 31.54C28.811 30.8492 30.4208 30.0949 32.208 29.6068C35.3214 28.7602 36.6934 28.8328 37.2196 28.4232C37.1851 29.1528 36.7916 30.0506 35.8952 30.3108Z" fill="#4A5E00"/>
<path d="M39.13 32.6775C39.2836 33.412 39.3537 33.946 39.0299 33.7356C38.3821 33.3216 36.2556 32.6274 34.5998 32.9176C34.5998 32.9176 34.2525 32.4468 33.9621 31.8762C33.8385 31.6358 33.7217 31.3753 33.6516 31.1283C33.5614 30.8244 33.5314 30.5373 33.6182 30.3139C33.6616 30.2003 33.7183 30.0768 33.7851 29.9433C33.9921 29.5359 34.2793 29.0585 34.523 28.6748C34.7868 28.2674 34.9938 27.9703 34.9938 27.9703C34.9938 27.9703 35.7216 28.1873 36.8566 28.1873C38.3354 28.1873 38.7527 27.5997 39.2602 27.9703C39.5474 28.1806 39.3137 28.5512 39.0666 29.0518C38.8796 29.4324 38.686 29.8865 38.706 30.4071C38.706 30.4371 38.7093 30.4672 38.7127 30.5006C38.7394 30.9179 38.8596 31.4688 38.9764 31.9994C39.0301 32.2334 39.0833 32.4638 39.13 32.6775Z" fill="#C45910"/>
<path opacity="0.35" d="M34.5254 28.6748C34.7892 28.2674 34.9962 27.9703 34.9962 27.9703C34.9962 27.9703 35.724 28.1873 36.859 28.1873C38.3378 28.1873 38.7551 27.5997 39.2626 27.9703C39.5498 28.1806 39.3161 28.5512 39.069 29.0518C37.4029 29.2321 35.6637 28.9419 34.5254 28.6748Z" fill="#60150D"/>
<path opacity="0.35" d="M39.1309 32.6778C39.2844 33.4123 39.3546 33.9463 39.0307 33.7359C38.383 33.3219 36.2564 32.6277 34.6006 32.9179C34.6006 32.9179 34.2534 32.4471 33.9629 31.8765C35.0778 31.9399 37.2144 32.0968 38.2461 32.3973C38.5569 32.4875 38.8537 32.5843 39.1309 32.6778Z" fill="#60150D"/>
<path opacity="0.35" d="M38.9788 31.9996C36.919 31.2183 34.8028 31.1148 33.6542 31.1281C33.1133 31.1315 32.7894 31.1649 32.7894 31.1649L32.3253 30.8911C32.3253 30.8911 32.095 30.4069 33.3434 30.0363C33.4736 29.9963 33.6205 29.9662 33.7875 29.9428C34.9892 29.7792 37.0523 30.013 38.7148 30.5004C38.742 30.9181 38.8622 31.4687 38.9788 31.9996Z" fill="#60150D"/>
<path d="M12.998 33.0022C13.0334 33.0353 17.8908 37.0216 19.279 37.3917C20.6668 37.7617 21.2684 37.0216 21.2684 37.0216C21.2684 37.0216 22.7486 37.8544 24.1364 37.9006C25.5243 37.9468 25.6737 37.1605 25.6737 37.1605C25.6737 37.1605 27.606 37.3917 28.8088 37.2067C30.0117 37.0216 29.9293 36.0038 29.9293 36.0038C29.9293 36.0038 32.3603 35.68 33.5684 35.2173C34.7765 34.7546 34.4988 33.4594 34.4988 33.4594C34.4988 33.4594 35.6014 33.8294 36.0678 33.2282C36.5341 32.6269 36.3043 31.5612 35.1009 31.1456C33.8972 30.7299 17.0584 30.438 15.9479 30.8153C14.8377 31.1929 12.998 33.0022 12.998 33.0022Z" fill="#9B450A"/>
<path d="M35.9606 31.1749C35.6167 32.2597 34.3782 33.3916 31.6774 34.5699C31.5605 34.62 31.4437 34.6701 31.3268 34.7202C27.4944 36.3393 23.3715 37.2574 18.0304 35.9119C14.7389 35.0805 12.1249 32.3799 10.5192 30.2233C10.5058 30.2066 10.4958 30.1933 10.4824 30.1799C10.3021 29.9362 10.1352 29.6991 9.97828 29.4721C9.77461 29.1783 9.59765 28.9045 9.44072 28.6541C9.42403 28.624 9.40734 28.5973 9.39398 28.5773C9 27.9362 8.77296 27.4824 8.72955 27.3522C8.54591 26.798 8.82972 26.6577 9.17362 26.611C9.51752 26.5676 9.98162 26.1035 9.98162 26.1035C9.56426 25.9666 9.38396 25.7262 9.29047 25.4992C9.22704 25.3456 9.20367 25.1953 9.17362 25.0851C9.10016 24.808 11.0431 23.8834 11.9713 23.7432C12.2351 23.7031 12.5055 23.6798 12.7626 23.6597H12.7659C13.4003 23.613 13.9476 23.5963 14.1446 23.4661C14.4217 23.2824 14.4217 23.0487 14.6988 22.9586C14.976 22.8651 20.1103 21.7535 23.305 21.7068C23.305 21.7068 24.1831 22.3111 24.6903 22.2644C25.2012 22.2176 25.4783 22.1241 25.4783 22.1241C25.4783 22.1241 25.505 22.1308 25.5517 22.1475C26.0526 22.3145 29.0369 23.3292 31.4006 24.8083C31.7879 25.052 32.1518 25.2958 32.4887 25.5428C34.3983 26.9482 35.4998 28.417 35.9339 29.7125C36.0941 30.1902 36.1208 30.6777 35.9606 31.1749Z" fill="#DB8A33"/>
<path opacity="0.65" d="M35.9603 31.1747C35.6164 32.2596 34.378 33.3914 31.6771 34.5698C30.649 35.0172 29.604 35.4178 28.5225 35.7381C25.4613 36.6496 22.0997 36.9365 18.0302 35.9117C15.5163 35.2773 13.4 33.5548 11.8241 31.8155C9.94461 29.7457 8.82972 27.6525 8.72955 27.3523C8.54592 26.7981 8.82971 26.6578 9.17361 26.6111C9.51751 26.5677 9.98162 26.1036 9.98162 26.1036C9.56426 25.9667 9.38396 25.7263 9.29047 25.4993C11.0498 25.5694 13.2197 27.2586 13.2197 27.2586C13.2197 27.2586 14.6518 26.7043 16.0872 27.0282C17.5193 27.352 18.2606 28.1865 18.2606 28.1865C18.2606 28.1865 18.6312 27.492 20.2035 28.4636C21.7758 29.4349 22.6105 30.4065 22.6105 30.4065C22.6105 30.4065 23.6753 29.7588 24.924 30.1728C26.1725 30.5902 26.68 31.3311 26.68 31.3311C26.68 31.3311 27.5614 31.0072 28.9935 31.3311C30.4289 31.655 30.8897 32.1625 30.8897 32.1625C30.8897 32.1625 30.9832 31.1441 33.2967 31.1441C34.3112 31.1447 35.2193 31.128 35.9603 31.1747Z" fill="#C45910"/>
<path d="M31.3271 34.7206C27.4946 36.3396 23.3717 37.2578 18.0307 35.9123C14.3418 34.9807 11.5044 31.7025 9.97852 29.4727C11.2003 28.6948 13.2233 28.8117 14.0046 29.3459C14.886 29.9435 15.1228 30.8147 15.1228 30.8147C15.1228 30.8147 16.5048 29.8 18.2608 30.2204C20.0201 30.6444 20.6077 32.1466 20.6077 32.1466C20.6077 32.1466 21.6391 31.4688 23.5353 31.609C25.4315 31.7493 26.1691 33.4585 26.1691 33.4585C26.1691 33.4585 28.4125 33.1814 29.9281 33.7824C30.5491 34.0297 31.0065 34.387 31.3271 34.7206Z" fill="#C45910"/>
<path d="M28.5226 35.7385C25.4614 36.65 22.0998 36.9369 18.0303 35.9121C15.5164 35.2777 13.4002 33.5552 11.8242 31.8159C14.4516 30.9181 16.264 31.7825 17.0587 32.5338C17.0587 32.5338 18.9716 32.25 20.6541 32.7374C22.3332 33.2283 23.0845 34.046 23.0845 34.046C23.0845 34.046 24.9239 33.3649 26.4027 33.7822C27.3977 34.0627 28.1189 34.9238 28.5226 35.7385Z" fill="#C45910"/>
<path d="M11.1591 28.1857C11.1591 28.454 10.9415 28.6716 10.6733 28.6716C10.4051 28.6716 10.1875 28.454 10.1875 28.1857C10.1875 27.9175 10.4051 27.7 10.6733 27.7C10.9418 27.7002 11.1591 27.9175 11.1591 28.1857Z" fill="black"/>
<path d="M17.4781 28.9251C17.3846 29.6664 17.014 29.1355 17.014 29.1355C16.5967 27.1224 14.6571 24.118 12.7676 23.6606C13.402 23.6139 13.9493 23.5972 14.1462 23.467C14.4234 23.2833 14.4234 23.0496 14.7005 22.9595C16.6434 23.9311 17.5683 28.1873 17.4781 28.9251Z" fill="#7C350E"/>
<path d="M25.2951 26.1978C24.307 29.9902 19.2793 33.1348 19.2793 32.9979C19.2793 32.8577 21.269 31.5157 22.888 28.4646C24.5071 25.4101 23.3054 21.7079 23.3054 21.7079C23.3054 21.7079 24.1835 22.3122 24.6907 22.2655C25.2016 22.2187 25.4787 22.1252 25.4787 22.1252C25.4787 22.1252 25.5054 22.1319 25.5521 22.1486C25.7458 23.1333 25.7425 24.4819 25.2951 26.1978Z" fill="#7C350E"/>
<path d="M29.2708 24.0219C29.1781 25.6409 27.189 29.4806 25.4311 31.7474C23.6732 34.0142 22.0636 34.5231 22.4751 34.6619C22.8866 34.8007 27.7903 32.3025 29.2708 29.3417C30.751 26.3813 29.2708 24.0219 29.2708 24.0219Z" fill="#7C350E"/>
<path opacity="0.35" d="M35.9609 31.1749C35.617 32.2598 34.3786 33.3916 31.6778 34.57C31.5609 34.62 31.444 34.6701 31.3272 34.7202C27.4948 36.3393 23.3718 37.2574 18.0308 35.9119C14.7393 35.0805 12.1252 32.38 10.5195 30.2233C11.7613 31.7957 13.8311 33.8354 16.2648 34.6665C19.6799 35.8382 24.9912 36.0251 28.5231 34.2525C32.055 32.4798 31.8247 32.4197 33.2968 31.1446C34.6154 30.003 34.2381 27.5425 32.4888 25.5428C34.3984 26.9482 35.4999 28.417 35.9339 29.7125C36.0945 30.1902 36.1212 30.6777 35.9609 31.1749Z" fill="#60150D"/>
<path opacity="0.27" d="M12.5372 24.6253C11.2016 25.3095 10.5277 25.7986 11.9626 26.4853C13.3975 27.1717 14.7194 26.8784 15.9528 26.1394C17.1862 25.4007 19.495 24.4508 21.3292 24.6253C23.1636 24.7997 28.7612 26.6578 30.6904 27.8478C32.6197 29.0378 33.3153 25.933 31.07 25.0819C28.8246 24.2307 26.8959 22.9781 25.1558 22.7441C23.4157 22.5104 20.1904 22.1056 18.2928 22.583C16.3955 23.0605 13.8655 23.9447 12.5372 24.6253Z" fill="#EFC8A5"/>
<path opacity="0.41" d="M13.3581 28.6899C12.562 29.3151 11.8701 29.7767 12.7059 30.5291C13.5417 31.2814 15.284 32.4525 15.8825 32.2792C16.481 32.1058 17.3705 30.3791 17.2534 29.3254C17.1362 28.272 17.0361 27.7726 16.4006 27.7047C15.7657 27.6365 13.8263 28.3221 13.3581 28.6899Z" fill="#EFC8A5"/>
<path d="M18.4113 19.4052C18.462 19.3766 18.5174 19.3515 18.5738 19.3321C19.6615 18.932 21.751 19.7675 23.1759 19.4122C24.6733 19.0355 26.52 18.7355 27.4713 18.7186C27.7929 18.713 27.9309 18.8421 27.7907 19.0828C27.7429 19.1593 27.6655 19.2533 27.5545 19.3557C27.3397 19.5519 27.1421 19.7912 26.9504 20.0393C26.7771 20.2628 26.6104 20.4926 26.4429 20.7015C26.4062 20.7516 26.3672 20.7984 26.3291 20.8429C25.9421 21.3073 25.3172 20.8101 23.8859 20.8724C22.4527 20.9317 19.6726 21.8721 18.6161 22.0504C17.5599 22.2268 17.3808 19.9701 18.4113 19.4052Z" fill="#4A5E00"/>
<path d="M25.9766 20.6217C25.9766 20.6217 26.2899 19.6743 26.6535 19.2207C26.6658 19.1996 26.6761 19.1888 26.6761 19.1888C26.8118 19.031 26.951 18.9447 27.0831 19.0018C27.2489 19.0736 27.5055 19.0911 27.7907 19.083C28.3702 19.0613 29.0742 18.9239 29.4028 18.8724C29.8919 18.7945 31.0778 18.8615 31.4047 19.041C31.593 19.144 31.4122 19.2789 31.1239 19.4492C30.9136 19.5752 30.6437 19.7205 30.4242 19.8894C30.252 20.021 30.0956 20.177 29.9348 20.3295C29.7408 20.5143 29.5416 20.6982 29.3029 20.834C29.1443 20.9263 28.9671 20.9939 28.7651 21.0301C28.1763 21.1314 27.1198 20.8504 26.4423 20.7018C26.2492 20.6609 26.0879 20.6295 25.9766 20.6217Z" fill="#769D00"/>
<path d="M29.301 20.8339C29.116 20.7894 28.9415 20.758 28.7871 20.7438C28.7871 20.7438 29.7468 19.7204 30.3477 19.3117C30.3539 19.3078 30.3569 19.3059 30.3569 19.3059C30.4919 19.2135 30.6071 19.154 30.6902 19.1453C30.8864 19.1239 31.0177 19.2486 31.1224 19.4494C31.2314 19.6537 31.3104 19.9383 31.4092 20.2165C31.4329 20.2791 31.4562 20.342 31.4796 20.4046C31.7153 21.0034 31.3783 21.2182 30.8079 21.1712C30.387 21.1369 29.8071 20.9489 29.301 20.8339Z" fill="#4A5E00"/>
<path opacity="0.46" d="M18.4114 19.4053C18.4621 19.3767 18.5174 19.3516 18.5739 19.3322C18.0737 19.9223 18.1268 20.254 18.7531 20.5464C19.6524 20.9624 24.2399 20.6274 24.9511 20.4048C25.6595 20.1844 26.1431 19.6983 26.2972 19.5024C26.4536 19.3096 26.6759 19.1886 26.6759 19.1886C26.6759 19.1886 26.6656 19.1994 26.6534 19.2206C26.5777 19.3308 26.3582 19.7097 26.7733 19.9446C26.8298 19.9749 26.8885 20.0083 26.95 20.0397C27.4143 20.2901 27.9825 20.5339 28.5175 20.3135C29.1194 20.0625 29.5117 19.8224 29.8548 19.5536C30.1953 19.2843 30.3589 19.3057 30.3589 19.3057C30.3589 19.3057 30.3559 19.3077 30.3497 19.3116C30.2802 19.3678 29.7693 19.7718 29.6942 20.1263C29.6672 20.2545 29.7713 20.3079 29.9349 20.3294C30.2654 20.3678 30.838 20.2682 31.0943 20.3224C31.2176 20.3486 31.3227 20.2974 31.4109 20.2161C31.4346 20.2787 31.4579 20.3416 31.4813 20.4042C31.717 21.003 31.38 21.2178 30.8097 21.1708C30.3887 21.1368 29.8088 20.9487 29.3027 20.8338C29.1441 20.9262 28.9669 20.9938 28.7649 21.03C28.1761 21.1312 27.1197 20.8502 26.4422 20.7016C26.4054 20.7517 26.3665 20.7985 26.3284 20.843C25.9414 21.3074 25.3164 20.8102 23.8852 20.8725C22.452 20.9318 19.6718 21.8722 18.6154 22.0505C17.56 22.2269 17.3808 19.9702 18.4114 19.4053Z" fill="#154405"/>
<path opacity="0.25" d="M19.692 19.4959C19.0515 19.4125 18.7663 19.5385 19.1152 19.7956C19.4641 20.0527 21.4508 20.194 23.1725 20.0282C24.8942 19.8624 26.139 19.5235 26.0138 19.2483C25.8886 18.9731 25.4646 19.3318 24.6071 19.4854C23.7496 19.639 21.9474 19.7528 21.3286 19.7319C20.7098 19.711 19.9522 19.5296 19.692 19.4959Z" fill="white"/>
<path opacity="0.25" d="M29.3418 19.5385C29.6106 19.3938 29.6913 19.0992 29.2194 19.1643C28.7472 19.2294 27.802 19.4511 27.4835 19.3106C27.1649 19.1699 26.9776 19.1893 26.925 19.3504C26.8727 19.5115 27.4773 19.8593 28.119 19.9033C28.7606 19.9472 29.3418 19.5385 29.3418 19.5385Z" fill="white"/>
<path d="M36.9502 27.1344C36.9502 27.1363 36.9483 27.1386 36.9483 27.1405C36.522 28.1986 35.2396 28.7738 34.842 28.6349C34.4425 28.4941 34.0426 28.7941 33.5841 28.6349C33.1272 28.4758 32.7686 28.0559 32.3485 27.8968C32.063 27.7888 31.5797 27.8091 31.2291 27.6867C31.0638 27.6316 30.9294 27.544 30.854 27.3993C30.6134 26.9405 30.4155 26.4024 30.1365 26.0025C29.8571 25.603 29.6777 24.6467 29.7572 24.408C29.8346 24.1756 30.5299 23.4191 30.5727 23.3721L30.5747 23.3701L30.644 23.366L31.4127 23.3312C31.4127 23.3312 31.6657 23.4475 32.0652 23.6431C32.2263 23.7204 32.4097 23.8122 32.6097 23.9144C32.94 24.0794 33.3131 24.2733 33.7007 24.4831C33.9085 24.5952 34.1228 24.7135 34.3348 24.8359C34.6183 24.997 34.8977 25.1623 35.1648 25.3292C35.438 25.5006 35.697 25.6717 35.9274 25.8409C36.0131 25.9021 36.0927 25.9633 36.17 26.0223C36.5145 26.2936 36.7735 26.5484 36.896 26.7705C36.9663 26.906 36.9908 27.0281 36.9502 27.1344Z" fill="#38720A"/>
<path opacity="0.46" d="M36.9531 27.1343C36.9531 27.1363 36.9512 27.1385 36.9512 27.1405C36.5249 28.1986 35.2425 28.7737 34.8449 28.6349C34.4454 28.4941 34.0455 28.794 33.587 28.6349C33.1301 28.4757 32.7715 28.0559 32.3513 27.8967C32.0659 27.7888 31.5826 27.8091 31.232 27.6867C31.2829 27.6235 31.3338 27.5094 31.4215 27.3728C31.715 26.9182 31.1931 26.7571 31.0648 26.3002C30.9362 25.8436 30.4226 25.8047 30.8302 25.5314C31.2359 25.2563 30.4387 25.7209 32.6388 26.4184C34.4718 26.9975 36.1376 26.7468 36.898 26.7713C36.9692 26.9059 36.9937 27.0281 36.9531 27.1343Z" fill="#154405"/>
<path d="M37.0511 26.9792C37.0185 27.0343 36.9838 27.0852 36.947 27.1342C36.3252 27.9784 35.0976 28.1701 34.7979 28.0557C34.6449 27.9987 34.3533 28.019 34.0537 28.0068C33.7337 27.9903 33.4073 27.9333 33.242 27.6968C33.2359 27.6887 33.2298 27.6804 33.2237 27.6723C33.0626 27.4481 32.875 27.3298 32.665 27.2483C32.4652 27.1687 32.2448 27.1259 32.0064 27.0585C31.9474 27.0421 31.8901 27.0198 31.8392 26.9954C31.4599 26.8117 31.2988 26.4225 31.2295 26.1409C31.2031 26.0368 31.1541 25.9431 31.091 25.8515C30.9686 25.6743 30.7913 25.5048 30.616 25.2989C30.6018 25.2806 30.5874 25.2622 30.5712 25.2439C30.2919 24.9055 29.9597 24.1429 30.5632 23.3783L30.5712 23.3702C30.6244 23.3051 30.6753 23.2439 30.7282 23.1888C30.7282 23.1869 30.7301 23.1869 30.7301 23.1846C31.5417 22.306 32.2409 22.5505 32.5042 22.5138C32.6305 22.4954 32.8038 22.5383 32.9791 22.5892C33.1953 22.6504 33.4112 22.7239 33.5417 22.7116C33.5436 22.7116 33.5436 22.7116 33.5459 22.7116C33.7865 22.6933 34.4001 22.7136 34.6591 22.9523C34.6917 22.9829 34.7245 23.0135 34.759 23.048C34.922 23.2072 35.0934 23.3863 35.2584 23.4904C35.3258 23.531 35.3909 23.5597 35.4562 23.57C35.6866 23.6067 35.964 23.7839 36.1638 24.1164C36.1883 24.1573 36.2105 24.1999 36.2331 24.2469C36.3616 24.516 36.4573 24.622 36.6143 24.7302C36.6632 24.765 36.7164 24.7976 36.7795 24.8362C36.8305 24.8688 36.8875 24.9036 36.9509 24.9464C37.351 25.2055 37.6304 26.0026 37.0511 26.9792Z" fill="#E9F79A"/>
<path d="M33.549 22.7119L31.0941 25.8518C30.9717 25.6746 30.7944 25.5051 30.6191 25.2992C31.2249 24.6059 32.389 23.2767 32.9822 22.5895C33.1984 22.6507 33.4143 22.7241 33.5448 22.7119C33.547 22.7119 33.547 22.7119 33.549 22.7119Z" fill="#C9D36C"/>
<path d="M35.261 23.4907C34.5557 24.5163 33.2141 26.4573 32.6676 27.2486C32.4678 27.169 32.2475 27.1262 32.009 27.0588C31.95 27.0424 31.8927 27.0202 31.8418 26.9957L34.7616 23.0483C34.9247 23.2075 35.0958 23.3867 35.261 23.4907Z" fill="#C9D36C"/>
<path d="M36.7844 24.8365C36.7376 24.8916 36.6906 24.9486 36.6397 25.0079C36.4257 25.2608 36.1828 25.546 35.9282 25.8417C35.6837 26.1272 35.4308 26.4227 35.1862 26.7043C34.7316 27.2343 34.3134 27.7134 34.0585 28.0072C33.7385 27.9908 33.4122 27.9338 33.2469 27.6973C33.2408 27.6892 33.2346 27.6809 33.2285 27.6728L33.9361 26.8164L35.1656 25.3301L36.1686 24.1169C36.1931 24.1578 36.2154 24.2004 36.2379 24.2474C36.3665 24.5165 36.4622 24.6225 36.6191 24.7307C36.6681 24.765 36.7212 24.7975 36.7844 24.8365Z" fill="#C9D36C"/>
<path opacity="0.25" d="M33.1591 22.8848C31.9259 23.1931 31.8873 22.6277 31.5445 23.185C31.2014 23.7423 31.2626 24.214 31.8394 24.0568C32.4162 23.8996 32.4988 23.7755 33.0306 24.2206C33.5625 24.6661 33.3878 24.271 34.0166 24.5567C34.6454 24.8425 35.3313 25.3828 35.5884 24.8127C35.8455 24.2426 35.6376 23.658 35.0915 23.3645C34.5453 23.0704 33.3308 22.842 33.1591 22.8848Z" fill="white"/>
<path opacity="0.42" d="M37.0511 26.9791C37.0185 27.0342 36.9838 27.0852 36.947 27.1341C36.3252 27.9783 35.0976 28.17 34.7979 28.0556C34.6449 27.9986 34.3533 28.0189 34.0537 28.0067C33.7337 27.9903 33.4073 27.9332 33.242 27.6967C33.2359 27.6886 33.2298 27.6803 33.2237 27.6722C33.0626 27.448 32.875 27.3297 32.665 27.2482C32.4652 27.1686 32.2448 27.1258 32.0064 27.0584C31.9474 27.042 31.8901 27.0198 31.8392 26.9953C31.4599 26.8116 31.2988 26.4224 31.2295 26.1408C31.2031 26.0368 31.1541 25.943 31.091 25.8514C30.9686 25.6742 30.7913 25.5048 30.616 25.2989C30.6018 25.2805 30.5874 25.2621 30.5712 25.2438C30.2919 24.9054 29.9597 24.1428 30.5632 23.3782L30.5712 23.3701C30.6244 23.305 30.6753 23.2438 30.7282 23.1887C30.6995 23.2519 30.6689 23.3089 30.6405 23.3662C30.453 23.7516 30.3306 24.029 30.7301 24.5426C30.8442 24.6873 30.9137 24.8056 30.9585 24.9077C31.0871 25.1951 31.0278 25.3481 31.2766 25.613C31.293 25.6314 31.3114 25.6517 31.3336 25.6723C31.5417 25.872 31.8923 26.0924 32.3531 26.3002C32.5815 26.4021 32.8383 26.502 33.1177 26.5938C33.3706 26.6753 33.6416 26.7507 33.9312 26.8161C33.968 26.8264 34.0066 26.8345 34.0453 26.8425C34.4001 26.9202 34.8018 26.8589 35.1811 26.704C35.5522 26.5551 35.9009 26.3144 36.1658 26.0228C36.4368 25.7232 36.6184 25.3704 36.6346 25.0076C36.6388 24.9157 36.6326 24.8239 36.6143 24.7302C36.6632 24.7649 36.7164 24.7975 36.7795 24.8362C36.8305 24.8687 36.8875 24.9035 36.9509 24.9463C37.351 25.2054 37.6304 26.0025 37.0511 26.9791Z" fill="#365B16"/>
<path d="M32.2278 24.6447C32.2278 24.6466 32.2259 24.6489 32.2259 24.6508C31.7996 25.709 30.5172 26.2841 30.1196 26.1452C29.7201 26.0044 29.3203 26.3044 28.8617 26.1452C28.4049 25.9861 28.0462 25.5662 27.6261 25.4071C27.3406 25.2991 26.8573 25.3194 26.5067 25.197C26.3415 25.1419 26.2071 25.0543 26.1317 24.9096C25.891 24.4508 25.6932 23.9127 25.4138 23.5128C25.1345 23.1133 24.955 22.157 25.0346 21.9185C25.1119 21.6862 25.8072 20.9297 25.8501 20.8827L25.852 20.8807L25.9213 20.8765L26.6901 20.842C26.6901 20.842 26.943 20.9583 27.3426 21.1539C27.5036 21.2313 27.687 21.3231 27.8871 21.4252C28.2173 21.5905 28.5904 21.7842 28.9778 21.9939C29.1859 22.1061 29.3998 22.2243 29.6118 22.3467C29.8951 22.5078 30.1744 22.6731 30.4418 22.8401C30.7151 23.0115 30.9741 23.1826 31.2045 23.3517C31.2902 23.4129 31.3698 23.4742 31.4471 23.5331C31.7916 23.8044 32.0506 24.0593 32.173 24.2813C32.2442 24.4163 32.2687 24.5387 32.2278 24.6447Z" fill="#38720A"/>
<path opacity="0.46" d="M32.2302 24.6444C32.2302 24.6463 32.2282 24.6485 32.2282 24.6505C31.802 25.7086 30.5196 26.2837 30.122 26.1449C29.7224 26.0041 29.3226 26.304 28.8641 26.1449C28.4072 25.9857 28.0486 25.5659 27.6284 25.4067C27.3429 25.2988 26.8596 25.3191 26.5091 25.1967C26.56 25.1335 26.6109 25.0194 26.6988 24.8825C26.9924 24.4279 26.4704 24.2668 26.3421 23.8102C26.2136 23.3533 25.7 23.3147 26.1076 23.0414C26.5132 22.7663 25.7161 23.2309 27.9161 23.9285C29.7491 24.5075 31.4149 24.2568 32.1754 24.2813C32.2466 24.4159 32.2711 24.5384 32.2302 24.6444Z" fill="#154405"/>
<path d="M32.3326 24.4895C32.3001 24.5446 32.2653 24.5955 32.2286 24.6445C31.6067 25.4887 30.3794 25.6804 30.0795 25.566C29.9264 25.509 29.6348 25.5293 29.3352 25.517C29.0152 25.5006 28.6888 25.4436 28.5236 25.2071C28.5174 25.199 28.5113 25.1907 28.5052 25.1826C28.3441 24.9583 28.1566 24.8401 27.9465 24.7586C27.7467 24.679 27.5264 24.6361 27.2879 24.5688C27.2289 24.5524 27.1716 24.5301 27.1207 24.5056C26.7415 24.322 26.5804 23.9328 26.5111 23.6512C26.4846 23.5471 26.4357 23.4534 26.3725 23.3615C26.2501 23.184 26.0729 23.0149 25.8973 22.809C25.8831 22.7906 25.8686 22.7722 25.8525 22.7539C25.5731 22.4155 25.2409 21.6529 25.8444 20.8883L25.8525 20.8802C25.9054 20.8151 25.9565 20.7539 26.0094 20.6988C26.0094 20.6969 26.0114 20.6969 26.0114 20.6946C26.823 19.816 27.5222 20.0605 27.7851 20.0238C27.9114 20.0054 28.0848 20.0483 28.2604 20.0992C28.4765 20.1604 28.6925 20.2339 28.8229 20.2216C28.8249 20.2216 28.8249 20.2216 28.8271 20.2216C29.0678 20.2033 29.6813 20.2236 29.9403 20.4623C29.9729 20.4929 30.0054 20.5235 30.0402 20.558C30.2033 20.7169 30.3747 20.8964 30.5397 21.0004C30.607 21.041 30.6721 21.0697 30.7375 21.08C30.9679 21.1167 31.2453 21.294 31.445 21.6265C31.4695 21.6671 31.4921 21.7102 31.5143 21.7569C31.6429 22.026 31.7386 22.132 31.8955 22.2402C31.9445 22.275 31.9976 22.3076 32.0608 22.3463C32.1117 22.3788 32.1687 22.4136 32.2322 22.4564C32.6323 22.7157 32.9116 23.5129 32.3326 24.4895Z" fill="#E9F79A"/>
<path d="M28.8266 20.2222L26.3717 23.3621C26.2493 23.1845 26.0721 23.0154 25.8965 22.8095C26.5019 22.1161 27.6663 20.7867 28.2595 20.0997C28.4757 20.1609 28.6916 20.2344 28.8221 20.2222C28.8246 20.2222 28.8246 20.2222 28.8266 20.2222Z" fill="#C9D36C"/>
<path d="M30.5423 21.001C29.8367 22.0266 28.4953 23.9676 27.9489 24.7589C27.7491 24.6793 27.5287 24.6364 27.2903 24.5691C27.2313 24.5527 27.174 24.5304 27.123 24.5059L30.0426 20.5586C30.2056 20.7175 30.377 20.8969 30.5423 21.001Z" fill="#C9D36C"/>
<path d="M32.0614 22.3464C32.0147 22.4015 31.9677 22.4585 31.9168 22.5175C31.7025 22.7704 31.4599 23.0559 31.2053 23.3514C30.9607 23.6368 30.7078 23.9323 30.4633 24.2139C30.0086 24.7439 29.5907 25.2231 29.3358 25.5169C29.0159 25.5005 28.6895 25.4434 28.5242 25.2069C28.5181 25.1989 28.512 25.1905 28.5059 25.1825L29.2134 24.326L30.4429 22.8397L31.446 21.6266C31.4705 21.6672 31.493 21.7103 31.5153 21.7571C31.6438 22.0261 31.7395 22.1321 31.8965 22.2404C31.9454 22.2752 31.9983 22.3077 32.0614 22.3464Z" fill="#C9D36C"/>
<path opacity="0.25" d="M28.4423 20.3948C27.2092 20.7031 27.1705 20.1377 26.8277 20.6948C26.4846 21.2521 26.5458 21.7237 27.1226 21.5665C27.6994 21.4093 27.782 21.2852 28.3138 21.7304C28.8457 22.1758 28.671 21.7807 29.2998 22.0665C29.9286 22.3522 30.6145 22.8926 30.8716 22.3224C31.1287 21.7523 30.9208 21.1678 30.3747 20.8742C29.8285 20.5807 28.6137 20.352 28.4423 20.3948Z" fill="white"/>
<path opacity="0.42" d="M32.3326 24.4894C32.3001 24.5445 32.2653 24.5954 32.2286 24.6444C31.6067 25.4886 30.3794 25.6803 30.0795 25.5659C29.9264 25.5089 29.6348 25.5292 29.3352 25.517C29.0152 25.5005 28.6888 25.4435 28.5236 25.207C28.5174 25.1989 28.5113 25.1906 28.5052 25.1825C28.3441 24.9583 28.1566 24.84 27.9465 24.7585C27.7467 24.6789 27.5264 24.6361 27.2879 24.5687C27.2289 24.5523 27.1716 24.5301 27.1207 24.5056C26.7415 24.3219 26.5804 23.9327 26.5111 23.6511C26.4846 23.547 26.4357 23.4533 26.3725 23.3615C26.2501 23.1839 26.0729 23.0148 25.8973 22.8089C25.8831 22.7905 25.8686 22.7722 25.8525 22.7538C25.5731 22.4155 25.2409 21.6528 25.8444 20.8882L25.8525 20.8801C25.9054 20.815 25.9565 20.7538 26.0094 20.6987C25.9808 20.7619 25.9504 20.8189 25.9218 20.876C25.7342 21.2613 25.6118 21.5387 26.0114 22.0524C26.1254 22.197 26.195 22.3153 26.2398 22.4174C26.3683 22.7048 26.3091 22.8578 26.5578 23.1227C26.5742 23.1411 26.5926 23.1614 26.6149 23.182C26.8227 23.3818 27.1736 23.6021 27.6343 23.81C27.8628 23.9118 28.1196 24.0117 28.3989 24.1035C28.6518 24.185 28.9228 24.2604 29.2125 24.3258C29.2492 24.3361 29.2879 24.3442 29.3266 24.3523C29.6813 24.4296 30.0831 24.3687 30.4623 24.2137C30.8335 24.0648 31.1821 23.8242 31.447 23.5326C31.7183 23.2329 31.8997 22.8801 31.9158 22.5173C31.92 22.4255 31.9139 22.3336 31.8955 22.2399C31.9445 22.2747 31.9976 22.3072 32.0608 22.3459C32.1117 22.3784 32.1687 22.4132 32.2322 22.4561C32.6323 22.7157 32.9116 23.5128 32.3326 24.4894Z" fill="#365B16"/>
<path d="M15.1694 14.0591C16.7537 14.0591 18.038 12.4789 18.038 10.5297C18.038 8.58042 16.7537 7.00024 15.1694 7.00024C13.5851 7.00024 12.3008 8.58042 12.3008 10.5297C12.3008 12.4789 13.5851 14.0591 15.1694 14.0591Z" fill="#E2521A"/>
<path d="M15.1701 13.2133C16.6178 13.2133 17.7914 11.8224 17.7914 10.1068C17.7914 8.39108 16.6178 7.00024 15.1701 7.00024C13.7224 7.00024 12.5488 8.39108 12.5488 10.1068C12.5488 11.8224 13.7224 13.2133 15.1701 13.2133Z" fill="#FF8226"/>
<path d="M16.305 10.1058C16.305 10.8017 15.7961 11.366 15.1681 11.366C14.5401 11.366 14.0312 10.8017 14.0312 10.1058C14.0312 9.40997 14.5401 8.8457 15.1681 8.8457C15.7961 8.8457 16.305 9.40969 16.305 10.1058Z" fill="#FF511F"/>
<path opacity="0.22" d="M13.794 8.69049C13.382 9.5149 12.9382 10.7803 13.7083 11.1362C14.4785 11.4921 14.9902 11.1921 15.1702 10.0277C15.3502 8.86327 15.59 7.97292 14.9899 7.98711C14.3895 8.0013 14.1229 8.03246 13.794 8.69049Z" fill="white"/>
<path d="M21.3471 14.0591C22.9314 14.0591 24.2158 12.4789 24.2158 10.5297C24.2158 8.58042 22.9314 7.00024 21.3471 7.00024C19.7628 7.00024 18.4785 8.58042 18.4785 10.5297C18.4785 12.4789 19.7628 14.0591 21.3471 14.0591Z" fill="#E2521A"/>
<path d="M21.3459 13.2133C22.7936 13.2133 23.9671 11.8224 23.9671 10.1068C23.9671 8.39108 22.7936 7.00024 21.3459 7.00024C19.8982 7.00024 18.7246 8.39108 18.7246 10.1068C18.7246 11.8224 19.8982 13.2133 21.3459 13.2133Z" fill="#FF8226"/>
<path d="M22.4827 10.1058C22.4827 10.8017 21.9738 11.366 21.3459 11.366C20.7179 11.366 20.209 10.8017 20.209 10.1058C20.209 9.40997 20.7179 8.8457 21.3459 8.8457C21.9738 8.8457 22.4827 9.40969 22.4827 10.1058Z" fill="#FF511F"/>
<path opacity="0.22" d="M19.9718 8.69049C19.5597 9.5149 19.1159 10.7803 19.8861 11.1362C20.6562 11.4921 21.1679 11.1921 21.3479 10.0277C21.5279 8.86327 21.7678 7.97292 21.1676 7.98711C20.5672 8.0013 20.3006 8.03246 19.9718 8.69049Z" fill="white"/>
<path d="M27.5229 14.0589C29.1072 14.0589 30.3915 12.4787 30.3915 10.5294C30.3915 8.58018 29.1072 7 27.5229 7C25.9386 7 24.6543 8.58018 24.6543 10.5294C24.6543 12.4787 25.9386 14.0589 27.5229 14.0589Z" fill="#E2521A"/>
<path d="M27.5236 13.213C28.9713 13.213 30.1449 11.8222 30.1449 10.1065C30.1449 8.39083 28.9713 7 27.5236 7C26.0759 7 24.9023 8.39083 24.9023 10.1065C24.9023 11.8222 26.0759 13.213 27.5236 13.213Z" fill="#FF8226"/>
<path d="M28.6585 10.1058C28.6585 10.8017 28.1496 11.366 27.5216 11.366C26.8937 11.366 26.3848 10.8017 26.3848 10.1058C26.3848 9.40997 26.8937 8.8457 27.5216 8.8457C28.1493 8.8457 28.6585 9.40969 28.6585 10.1058Z" fill="#FF511F"/>
<path opacity="0.22" d="M26.1475 8.69024C25.7355 9.51466 25.2917 10.7801 26.0618 11.1359C26.832 11.4918 27.3437 11.1919 27.5237 10.0274C27.7037 8.86303 27.9436 7.97267 27.3434 7.98686C26.7433 8.00105 26.4767 8.03221 26.1475 8.69024Z" fill="white"/>
<path d="M15.6398 15.5591C15.4181 17.2839 14.4924 17.8259 14.2503 17.753C14.1924 17.7355 14.0511 17.6849 13.8772 17.6195C13.3477 17.4127 12.4827 17.0243 12.4095 16.6916C12.3085 16.2478 12.6794 15.8293 12.8029 15.0399C12.9265 14.2506 12.3338 13.4136 12.3338 13.4136C12.2103 13.0177 12.0867 12.7731 12.9011 12.3294C13.2089 12.163 13.5113 12.0723 13.7837 12.0444C14.235 11.9941 14.5981 12.1151 14.752 12.3294C14.9968 12.6721 15.8616 13.8321 15.6398 15.5591Z" fill="#4A5E00"/>
<path d="M14.6034 15.0397C14.4017 16.2954 14.2403 17.1151 13.8772 17.6192C13.3477 17.4125 12.4827 17.0241 12.4095 16.6913C12.3085 16.2475 12.6794 15.829 12.8029 15.0397C12.9265 14.2503 12.3338 13.4134 12.3338 13.4134C12.2103 13.0175 12.0867 12.7729 12.9011 12.3291C13.2089 12.1627 13.5113 12.072 13.7837 12.0442C14.2957 12.6872 14.7723 13.9857 14.6034 15.0397Z" fill="#769D00"/>
<path opacity="0.33" d="M12.8804 12.8593C12.6219 13.0544 12.5891 13.1381 12.7917 13.5182C12.9945 13.8982 13.2858 14.4686 13.248 14.9628C13.2099 15.4569 12.7664 16.002 12.7157 16.2299C12.6651 16.458 12.7917 16.7875 13.0326 16.7115C13.2733 16.6355 13.5521 16.7621 13.5396 16.0526C13.5268 15.3431 13.9831 15.0769 13.793 14.3927C13.603 13.7085 13.6367 13.5944 13.4425 13.2775C13.248 12.9606 13.0438 12.7363 12.8804 12.8593Z" fill="#E9F79A"/>
<path d="M19.3524 15.5595C19.1307 17.2843 18.205 17.8263 17.9629 17.7534C17.905 17.7359 17.7637 17.6852 17.5898 17.6198C17.0603 17.4131 16.1953 17.0247 16.1224 16.6919C16.0217 16.2481 16.3923 15.8297 16.5158 15.0403C16.6393 14.2509 16.0467 13.414 16.0467 13.414C15.9232 13.0181 15.7996 12.7735 16.614 12.3297C16.9218 12.1633 17.2242 12.0726 17.4966 12.0448C17.9479 11.9944 18.311 12.1155 18.4649 12.3297C18.7094 12.6725 19.5745 13.8325 19.3524 15.5595Z" fill="#4A5E00"/>
<path d="M18.316 15.0398C18.1143 16.2955 17.9529 17.1152 17.5898 17.6193C17.0603 17.4126 16.1953 17.0242 16.1224 16.6914C16.0217 16.2476 16.3923 15.8292 16.5158 15.0398C16.6393 14.2505 16.0467 13.4135 16.0467 13.4135C15.9232 13.0176 15.7996 12.773 16.614 12.3292C16.9218 12.1628 17.2242 12.0721 17.4966 12.0443C18.0085 12.6873 18.4852 13.9858 18.316 15.0398Z" fill="#769D00"/>
<path opacity="0.33" d="M16.5933 12.8597C16.3348 13.0547 16.302 13.1385 16.5046 13.5185C16.7074 13.8986 16.9987 14.469 16.9609 14.9631C16.9228 15.4573 16.4792 16.0024 16.4286 16.2302C16.378 16.4584 16.5046 16.7878 16.7455 16.7119C16.9862 16.6359 17.265 16.7625 17.2525 16.053C17.2397 15.3435 17.696 15.0772 17.5059 14.393C17.3159 13.7089 17.3496 13.5948 17.1554 13.2779C16.9606 12.961 16.7566 12.7367 16.5933 12.8597Z" fill="#E9F79A"/>
<path d="M23.0634 15.5591C22.8416 17.2839 21.9162 17.8259 21.6741 17.753C21.6163 17.7355 21.4749 17.6849 21.301 17.6195C20.7715 17.4127 19.9065 17.0243 19.8333 16.6916C19.7326 16.2478 20.1032 15.8293 20.2267 15.0399C20.3503 14.2506 19.7576 13.4136 19.7576 13.4136C19.6341 13.0177 19.5106 12.7731 20.325 12.3294C20.6327 12.163 20.9351 12.0723 21.2075 12.0444C21.6588 11.9941 22.0219 12.1151 22.1758 12.3294C22.4204 12.6721 23.2851 13.8321 23.0634 15.5591Z" fill="#4A5E00"/>
<path d="M22.0272 15.0397C21.8255 16.2954 21.6641 17.1151 21.301 17.6192C20.7715 17.4125 19.9065 17.0241 19.8333 16.6913C19.7326 16.2475 20.1032 15.829 20.2267 15.0397C20.3503 14.2503 19.7576 13.4134 19.7576 13.4134C19.6341 13.0175 19.5106 12.7729 20.325 12.3291C20.6327 12.1627 20.9351 12.072 21.2075 12.0442C21.7195 12.6872 22.1961 13.9857 22.0272 15.0397Z" fill="#769D00"/>
<path opacity="0.33" d="M20.3043 12.8593C20.0458 13.0544 20.0129 13.1381 20.2155 13.5182C20.4183 13.8982 20.7097 14.4686 20.6718 14.9628C20.6337 15.4569 20.1902 16.002 20.1395 16.2299C20.0889 16.458 20.2155 16.7875 20.4565 16.7115C20.6971 16.6355 20.9759 16.7621 20.9634 16.0526C20.9506 15.3431 21.4069 15.0769 21.2169 14.3927C21.0268 13.7085 21.0605 13.5944 20.8663 13.2775C20.6718 12.9606 20.4676 12.7363 20.3043 12.8593Z" fill="#E9F79A"/>
<path d="M26.776 15.5595C26.5542 17.2843 25.6285 17.8263 25.3867 17.7534C25.3289 17.7359 25.1875 17.6852 25.0136 17.6198C24.4841 17.4131 23.6191 17.0247 23.5462 16.6919C23.4452 16.2481 23.8161 15.8297 23.9396 15.0403C24.0632 14.2509 23.4705 13.414 23.4705 13.414C23.347 13.0181 23.2235 12.7735 24.0379 12.3297C24.3456 12.1633 24.648 12.0726 24.9204 12.0448C25.3717 11.9944 25.7348 12.1155 25.8887 12.3297C26.133 12.6725 26.998 13.8325 26.776 15.5595Z" fill="#4A5E00"/>
<path d="M25.7398 15.0401C25.5381 16.2957 25.3767 17.1154 25.0136 17.6196C24.4841 17.4129 23.6191 17.0244 23.5462 16.6917C23.4452 16.2479 23.8161 15.8294 23.9396 15.0401C24.0632 14.2507 23.4705 13.4138 23.4705 13.4138C23.347 13.0178 23.2235 12.7733 24.0379 12.3295C24.3456 12.1631 24.648 12.0724 24.9204 12.0446C25.4324 12.6876 25.909 13.9861 25.7398 15.0401Z" fill="#769D00"/>
<path opacity="0.33" d="M24.0153 12.8594C23.7568 13.0545 23.7237 13.1382 23.9266 13.5183C24.1294 13.8984 24.4207 14.4688 24.3829 14.9629C24.3447 15.4571 23.9012 16.0021 23.8506 16.23C23.8 16.4581 23.9266 16.7876 24.1675 16.7116C24.4082 16.6357 24.687 16.7623 24.6744 16.0528C24.6617 15.3433 25.118 15.077 24.9279 14.3928C24.7379 13.7086 24.7716 13.5945 24.5773 13.2776C24.3826 12.9607 24.1786 12.7365 24.0153 12.8594Z" fill="#E9F79A"/>
<defs>
<filter id="filter0_di_2562_8548" x="0" y="0" width="49" height="50" filterUnits="userSpaceOnUse" color-interpolation-filters="sRGB">
<feFlood flood-opacity="0" result="BackgroundImageFix"/>
<feColorMatrix in="SourceAlpha" type="matrix" values="0 0 0 0 0 0 0 0 0 0 0 0 0 0 0 0 0 0 127 0" result="hardAlpha"/>
<feOffset dx="1" dy="1"/>
<feGaussianBlur stdDeviation="1"/>
<feComposite in2="hardAlpha" operator="out"/>
<feColorMatrix type="matrix" values="0 0 0 0 0 0 0 0 0 0 0 0 0 0 0 0 0 0 0.09 0"/>
<feBlend mode="normal" in2="BackgroundImageFix" result="effect1_dropShadow_2562_8548"/>
<feBlend mode="normal" in="SourceGraphic" in2="effect1_dropShadow_2562_8548" result="shape"/>
<feColorMatrix in="SourceAlpha" type="matrix" values="0 0 0 0 0 0 0 0 0 0 0 0 0 0 0 0 0 0 127 0" result="hardAlpha"/>
<feOffset dy="4"/>
<feGaussianBlur stdDeviation="5"/>
<feComposite in2="hardAlpha" operator="arithmetic" k2="-1" k3="1"/>
<feColorMatrix type="matrix" values="0 0 0 0 0 0 0 0 0 0 0 0 0 0 0 0 0 0 0.09 0"/>
<feBlend mode="normal" in2="shape" result="effect2_innerShadow_2562_8548"/>
</filter>
</defs>
</svg>
