<svg width="49" height="49" viewBox="0 0 49 49" fill="none" xmlns="http://www.w3.org/2000/svg">
<g filter="url(#filter0_di_2562_8336)">
<circle cx="23.5" cy="23.5" r="22.5" fill="white"/>
</g>
<path opacity="0.3" fill-rule="evenodd" clip-rule="evenodd" d="M40.5455 22.3435C40.4717 22.1294 40.3723 21.934 40.2478 21.7549C40.0591 21.4275 39.8352 21.1032 39.5694 20.7841C39.207 20.3502 38.4397 19.884 37.5405 19.5166C37.5383 19.5101 37.5364 19.5033 37.5349 19.4968C38.1191 16.8077 37.4776 13.8353 35.5605 11.6022C32.8179 8.40827 27.1932 9.18391 24.1402 11.9522L23.3293 12.28C23.3005 12.2518 23.2707 12.2255 23.2413 12.1982L23.3733 10.3876L22.1918 11.2658L19.8733 8.60559C19.952 8.70471 20.131 9.95646 20.258 10.9136C19.7664 10.851 19.2562 10.8365 18.7392 10.8656C18.5376 10.6125 18.2761 10.3362 17.9899 10.1563C17.8976 10.0739 17.8019 9.99425 17.6997 9.91836C16.3507 8.91938 14.5401 9.41654 13.1865 10.0949C11.174 11.102 10.8726 13.2591 11.6547 15.0353C11.2681 15.6155 10.8425 15.7629 10.8425 15.7629C10.8425 15.7629 10.3159 16.1238 9.65614 16.6993C8.2396 17.1757 7.10959 18.2974 6.82306 19.8694C6.69513 20.5735 6.78744 21.2286 7.03494 21.8113C7.09534 22.6727 7.34439 23.3744 7.73438 23.9347C7.40603 27.0351 7.7412 30.611 11.0677 31.3931C10.3667 35.6303 13.4126 39.2102 17.4925 40.1209C18.6513 40.3796 19.9114 40.2792 21.0383 39.8564C21.2641 39.8294 21.4661 39.7982 21.6355 39.7635C22.549 39.9911 23.495 40.0677 24.3543 39.9701C25.1101 39.8846 25.7891 39.6219 26.3708 39.2307C26.4055 39.3137 26.4789 39.3822 26.5982 39.3961C30.043 39.7895 32.5056 38.1527 33.7177 35.7313C33.7673 35.6991 33.8187 35.6666 33.8692 35.6344C33.8834 35.6313 33.8971 35.6297 33.9116 35.6238C36.71 34.4876 38.1002 32.2146 38.1962 29.8521C38.2548 29.8521 38.3161 29.8338 38.3715 29.7811C40.587 27.6909 41.6826 24.9436 40.5455 22.3435ZM23.9692 13.2232C23.9702 13.1962 23.972 13.1693 23.9652 13.1405C23.9671 13.1361 23.9689 13.1321 23.9708 13.1278C24.0194 13.0665 24.0711 13.0079 24.1219 12.9484C24.1508 12.9435 24.1799 12.9394 24.2081 12.9348C24.1182 13.042 24.038 13.1389 23.9692 13.2232ZM28.7244 10.4731C29.2187 10.3883 29.7196 10.3464 30.2174 10.3464C29.7209 10.3734 29.2119 10.4161 28.7244 10.4731ZM8.42267 27.0636C8.52675 27.6317 8.75628 28.4169 9.05892 29.1539C8.53852 28.1505 8.31394 26.8539 8.2492 25.621C8.29753 26.1232 8.33563 26.5903 8.42267 27.0636ZM36.8934 16.1792C36.9302 16.4156 36.9597 16.6529 36.9823 16.8892C36.9488 16.6591 36.9188 16.4224 36.8934 16.1792ZM13.2131 10.939C13.0232 11.1558 12.7968 11.338 12.5719 11.5025C12.7448 11.3089 12.9563 11.1202 13.2131 10.939ZM11.6333 31.8571C11.6835 32.1904 11.6708 32.6315 11.6795 33.1265C11.6293 32.709 11.6117 32.2846 11.6333 31.8571ZM23.189 39.4079C23.526 39.3797 23.9029 39.3543 24.2728 39.3156C23.9206 39.384 23.5563 39.4122 23.189 39.4079ZM26.9513 38.7648C27.017 38.784 27.087 38.8035 27.1644 38.8252C27.0668 38.8317 26.9683 38.8388 26.8701 38.8429C26.8977 38.8178 26.9237 38.7905 26.9513 38.7648Z" fill="url(#paint0_linear_2562_8336)"/>
<path fill-rule="evenodd" clip-rule="evenodd" d="M10.0779 15.1571C10.0779 15.1571 5.34972 18.3876 6.47075 20.9902C7.59208 23.5931 7.3895 24.992 7.65868 26.4577C7.92755 27.9232 9.02441 30.8291 10.0779 30.6358C11.1314 30.4428 10.8439 31.6211 10.9363 33.0525C11.0896 35.4303 13.9716 38.3897 15.9358 38.9934C17.9 39.5975 20.9548 39.2871 21.3873 38.9934C21.8194 38.6995 24.1853 38.8618 25.0084 38.3417C25.8305 37.8222 24.7624 37.7708 26.4246 38.2259C28.0889 38.6812 30.6674 37.8328 31.2076 36.6597C31.7475 35.486 34.7129 34.3916 35.801 32.9482C36.8895 31.5037 37.5428 28.7918 37.5428 28.7918C37.5428 28.7918 38.2856 28.7435 39.2583 26.0588C40.2312 23.3741 40.2517 21.5133 38.8921 20.5546C37.5326 19.5969 36.8964 19.3094 36.8964 19.3094C36.8964 19.3094 36.2682 17.4069 36.0919 15.1568C35.916 12.907 33.6702 10.0528 32.1229 9.79635C30.576 9.53987 26.3363 9.84715 25.3203 10.5085C24.3037 11.1698 22.9543 12.9339 22.9543 12.9339C22.9543 12.9339 21.6509 11.2036 20.8195 11.045C19.9878 10.887 18.3807 10.844 18.3807 10.844C18.3807 10.844 17.5215 9.35525 16.6507 9.35804C15.7806 9.36051 13.2353 9.43826 12.4494 10.3332C11.6639 11.2284 10.2641 11.5465 10.848 12.385C11.4319 13.2235 11.2773 13.8499 10.8904 14.4297C10.5035 15.0099 10.0779 15.1571 10.0779 15.1571Z" fill="url(#paint1_linear_2562_8336)"/>
<path fill-rule="evenodd" clip-rule="evenodd" d="M31.668 16.8948C31.2715 16.7182 30.5826 16.6578 29.8373 16.7108C29.3309 14.6593 27.8812 12.8277 25.8033 11.9402C22.6382 10.5884 18.7476 13.4534 17.8716 16.643C16.6672 16.1176 15.2132 16.4172 13.9166 17.1711C13.6232 17.0153 13.3054 16.8957 12.9538 16.8316C11.6884 16.6018 10.612 17.5565 9.91104 18.4814C8.86901 19.8555 9.39188 21.4409 10.5312 22.3968C10.5572 22.7638 10.6411 23.1241 10.7985 23.4689C9.30701 24.1556 8.38454 25.7351 8.84609 27.3563C8.99694 27.8839 9.28254 28.3027 9.6496 28.6196C9.98291 29.1917 10.3918 29.5891 10.8493 29.8425C11.6739 32.0855 13.1149 34.4307 15.667 33.8409C16.6201 36.9914 19.9265 38.4216 23.0393 37.6655C24.0219 37.427 24.9425 36.8437 25.5933 36.0535C26.3609 35.9091 27.1018 35.6254 27.7059 35.2379C28.1965 34.9229 28.5744 34.5124 28.8421 34.0469C28.8935 34.0921 28.9675 34.1147 29.0546 34.0834C31.5872 33.1761 32.7249 31.1794 32.7097 29.0758C32.7429 29.0641 32.7763 29.0458 32.8051 29.0139C34.3443 27.2851 34.5302 25.2512 33.7964 23.5949C33.8363 23.5751 33.8716 23.5416 33.8921 23.4868C34.8725 20.8539 34.4196 18.1165 31.668 16.8948ZM25.9176 12.5956C27.4937 13.2536 28.5815 14.8922 29.2537 16.3831C29.3095 16.5079 29.3569 16.6315 29.399 16.7551C29.1853 16.7827 28.9731 16.8186 28.7624 16.8645C28.2377 15.4194 26.8367 14.1265 25.4053 13.9419C23.6018 13.7089 21.5416 14.6128 20.2976 16.065C19.5731 16.2044 18.9353 16.5395 18.3982 17.0051C18.3886 16.9753 18.3728 16.9468 18.3508 16.9199C19.023 13.7848 22.9479 11.3566 25.9176 12.5956ZM29.8677 19.8217C30.4652 20.0249 30.7932 20.4056 31.0333 20.9059C30.6071 20.7194 30.148 20.5772 29.6583 20.4961C29.7391 20.2715 29.8029 20.0435 29.8571 19.8149C29.8605 19.8168 29.8627 19.8199 29.8677 19.8217ZM29.1589 20.4354C29.0573 20.4267 28.9548 20.4171 28.8501 20.4137C28.7089 20.4084 28.6135 20.489 28.5685 20.5918C28.4335 20.3706 28.291 20.1529 28.137 19.9438C28.8907 19.2465 29.0896 18.3463 28.9248 17.4561C29.1354 17.4186 29.3501 17.3914 29.5623 17.3718C29.6211 17.6952 29.636 18.0149 29.6223 18.3318C29.53 18.4219 29.5368 18.5495 29.601 18.6481C29.5365 19.2487 29.3724 19.8422 29.1589 20.4354ZM26.7592 30.5943C26.7301 30.2331 26.6948 29.8679 26.6589 29.4965C27.0873 29.4652 27.4999 29.3782 27.8895 29.2474C28.0206 29.5993 28.1426 29.9453 28.2544 30.208C27.7306 30.4549 27.179 30.6005 26.7592 30.5943ZM28.4394 30.6438C28.5348 30.8845 28.6125 31.1224 28.6689 31.3578C28.1008 31.6013 27.4751 31.733 26.8202 31.7107C26.8159 31.4876 26.8045 31.2637 26.7902 31.0385C27.2654 31.0481 27.8641 30.9019 28.4394 30.6438ZM26.5192 28.9352C26.4207 28.8621 26.2745 28.8661 26.162 28.9336C26.0545 28.929 25.9458 28.9237 25.8377 28.9148C26.4222 28.7955 26.9696 28.5759 27.4633 28.2816C27.5448 28.4238 27.6247 28.5898 27.7018 28.7729C27.3245 28.8745 26.9249 28.9259 26.5192 28.9352ZM24.2303 28.4219C23.9748 28.4089 23.7199 28.3702 23.4671 28.3191C23.4544 28.3135 23.4398 28.3089 23.4284 28.3036C21.4183 27.4127 19.9931 25.469 19.403 23.4013C18.8303 21.3944 19.1949 19.1031 21.2746 18.2029C22.0691 17.8588 22.7968 17.8783 23.4733 18.0998C23.0604 18.0787 22.6376 18.1304 22.2061 18.2739C19.5279 19.1635 19.5895 22.2245 20.8351 24.2984C21.8619 26.0064 23.652 28.3082 25.9548 27.3787C27.8081 26.63 29.0651 24.6469 28.6959 22.7521C28.9201 23.016 29.1273 23.296 29.3098 23.5881C29.3996 24.9303 29.2432 26.0742 28.1609 27.0627C27.1384 27.996 25.593 28.4938 24.2303 28.4219ZM24.336 29.2254C24.4366 29.5194 24.5274 29.8143 24.6045 30.1076C24.4298 29.7554 24.2046 29.4203 23.9587 29.1093C24.0826 29.1526 24.2096 29.1892 24.336 29.2254ZM22.9228 34.0871C22.596 34.3699 22.2745 34.5264 21.9613 34.5886C21.6745 34.2321 21.4738 33.7895 21.3954 33.2505C21.3824 33.156 21.3232 33.1064 21.2548 33.0906C21.6637 33.0844 22.0772 32.9447 22.4721 32.6133C23.7288 31.5579 23.1775 29.7108 22.308 28.5368C22.5031 28.609 22.6983 28.675 22.8962 28.7314C23.5126 29.3831 24.0832 30.0807 24.3279 30.9604C24.6718 32.1929 23.7923 33.3319 22.9228 34.0871ZM24.8418 32.1988C24.7628 33.2025 24.3381 34.1314 23.3243 34.8975C23.1381 35.0381 22.9451 35.1518 22.7509 35.2534C22.6081 35.1732 22.4743 35.0818 22.3489 34.9805C22.5502 34.9157 22.7546 34.8309 22.9659 34.7054C23.8605 34.1723 24.5782 33.2217 24.8418 32.1988ZM20.9943 33.3158C21.0361 33.8145 21.164 34.2383 21.3558 34.5961C20.0628 34.3653 18.9675 32.6684 18.3861 31.5849C18.3765 31.5669 18.3632 31.5545 18.3508 31.5409C18.4041 31.3894 18.4468 31.2321 18.4843 31.0722C19.0394 32.0768 20.0823 33.055 21.168 33.09C21.0717 33.1086 20.9837 33.1891 20.9943 33.3158ZM22.1549 35.5043C20.2109 36.1291 18.0661 35.0688 17.0712 33.2337C17.5624 32.8986 17.9118 32.4807 18.1528 32.0043C18.8854 33.4562 20.117 35.1419 21.7024 35.0963C21.8387 35.2509 21.9905 35.3857 22.1549 35.5043ZM13.3249 30.234C14.4515 30.9189 16.2032 31.22 17.5129 30.6791C16.1654 32.0681 14.1634 31.4467 12.676 30.177C12.8649 30.1581 13.0576 30.1216 13.2509 30.0764C13.2456 30.1364 13.2642 30.1969 13.3249 30.234ZM13.643 29.971C13.9807 29.8639 14.3189 29.7232 14.6522 29.5538C14.6603 29.5609 14.6656 29.5693 14.6748 29.5755C15.7717 30.2734 17.1269 30.1829 18.1838 29.5045C18.1813 29.5965 18.1789 29.6888 18.1733 29.7805C18.1098 29.7654 18.0382 29.774 17.9682 29.823C16.7391 30.6841 14.9713 30.5968 13.643 29.971ZM21.4552 31.5366C23 31.4192 20.9447 28.6546 19.6487 26.9853C20.2267 27.4623 20.8577 27.8746 21.5258 28.1992C21.4902 28.2729 21.4917 28.3606 21.5683 28.4405C22.4257 29.3444 23.1394 30.852 22.3507 32.0083C21.2188 33.6668 19.346 31.7311 18.7086 30.6392C18.6776 30.5862 18.6327 30.5549 18.5853 30.541C18.7299 29.4987 18.6324 28.351 18.5419 27.274C18.747 27.9368 19.018 28.5883 19.2612 29.1743C19.6254 30.0513 20.2852 31.6255 21.4552 31.5366ZM15.5797 21.9337C15.4573 21.5905 15.43 21.2705 15.6326 20.9483C15.8965 20.5283 16.3033 20.9694 16.4495 21.2234C16.4758 21.2689 16.5102 21.2971 16.5477 21.3188C16.5498 21.8863 16.6328 22.4507 16.8106 22.9828C16.9166 23.3 17.0492 23.6117 17.1991 23.9177C16.9256 23.7693 16.6455 23.6367 16.3612 23.519C16.3568 23.4918 16.3479 23.4645 16.3308 23.4376C16.0359 22.9581 15.7695 22.4649 15.5797 21.9337ZM15.7513 23.2941C15.641 23.2579 15.5307 23.2217 15.4192 23.1904C15.4183 23.1644 15.4139 23.1374 15.4025 23.108C15.0825 22.3082 14.6055 21.5843 14.6473 20.6872C14.704 19.454 15.8392 18.9705 16.837 19.442C16.7177 19.8131 16.6378 20.1972 16.591 20.5853C16.0926 20.1157 15.2941 20.2808 15.0596 21.0856C14.9369 21.5062 15.1107 21.956 15.2671 22.3435C15.3966 22.666 15.5586 22.9937 15.7513 23.2941ZM15.0323 18.0793C15.8011 17.6999 16.6022 17.6996 17.2725 18.3631C17.2806 18.3705 17.2889 18.373 17.2967 18.3798C17.1904 18.5691 17.0944 18.7648 17.0101 18.9671C16.5542 18.6725 16.017 18.6208 15.5344 18.7667C15.3817 18.5217 15.2148 18.2912 15.0323 18.0793ZM18.9622 26.9726C20.0538 28.4188 21.962 30.8864 21.3778 31.0561C20.3729 31.3482 19.4523 28.7348 18.9622 26.9726ZM18.1758 28.8627C18.173 28.8646 18.1705 28.8649 18.168 28.8664C17.2167 29.6616 16.1911 29.6734 15.0986 29.3085C16.2367 28.6353 17.2796 27.6596 17.9707 26.656C18.0395 27.3864 18.1414 28.132 18.1758 28.8627ZM22.0168 16.0863C21.8793 16.0619 21.7402 16.0408 21.6017 16.0234C21.4292 16.0015 21.2613 15.9946 21.0949 15.9931C22.041 15.1632 23.3091 14.6289 24.5128 14.4709C25.9613 14.2801 27.687 15.5477 28.2681 16.9958C27.9338 17.098 27.6204 17.2244 27.3577 17.3793C26.9652 15.4169 23.4875 14.3786 22.0168 16.0863ZM26.9113 17.7225C26.7475 17.8864 26.626 18.0676 26.5731 18.2714C25.4099 17.2771 24.0225 16.5435 22.5369 16.1932C23.9395 15.188 26.9367 16.0454 26.9113 17.7225ZM21.9877 16.6337C24.6665 16.9657 27.2753 19.0854 28.5645 21.5657C28.5301 21.5744 28.5007 21.5889 28.4762 21.6087C27.734 20.6739 26.8029 19.63 25.7361 18.924C24.1479 17.6553 22.25 16.6662 20.2939 18.0604C20.0396 18.2416 19.8221 18.4439 19.6301 18.6592C19.7072 17.9266 19.9925 17.2678 20.4249 16.7034C20.9035 16.595 21.4245 16.5637 21.9877 16.6337ZM29.5443 27.4812C29.1924 28.0319 28.6999 28.3996 28.133 28.6282C28.0556 28.4185 27.9667 28.1983 27.8648 28.0158C28.9694 27.2064 29.7168 25.9785 29.8032 24.5886C30.1427 25.5272 30.152 26.5308 29.5443 27.4812ZM29.7949 27.9684C30.0718 28.7438 29.5003 29.4593 28.7281 29.9481C28.6014 29.6783 28.4657 29.4138 28.3368 29.1542C28.3272 29.1356 28.317 29.1074 28.3068 29.0842C28.8938 28.8218 29.4071 28.447 29.7949 27.9684ZM25.3297 20.352C25.9799 21.2361 26.7549 22.0384 27.0588 23.1232C27.6458 25.2252 25.0856 25.438 23.8026 25.0396C22.0664 24.5 20.8258 21.9173 22.2271 20.4453C23.0272 19.6052 24.1845 19.7406 25.2801 20.2117C25.2838 20.2579 25.2956 20.3059 25.3297 20.352ZM25.4099 19.6978C23.5328 18.9327 20.9583 19.6399 21.0949 22.0384C21.2322 24.4582 23.2215 25.9708 25.5849 25.775C26.5216 25.6973 27.4803 24.9154 27.5785 23.9431C27.7093 22.6446 27.0228 21.6902 26.2834 20.7349C26.8937 21.1072 27.4345 21.5288 27.8155 21.8618C27.91 21.9442 28.0035 22.03 28.0962 22.1186C29.0412 24.3814 27.0303 27.2455 24.5308 27.0243C22.8674 26.8778 21.6231 24.6967 20.9333 23.4004C19.5697 20.8396 21.3697 18.0034 24.335 18.8302C24.8542 18.9755 25.3359 19.2285 25.7866 19.547C26.0496 19.7632 26.3079 19.9803 26.5613 20.1842C26.5641 20.1863 26.5675 20.1863 26.57 20.1888C26.6486 20.2622 26.7276 20.3372 26.8045 20.4143C26.3305 20.1234 25.8566 19.8793 25.4099 19.6978ZM28.9269 30.3939C30.0464 29.7421 30.8855 28.675 30.1743 27.562C30.1558 27.5348 30.1347 27.5159 30.1124 27.5004C30.4534 26.9053 30.6309 26.1972 30.5724 25.3903C30.5684 25.3277 30.5587 25.2652 30.5507 25.2032C32.2513 27.194 31.2201 29.9069 29.1757 31.1035C29.1094 30.8631 29.0233 30.6268 28.9269 30.3939ZM27.7917 19.5018C27.5819 19.2481 27.3592 19.0055 27.1247 18.7735C27.2437 18.5474 27.3171 18.3268 27.358 18.1128C27.6244 17.8631 28.0057 17.6893 28.4332 17.5698C28.5509 18.2534 28.3861 18.9398 27.7917 19.5018ZM32.1032 26.4714C31.6785 25.5486 31.0404 24.6862 30.1982 23.9818C30.0371 23.6191 29.8327 23.2663 29.5907 22.9296C29.5223 22.6777 29.4402 22.4312 29.3491 22.1874C31.3489 22.6793 32.5217 24.3538 32.1032 26.4714ZM18.2448 18.0515C18.6342 17.5846 19.1153 17.2015 19.6834 16.9472C19.2949 17.6584 19.101 18.4514 19.1843 19.28C18.2201 20.9428 18.5775 23.1935 19.3581 24.9585C19.7425 25.8274 20.3023 26.6073 20.9788 27.2693C19.6223 26.3921 18.4651 25.1276 17.7799 23.8653C16.7849 22.0331 16.9733 19.8199 18.0416 18.3194C18.1494 18.2804 18.2386 18.1881 18.2448 18.0515ZM17.7455 17.2324C17.7186 17.4102 17.6978 17.589 17.6913 17.7668C17.6547 17.8167 17.6204 17.8684 17.5851 17.9192C16.7961 16.8672 15.6875 16.9908 14.6485 17.6881C14.5726 17.619 14.4949 17.5518 14.4137 17.4899C15.5338 16.8855 16.7471 16.6947 17.7455 17.2324ZM14.5271 18.3866C14.7074 18.5911 14.8669 18.8101 15.0051 19.0256C14.7662 19.1948 14.5615 19.4215 14.4199 19.7025C13.8481 20.8371 14.301 22.0254 14.8938 23.0587C14.1929 22.9119 13.4779 22.8707 12.7661 22.9454C12.7466 22.9206 12.7221 22.8983 12.6874 22.8837C12.5053 22.8094 12.3188 22.7285 12.132 22.6421C12.1029 21.2764 13.205 19.3345 14.5271 18.3866ZM13.8905 17.8083C13.9921 17.8792 14.09 17.957 14.1836 18.0403C12.8934 19.1369 11.8155 21.0233 11.7538 22.4556C11.5051 22.3258 11.2631 22.1827 11.0404 22.0254C11.1966 20.4772 12.4083 18.8039 13.8905 17.8083ZM10.2152 19.0523C10.6997 18.162 11.6426 17.4112 12.6803 17.4013C12.9191 17.3988 13.1465 17.4459 13.3605 17.5267C11.9242 18.543 10.7824 20.098 10.5615 21.6301C9.90918 20.9923 9.61367 20.1584 10.2152 19.0523ZM11.05 22.7629C11.287 22.9023 11.5395 23.0166 11.8028 23.1002C11.8043 23.1067 11.8049 23.1136 11.8065 23.1194C11.598 23.1743 11.3908 23.2353 11.1851 23.3121C11.1191 23.1337 11.0757 22.9506 11.05 22.7629ZM9.46654 27.392C8.71165 25.7834 10.1108 24.3842 11.462 23.7885C13.3426 22.9596 15.4201 23.576 17.1845 24.4049C17.1074 24.4279 17.0303 24.4548 16.9538 24.487C14.4512 23.6971 10.6771 22.5024 9.97021 25.7149C9.72674 26.822 10.7855 27.9468 11.883 27.8671C12.9272 27.7909 13.8097 27.3161 14.669 26.747C15.3796 26.2771 16.1908 25.3953 17.0578 25.0201C17.1089 25.0335 17.1601 25.0443 17.2109 25.0573C15.5958 27.2197 11.1033 30.8842 9.46654 27.392ZM16.3361 24.8188C15.8569 25.127 15.4081 25.5136 15.0227 25.8085C13.9766 26.6086 10.3298 28.6521 10.5284 25.7679C10.6672 23.7603 13.6461 24.0983 14.8966 24.4071C15.3836 24.5273 15.8591 24.6766 16.3361 24.8188ZM12.2643 29.3112C14.3862 29.021 16.6545 26.9815 17.8279 25.1899C17.8796 25.1992 17.9311 25.2113 17.9828 25.2199C18.01 25.2571 18.0388 25.293 18.0667 25.3305C18.0444 25.3699 18.0209 25.4107 17.997 25.4504C17.9555 25.4792 17.9292 25.526 17.9174 25.5851C16.5309 27.8551 13.0402 30.9208 10.7486 29.2056C11.2294 29.3456 11.7504 29.3813 12.2643 29.3112ZM15.6041 33.4314C13.7199 33.9831 12.2135 31.8299 11.3836 30.0661C11.6296 30.1408 11.8864 30.177 12.1488 30.1885C12.1518 30.2257 12.1624 30.2616 12.193 30.2938C13.8128 31.999 16.3695 32.7025 17.9555 30.9936C17.769 31.574 17.4525 32.1211 16.9318 32.6133C16.579 32.9463 16.2364 33.1743 15.904 33.3202C15.7993 33.2768 15.6562 33.3292 15.6041 33.4314ZM23.2614 36.9465C20.3379 38.1977 17.1635 36.5277 16.1087 33.7077C16.1422 33.6962 16.1732 33.6906 16.2072 33.6779C16.3959 33.6073 16.5672 33.5265 16.7292 33.4397C17.9156 35.7567 20.3856 36.7994 22.768 35.8441C23.3051 36.0699 23.9206 36.1681 24.5522 36.1594C24.2006 36.4614 23.775 36.7266 23.2614 36.9465ZM25.0097 35.6991C24.4583 35.7413 23.9079 35.6883 23.4064 35.5334C25.7689 34.194 25.693 31.6679 25.0013 29.389C25.339 29.4537 25.6813 29.4931 26.0251 29.5079C26.1958 31.7488 26.3649 34.0995 25.0097 35.6991ZM28.0738 34.1776C27.5733 34.8349 26.8026 35.2946 25.9604 35.5309C26.0328 35.4101 26.1041 35.2875 26.1648 35.1595C26.6446 34.1463 26.8041 33.1513 26.8206 32.1397C27.516 32.2091 28.1677 32.1171 28.7597 31.9058C28.8309 32.6827 28.6398 33.4348 28.0738 34.1776ZM32.2723 29.2013C32.2538 31.2903 30.7489 32.6824 29.0533 33.6104C29.2943 33.0107 29.3755 32.346 29.29 31.6787C30.9841 30.8117 32.0366 28.9104 31.8672 27.0652C32.1339 27.7231 32.2792 28.4359 32.2723 29.2013ZM32.6713 28.4637C32.6205 28.0053 32.5102 27.5478 32.356 27.0983C33.2605 24.7187 31.8396 21.6118 29.172 21.5291C29.2646 21.3693 29.3516 21.2076 29.4291 21.0434C33.17 21.5248 34.8455 25.3194 32.6713 28.4637ZM31.6023 21.1903C31.4704 20.339 30.8685 19.6049 30.0452 19.3428C30.0117 19.3326 29.9804 19.3311 29.951 19.3326C29.9814 19.1418 30.0058 18.9501 30.0179 18.7589C31.6243 18.3507 32.7227 20.4267 32.5536 21.8863C32.2668 21.6248 31.9486 21.3907 31.6023 21.1903ZM33.5687 23.1417C33.3875 22.8239 33.1688 22.5253 32.9185 22.249C33.4126 20.5732 31.9849 17.6689 30.0322 18.1627C30.025 17.8885 30.003 17.6147 29.9618 17.344C30.4073 17.3223 30.8193 17.3313 31.1225 17.3523C33.967 17.5515 34.1777 21.066 33.5687 23.1417Z" fill="#E7A147"/>
<path fill-rule="evenodd" clip-rule="evenodd" d="M38.8045 20.1782C38.4408 19.7429 37.6695 19.2749 36.7666 18.9072C37.357 16.2142 36.7164 13.2336 34.7956 10.9962C31.8699 7.58887 25.6641 8.69905 22.7995 11.9271C21.6921 10.618 19.8174 10.1301 17.8653 10.2649C17.6119 9.913 17.3087 9.58962 16.9339 9.31238C15.5848 8.31278 13.7746 8.81057 12.421 9.48863C10.4084 10.4963 10.1067 12.6531 10.8892 14.4293C10.708 14.8741 10.5986 15.3437 10.5841 15.8381C8.44177 15.782 6.45218 17.0988 6.05723 19.2631C5.92961 19.9675 6.02192 20.6227 6.26942 21.2053C6.32982 22.0668 6.57887 22.7681 6.96886 23.3284C6.64051 26.4288 6.97537 30.005 10.3025 30.7868C9.6012 35.0244 12.6471 38.6043 16.7269 39.5147C18.0146 39.8021 19.429 39.65 20.6451 39.1002C21.6267 39.3734 22.6588 39.4694 23.5884 39.3641C24.3446 39.2789 25.0236 39.0159 25.6053 38.6247C25.64 38.7077 25.7134 38.7765 25.833 38.7904C29.3206 39.1888 31.8039 37.5074 32.9993 35.0361C33.0454 35.0414 33.0947 35.0392 33.1464 35.0182C35.9448 33.882 37.3353 31.6089 37.431 29.2464C37.4896 29.2464 37.5506 29.2281 37.6063 29.1755C40.2724 26.6602 41.3201 23.1949 38.8045 20.1782ZM34.5502 11.8298C36.0166 13.5093 36.3465 16.0549 36.2722 18.1873C36.2663 18.3651 36.2499 18.537 36.2279 18.7059C35.9624 18.6154 35.6923 18.5343 35.4197 18.467C35.6387 16.4725 34.7438 14.1518 33.1752 13.1104C31.198 11.7973 28.2658 11.6675 25.972 12.6504C25.044 12.3954 24.1036 12.4199 23.2068 12.6553C23.213 12.615 23.2115 12.5729 23.2006 12.5286C25.7946 9.24609 31.7903 8.66653 34.5502 11.8298ZM35.0084 22.5658C35.591 23.1478 35.7558 23.7828 35.7478 24.5071C35.3565 24.043 34.9006 23.6125 34.374 23.2339C34.5989 23.018 34.8039 22.7885 34.9997 22.5515C35.0028 22.5559 35.0044 22.5615 35.0084 22.5658ZM33.826 22.8762C33.7111 22.8068 33.5965 22.7374 33.4757 22.6723C33.3131 22.5844 33.1551 22.6234 33.0445 22.7185C33.0129 22.3812 32.9714 22.0451 32.9122 21.7112C34.1968 21.3292 34.9483 20.391 35.2689 19.2538C35.5371 19.331 35.8038 19.4223 36.0631 19.5221C35.9454 19.9347 35.7791 20.3169 35.5805 20.6809C35.4201 20.7329 35.3544 20.886 35.3717 21.0387C34.9523 21.705 34.417 22.3047 33.826 22.8762ZM25.158 33.3832C25.3327 32.9437 25.5009 32.4955 25.6737 32.0404C26.1935 32.2508 26.7269 32.3864 27.2576 32.4583C27.2086 32.9459 27.1522 33.421 27.1312 33.7931C26.3763 33.7813 25.6459 33.6326 25.158 33.3832ZM27.0965 34.4104C27.0695 34.7471 27.0234 35.0708 26.9537 35.3787C26.1489 35.3363 25.3401 35.1294 24.5865 34.7257C24.7088 34.4621 24.8253 34.1939 24.9384 33.9219C25.4888 34.2072 26.2741 34.3807 27.0965 34.4104ZM25.8339 31.3029C25.7611 31.1604 25.5873 31.0811 25.4176 31.095C25.2931 31.0281 25.1695 30.9588 25.0477 30.8863C25.8014 31.0836 26.5693 31.1428 27.3158 31.0827C27.3294 31.2958 27.3272 31.5368 27.3118 31.7948C26.8118 31.6969 26.3143 31.5265 25.8339 31.3029ZM23.4506 29.3824C23.1591 29.2191 22.8831 29.0274 22.6161 28.8214C22.6046 28.8078 22.591 28.7941 22.5802 28.7811C20.742 26.5797 20.1938 23.4824 20.6947 20.7221C21.1816 18.0417 22.9302 15.5711 25.8838 15.7161C27.0125 15.7712 27.8517 16.2129 28.5161 16.8625C28.0453 16.5998 27.5205 16.417 26.9323 16.3359C23.2852 15.8328 21.5917 19.4511 21.8544 22.5971C22.0706 25.1888 22.8391 28.9153 26.0712 29.1553C28.6728 29.3483 31.2866 27.7512 31.9467 25.3205C32.0567 25.7582 32.1384 26.2055 32.184 26.6528C31.5152 28.2756 30.673 29.5246 28.8355 30.0574C27.1005 30.561 25.0047 30.2528 23.4506 29.3824ZM23.1114 30.3835C23.0587 30.7859 22.9959 31.1836 22.9163 31.5711C22.9147 31.0582 22.845 30.5369 22.736 30.031C22.8571 30.1528 22.9841 30.2686 23.1114 30.3835ZM18.653 35.2595C18.1085 35.4026 17.6413 35.4004 17.2387 35.2926C17.1095 34.71 17.1284 34.0759 17.3483 33.4003C17.3864 33.282 17.3465 33.1896 17.2755 33.1323C17.7584 33.3609 18.3228 33.4362 18.9755 33.2758C21.0552 32.7647 21.4749 30.2847 21.1342 28.4097C21.3207 28.6058 21.5115 28.796 21.7104 28.9763C22.0554 30.0936 22.3221 31.2403 22.1019 32.4115C21.7928 34.0511 20.1077 34.8778 18.653 35.2595ZM21.9879 34.1561C21.3176 35.2855 20.2845 36.1274 18.6564 36.44C18.3572 36.497 18.066 36.5193 17.7795 36.5258C17.659 36.3498 17.5543 36.1655 17.4663 35.9738C17.7395 36.014 18.0282 36.0336 18.3476 36.0082C19.7025 35.9004 21.0902 35.2015 21.9879 34.1561ZM16.8409 33.2454C16.6024 33.8535 16.5079 34.4222 16.5262 34.9516C15.1456 33.9368 14.8414 31.3187 14.786 29.7151C14.785 29.6881 14.7767 29.6661 14.7696 29.6438C14.9195 29.4967 15.0601 29.3365 15.1964 29.1717C15.2667 30.6676 15.9231 32.414 17.1742 33.0812C17.0509 33.0472 16.9013 33.0908 16.8409 33.2454ZM16.9379 36.4759C14.3018 36.0859 12.4024 33.6088 12.2964 30.8869C13.064 30.7782 13.7142 30.4907 14.2715 30.0719C14.2913 32.1938 14.7612 34.8772 16.6436 35.7384C16.7133 35.997 16.8134 36.2423 16.9379 36.4759ZM9.64054 25.2155C10.5642 26.667 12.4417 28.0297 14.286 28.1514C11.9077 29.0008 9.92274 27.1187 8.91323 24.7741C9.14617 24.8617 9.39243 24.9299 9.64426 24.9881C9.60337 25.0553 9.59067 25.1371 9.64054 25.2155ZM10.1643 25.0907C10.6216 25.1603 11.0986 25.1904 11.5861 25.1842C11.5914 25.1975 11.5927 25.2102 11.6001 25.2229C12.482 26.672 14.12 27.3479 15.7484 27.1633C15.6926 27.2698 15.6369 27.3767 15.5771 27.4801C15.5108 27.4259 15.4222 27.3953 15.3126 27.412C13.3775 27.7112 11.3582 26.5896 10.1643 25.0907ZM18.4071 31.4284C20.2824 32.1817 19.4708 27.7602 18.9166 25.0587C19.3184 25.9505 19.8193 26.7974 20.4128 27.5619C20.3298 27.6282 20.2808 27.7323 20.3233 27.8695C20.8062 29.4223 20.7727 31.599 19.1824 32.4976C16.9007 33.7866 15.8246 30.4402 15.7088 28.7945C15.7032 28.7142 15.6685 28.652 15.6211 28.6086C16.3912 27.4718 16.9391 26.072 17.4542 24.7589C17.3114 25.6532 17.2535 26.5722 17.2006 27.3984C17.1209 28.634 16.9859 30.8575 18.4071 31.4284ZM17.0661 16.7993C17.1206 16.3272 17.2734 15.9366 17.6962 15.6764C18.2469 15.3366 18.4684 16.0881 18.4935 16.4697C18.4978 16.5379 18.5223 16.5908 18.553 16.6376C18.2283 17.3039 18.0004 18.012 17.9019 18.7378C17.8433 19.1702 17.8179 19.6113 17.8173 20.0561C17.5825 19.7247 17.3313 19.4075 17.0661 19.1058C17.0767 19.0714 17.0819 19.0342 17.0779 18.9927C17.0094 18.262 16.9819 17.5309 17.0661 16.7993ZM16.4822 18.4915C16.3741 18.3856 16.2663 18.279 16.1536 18.178C16.1678 18.1471 16.178 18.1127 16.1814 18.0718C16.2685 16.9514 16.1272 15.8285 16.6929 14.8026C17.4704 13.3916 19.078 13.4799 19.9745 14.6077C19.6207 14.9733 19.3054 15.3772 19.0269 15.8043C18.714 14.9674 17.685 14.7 16.9459 15.507C16.56 15.9286 16.5036 16.5555 16.463 17.0991C16.4293 17.5514 16.4302 18.0278 16.4822 18.4915ZM18.6478 11.9723C19.7663 11.9711 20.7049 12.4329 21.106 13.5954C21.111 13.6088 21.1193 13.6165 21.1249 13.6286C20.892 13.7893 20.6665 13.9631 20.4509 14.1511C20.0875 13.5437 19.4888 13.1729 18.8401 13.0657C18.8017 12.6916 18.7394 12.3251 18.6478 11.9723ZM18.1202 24.648C18.5641 26.9706 19.3741 30.9588 18.5929 30.8209C17.2486 30.5839 17.677 26.9938 18.1202 24.648ZM16.109 26.4068C16.1049 26.4074 16.1021 26.4065 16.0981 26.4071C14.5255 26.7891 13.3186 26.2117 12.2503 25.1545C13.9707 25.0231 15.754 24.4817 17.1417 23.706C16.8013 24.6009 16.4906 25.5324 16.109 26.4068ZM27.9725 13.667C27.8253 13.5592 27.676 13.4545 27.5233 13.3544C27.3338 13.2293 27.1411 13.124 26.9478 13.0264C28.5341 12.6014 30.3257 12.7064 31.8262 13.2151C33.6321 13.8274 34.921 16.3058 34.7661 18.3357C34.3154 18.2629 33.8768 18.2307 33.4791 18.2601C34.1506 15.7371 30.6789 12.5159 27.9725 13.667ZM32.7586 18.4039C32.4727 18.5011 32.2261 18.6436 32.0452 18.8511C31.2569 17.0164 30.0562 15.3583 28.5198 14.0914C30.7414 13.7237 33.7554 16.4551 32.7586 18.4039ZM27.6224 14.2905C30.5673 16.2247 32.3993 20.2094 32.4783 23.8559C32.4327 23.8463 32.3897 23.8463 32.3497 23.8559C32.0201 22.3335 31.5307 20.5743 30.6903 19.133C29.5625 16.7315 27.9115 14.4798 24.8179 14.9841C24.4149 15.0495 24.0438 15.161 23.6953 15.3022C24.2073 14.4891 24.922 13.8823 25.7543 13.4706C26.3763 13.6199 27.0032 13.8841 27.6224 14.2905ZM30.2139 31.3456C29.4844 31.7871 28.6955 31.9333 27.9 31.8741C27.93 31.5839 27.9536 31.2744 27.939 31.0024C29.6994 30.6924 31.282 29.6856 32.1837 28.1086C32.0406 29.4034 31.4725 30.583 30.2139 31.3456ZM30.226 32.0603C30.1027 33.1274 29.0207 33.6354 27.8362 33.7621C27.8427 33.373 27.8368 32.9858 27.8356 32.607C27.8356 32.58 27.839 32.5407 27.8405 32.5085C28.679 32.5395 29.4959 32.397 30.226 32.0603ZM29.3903 20.57C29.6424 21.9797 30.0875 23.3662 29.8171 24.8109C29.2927 27.6099 26.1721 26.3827 24.9006 25.1761C23.1792 23.5437 23.2158 19.8049 25.7066 18.8905C27.1271 18.3685 28.404 19.1937 29.415 20.377C29.3918 20.4337 29.3772 20.496 29.3903 20.57ZM29.862 19.8501C28.106 17.8726 24.685 17.2153 23.4611 20.1026C22.2277 23.014 23.6842 25.9317 26.5628 27.0651C27.7045 27.5142 29.2778 27.1521 29.9528 26.071C30.8545 24.6257 30.6014 23.1134 30.2864 21.5677C30.7863 22.3555 31.1766 23.1615 31.4297 23.7708C31.4932 23.9213 31.5527 24.0759 31.6106 24.2332C31.4124 27.4269 27.4069 29.6197 24.6094 27.9203C22.7462 26.7891 22.5473 23.5186 22.4869 21.6031C22.3674 17.82 26.1099 15.5373 29.1043 18.2155C29.6281 18.6848 30.046 19.2591 30.3898 19.8913C30.5735 20.2965 30.7501 20.6992 30.9304 21.0842C30.9316 21.0885 30.935 21.0901 30.9369 21.0941C30.9864 21.2264 31.0354 21.3593 31.0812 21.4937C30.694 20.8804 30.2796 20.321 29.862 19.8501ZM27.8105 34.399C29.4977 34.2816 31.0952 33.5168 30.9034 31.8035C30.8985 31.7617 30.8842 31.727 30.8672 31.6957C31.6094 31.1957 32.2261 30.469 32.6226 29.4908C32.6533 29.4149 32.6784 29.3365 32.705 29.2594C33.5479 32.5704 30.7755 35.1514 27.6921 35.3728C27.7544 35.0532 27.7897 34.727 27.8105 34.399ZM32.7626 20.9941C32.6644 20.5762 32.5427 20.1639 32.4021 19.7578C32.6722 19.5614 32.8853 19.3458 33.0563 19.1188C33.5116 18.9797 34.0574 18.9961 34.6271 19.1024C34.3724 19.9715 33.7839 20.6797 32.7626 20.9941ZM33.7913 31.6396C33.826 30.3141 33.576 28.9363 32.9965 27.627C33.0169 27.1087 32.9816 26.5784 32.8921 26.0441C32.9578 25.7105 33.003 25.3741 33.0374 25.0364C35.0948 26.7652 35.5015 29.4019 33.7913 31.6396ZM22.425 13.7921C23.1492 13.4703 23.9335 13.2987 24.7448 13.3287C23.8796 13.9371 23.1953 14.7539 22.815 15.7709C20.7281 17.1623 19.8487 20.0025 19.7446 22.519C19.6932 23.7574 19.8986 24.9934 20.3087 26.1578C19.227 24.3488 18.601 22.2018 18.5266 20.3293C18.4182 17.6106 19.9162 15.1288 22.0316 13.9888C22.1806 14.0046 22.3379 13.9483 22.425 13.7921ZM22.3119 12.545C22.1775 12.738 22.0508 12.935 21.9405 13.1398C21.8686 13.1766 21.7986 13.2172 21.7286 13.2566C21.4105 11.5705 20.0423 11.0758 18.4241 11.293C18.3746 11.1685 18.3225 11.0452 18.2637 10.9253C19.9227 10.864 21.4536 11.3401 22.3119 12.545ZM17.8799 12.0407C17.9725 12.384 18.0335 12.7321 18.0707 13.0642C17.6931 13.124 17.3229 13.2717 16.9949 13.5189C15.6713 14.5173 15.5164 16.1695 15.6149 17.7205C14.8792 17.1447 14.0664 16.6838 13.1898 16.3607C13.1814 16.3207 13.1659 16.2804 13.1328 16.2436C12.9624 16.0518 12.7905 15.8496 12.6223 15.6408C13.3753 14.0251 15.7856 12.3877 17.8799 12.0407ZM17.4669 10.9965C17.5456 11.1381 17.6153 11.2856 17.677 11.4373C15.5344 11.9766 13.1845 13.5632 12.2868 15.2046C12.0703 14.9085 11.8699 14.6025 11.6998 14.2899C12.775 12.567 15.1589 11.3072 17.4669 10.9965ZM12.4482 10.3333C13.528 9.57072 15.0651 9.23587 16.2855 9.82225C16.5665 9.9573 16.8056 10.1435 17.0104 10.3615C14.7426 10.723 12.5089 11.8849 11.3671 13.5508C10.9713 12.4283 11.1057 11.2809 12.4482 10.3333ZM11.2857 15.1582C11.4827 15.4574 11.7128 15.7371 11.9724 15.9874C11.9706 15.9952 11.9668 16.0038 11.9653 16.0119C11.6902 15.9558 11.4121 15.9075 11.1274 15.8787C11.1528 15.6324 11.2079 15.3927 11.2857 15.1582ZM6.76287 19.6636C6.80747 17.3451 9.25179 16.5143 11.1766 16.5967C13.8558 16.7107 15.9324 18.6306 17.5202 20.6174C17.4162 20.5997 17.3102 20.587 17.2027 20.5802C14.7287 18.2124 10.9995 14.6381 8.31942 17.9909C7.39602 19.146 7.98704 21.0734 9.31777 21.6127C10.5838 22.1256 11.891 22.0785 13.2242 21.9085C14.3272 21.7675 15.7856 21.2035 17.0166 21.2645C17.0683 21.3094 17.1225 21.3515 17.1742 21.3958C14.037 22.9967 6.66591 24.6951 6.76287 19.6636ZM16.2877 20.6131C15.5492 20.6973 14.8005 20.8906 14.1795 21.0142C12.4941 21.3481 7.04661 21.6371 8.94203 18.375C10.2622 16.1048 13.5547 18.218 14.8399 19.3006C15.3404 19.7222 15.8119 20.1713 16.2877 20.6131ZM8.93057 23.5239C11.5821 24.4073 15.4132 23.3278 17.8195 21.9076C17.8749 21.9484 17.9279 21.9918 17.9836 22.0318C17.9935 22.0909 18.0072 22.1504 18.018 22.2102C17.9697 22.2436 17.9177 22.2774 17.8675 22.3109C17.8024 22.3205 17.7448 22.3595 17.6968 22.4224C14.7649 24.28 8.91168 25.8558 7.21791 22.5265C7.69959 22.9669 8.28937 23.3098 8.93057 23.5239ZM10.4651 30.2723C7.9412 29.8312 7.41925 26.4421 7.46479 23.899C7.7095 24.1285 7.9889 24.3187 8.28937 24.4835C8.2714 24.5284 8.26335 24.5774 8.28039 24.6319C9.19356 27.5625 11.7804 29.86 14.6224 28.7743C14.0692 29.3468 13.3834 29.8043 12.4903 30.0797C11.8854 30.2661 11.3529 30.3358 10.8796 30.3148C10.782 30.2039 10.5847 30.1822 10.4651 30.2723ZM17.4007 38.8025C13.2576 38.581 10.5045 34.7961 10.8963 30.8869C10.9415 30.8928 10.9818 30.9039 11.0286 30.9086C11.2906 30.9349 11.5375 30.9389 11.7773 30.9309C11.8293 34.3274 14.12 36.9718 17.4592 37.2283C17.9579 37.8023 18.6208 38.2713 19.3661 38.6259C18.7797 38.7756 18.1292 38.8412 17.4007 38.8025ZM20.1671 38.3499C19.4971 38.0817 18.8832 37.7022 18.386 37.2323C21.9244 37.027 23.2911 34.0254 23.7963 30.9588C24.1531 31.2298 24.5307 31.4726 24.9257 31.6885C23.8328 34.4104 22.6759 37.2593 20.1671 38.3499ZM24.6305 38.3363C23.6659 38.8168 22.4984 38.9106 21.3761 38.7012C21.531 38.6021 21.6853 38.4993 21.8296 38.385C22.9754 37.4752 23.7365 36.4028 24.3393 35.2279C25.1125 35.7102 25.9293 35.9784 26.744 36.0726C26.3791 37.0229 25.7221 37.793 24.6305 38.3363ZM32.4154 34.9321C31.189 37.3668 28.6242 38.1279 26.1052 38.2369C26.7331 37.675 27.2114 36.9424 27.4954 36.1122C29.9791 36.0744 32.3063 34.4556 33.173 32.1984C33.1052 33.1221 32.8648 34.0399 32.4154 34.9321ZM33.3072 34.2983C33.5113 33.7323 33.6473 33.1336 33.7253 32.5184C36.1554 30.2544 36.2846 25.7988 33.2099 24.1635C33.41 24.0297 33.6045 23.8903 33.7907 23.7429C37.8929 26.4641 37.6658 31.8719 33.3072 34.2983ZM36.2505 25.1678C36.5875 24.0963 36.3053 22.8892 35.4928 22.108C35.4594 22.0764 35.4241 22.0572 35.3888 22.0417C35.5334 21.8354 35.6722 21.6257 35.7976 21.4085C37.913 21.8571 38.0019 24.9206 36.9617 26.5317C36.7774 26.0608 36.5408 25.6027 36.2505 25.1678ZM37.4264 28.5869C37.3973 28.1102 37.3127 27.6341 37.1798 27.1664C38.7243 25.4899 38.728 21.2673 36.1579 20.7199C36.3078 20.3944 36.4389 20.0611 36.5479 19.7206C37.0816 19.952 37.5577 20.2001 37.9009 20.3996C41.1159 22.2724 39.3364 26.5081 37.4264 28.5869Z" fill="url(#paint2_linear_2562_8336)"/>
<path fill-rule="evenodd" clip-rule="evenodd" d="M21.2093 14.1024C13.6328 14.0271 7.52684 27.7058 9.04869 27.8495C10.4401 27.9809 11.7566 27.3102 13.0313 25.7407C14.3056 24.1708 16.2958 24.9573 17.0644 25.0199C17.8329 25.0828 18.7086 24.9477 19.8163 24.0355C20.9243 23.1238 20.3317 22.7561 20.8224 21.7881C21.8223 19.8156 24.9815 19.0282 25.7953 18.6515C26.6087 18.2748 29.5908 18.2993 30.477 18.7169C31.3632 19.1341 31.3161 21.8482 32.7667 20.9939C34.218 20.1399 33.7152 19.8147 33.0604 19.1186C32.4062 18.4226 34.4463 18.5016 33.4659 17.4952C33.1189 17.1389 33.4123 13.7911 31.6739 13.0922C29.9355 12.3943 23.7821 14.1281 21.2093 14.1024Z" fill="#FAF6BB"/>
<path fill-rule="evenodd" clip-rule="evenodd" d="M33.8187 20.18C33.1629 19.4836 34.0398 18.8818 33.0582 17.8744C32.7116 17.5179 33.4321 15.327 31.6925 14.6275C31.5131 14.5557 31.2845 14.5107 31.02 14.486C31.5503 15.1721 31.0949 15.7721 31.7349 16.2714C32.4889 16.8597 32.5393 17.2023 31.2349 18.2688C29.9305 19.3356 29.4024 17.1322 28.4614 16.8547C27.5209 16.5772 24.5674 17.009 23.8202 17.5064C23.0728 18.0033 20.0687 19.2649 19.3813 21.3692C19.0434 22.4022 19.6861 22.6745 18.7296 23.7459C17.7734 24.8174 16.9971 24.394 16.2277 24.4491C15.4582 24.5049 13.0461 24.2862 12.0261 26.0335C11.099 27.6201 8.84452 28.4274 8.77142 26.9969C8.76399 26.8432 8.62088 28.1625 8.73084 28.173C10.1235 28.3053 11.5741 28.3893 12.85 26.8178C14.1259 25.247 16.4758 25.8312 17.2449 25.8941C18.0141 25.957 18.7163 26.4938 19.8252 25.5816C20.9339 24.6687 20.3407 24.301 20.8323 23.3318C21.8328 21.3577 24.9945 20.57 25.8092 20.1927C26.6232 19.8157 29.6084 19.8396 30.4949 20.258C31.3827 20.6762 31.5682 22.9341 33.0201 22.0788C34.4713 21.2226 34.4732 20.8769 33.8187 20.18Z" fill="#F9E29C"/>
<path fill-rule="evenodd" clip-rule="evenodd" d="M13.7771 20.0336C13.7771 20.0336 11.7785 20.8433 12.5703 21.7642C13.362 22.6855 13.8354 21.9981 14.449 21.5418C15.0629 21.0859 16.3574 20.8402 16.5746 20.133C16.7923 19.4262 18.6385 19.1263 19.1722 18.8042C19.7056 18.4811 20.0544 16.5098 19.2521 16.2273C18.4499 15.9448 17.4939 15.8066 16.4284 16.8109C15.3625 17.8151 15.6134 17.8966 15.8844 18.0375C16.1548 18.1785 15.7323 18.5124 15.3705 18.7692C15.0087 19.026 13.7771 20.0336 13.7771 20.0336Z" fill="#F9E29C"/>
<path fill-rule="evenodd" clip-rule="evenodd" d="M11.6425 24.1854C11.6425 24.414 11.443 24.5989 11.1974 24.5989C10.9514 24.5989 10.752 24.414 10.752 24.1854C10.752 23.9574 10.9511 23.7725 11.1974 23.7725C11.443 23.7725 11.6425 23.9574 11.6425 24.1854Z" fill="#F9E29C"/>
<path fill-rule="evenodd" clip-rule="evenodd" d="M17.6976 22.0934C17.6976 22.275 17.4024 22.4224 17.0384 22.4224C16.6741 22.4224 16.3789 22.275 16.3789 22.0934C16.3789 21.9119 16.6741 21.7642 17.0384 21.7642C17.4024 21.7642 17.6976 21.9116 17.6976 22.0934Z" fill="#F9E29C"/>
<path fill-rule="evenodd" clip-rule="evenodd" d="M28.6955 14.1828C28.6955 14.408 28.351 14.5904 27.926 14.5904C27.501 14.5904 27.1562 14.408 27.1562 14.1828C27.1562 13.9582 27.501 13.7758 27.926 13.7758C28.351 13.7758 28.6955 13.9582 28.6955 14.1828Z" fill="#F9E29C"/>
<path fill-rule="evenodd" clip-rule="evenodd" d="M13.9375 14.6419C14.1401 14.6729 16.6293 16.7873 16.6293 16.7873L15.3277 17.6413L17.2058 18.0288L16.3589 19.0504C16.3589 19.0504 17.2981 19.179 18.4362 18.6515C19.5745 18.1236 20.1944 17.8362 20.3489 16.9472C20.5032 16.0603 19.4949 13.8873 19.4949 13.8873L18.924 15.0948L17.7194 13.5813L17.4455 15.0245L13.9375 14.6419Z" fill="url(#paint3_linear_2562_8336)"/>
<path fill-rule="evenodd" clip-rule="evenodd" d="M19.1114 7.99988C19.24 8.16126 19.6362 11.4029 19.6362 11.4029L18.101 11.1489L19.2174 12.7055L17.9043 12.8814C17.9043 12.8814 18.5086 13.6149 19.7028 13.9968C20.8957 14.3816 21.5486 14.5897 22.2636 14.0408C22.9779 13.4926 23.7089 11.2133 23.7089 11.2133L22.4711 11.713L22.6117 9.78162L21.4303 10.6595L19.1114 7.99988Z" fill="url(#paint4_linear_2562_8336)"/>
<path fill-rule="evenodd" clip-rule="evenodd" d="M20.7733 11.9756C20.7733 11.9756 20.7814 11.3914 20.6786 12.2557C20.629 12.6766 21.5828 14.7498 21.3907 16.6375C21.1906 18.6188 20.1424 20.5098 20.1194 20.81C20.0779 21.3948 20.1572 21.686 20.1572 21.686L20.3335 21.3239C21.8823 16.9724 21.5964 16.8079 21.5948 15.9071C21.593 15.0912 20.7733 11.9756 20.7733 11.9756Z" fill="#85C04D"/>
<path fill-rule="evenodd" clip-rule="evenodd" d="M19.1602 16.3992C19.1602 16.3992 19.4767 16.5952 19.8258 17.0283C20.174 17.4592 21.0342 19.2552 21.0342 19.2552L20.7876 19.5584C20.7876 19.5584 20.7015 18.8184 20.4754 18.429C20.249 18.0393 19.1602 16.3992 19.1602 16.3992Z" fill="#85C04D"/>
<path fill-rule="evenodd" clip-rule="evenodd" d="M28.6954 19.2959C28.4974 19.2435 25.3692 20.1768 25.3692 20.1768L26.2151 21.4831L24.342 21.0829L24.7057 22.3566C24.7057 22.3566 23.7934 22.098 22.9642 21.1566C22.1328 20.2156 21.6811 19.7026 21.8977 18.8278C22.1142 17.9521 23.9114 16.3687 23.9114 16.3687L23.9477 17.7047L25.6619 16.8014L25.3289 18.2353L28.6954 19.2959Z" fill="url(#paint5_linear_2562_8336)"/>
<path fill-rule="evenodd" clip-rule="evenodd" d="M23.2074 18.8041C23.2074 18.8041 22.8375 18.8564 22.3438 19.1098C21.8506 19.366 20.3418 20.6648 20.3418 20.6648L20.4459 21.0384C20.4459 21.0384 20.8222 20.3984 21.1859 20.1333C21.5492 19.8669 23.2074 18.8041 23.2074 18.8041Z" fill="#85C04D"/>
<path fill-rule="evenodd" clip-rule="evenodd" d="M21.6328 23.074L22.2173 23.8769L23.3854 23.4755L22.5094 22.7091L21.6328 23.074Z" fill="#559141"/>
<path fill-rule="evenodd" clip-rule="evenodd" d="M11.8496 11.2267L12.4335 12.0296L13.6016 11.6281L12.7256 10.8615L11.8496 11.2267Z" fill="#559141"/>
<path fill-rule="evenodd" clip-rule="evenodd" d="M21.7676 30.4211L22.2626 31.1014L23.2523 30.7616L22.5098 30.1117L21.7676 30.4211Z" fill="#559141"/>
<path fill-rule="evenodd" clip-rule="evenodd" d="M25.8105 11.2599L26.3059 11.9405L27.2955 11.6004L26.553 10.9508L25.8105 11.2599Z" fill="#559141"/>
<path fill-rule="evenodd" clip-rule="evenodd" d="M35.334 23.6623L35.8287 24.3425L36.819 24.0027L36.0762 23.3531L35.334 23.6623Z" fill="#559141"/>
<path fill-rule="evenodd" clip-rule="evenodd" d="M29.877 30.7962L30.4609 31.5997L31.6296 31.1982L30.7539 30.4313L29.877 30.7962Z" fill="#559141"/>
<path fill-rule="evenodd" clip-rule="evenodd" d="M11.4709 29.1211L10.8867 28.172H11.8355L12.3472 29.1211H11.4709Z" fill="#559141"/>
<path fill-rule="evenodd" clip-rule="evenodd" d="M23.5254 27.8587V26.397L24.5888 26.7436L24.0563 28.1722L23.5254 27.8587Z" fill="#559141"/>
<path fill-rule="evenodd" clip-rule="evenodd" d="M22.1178 36.3499L20.8691 35.5898L21.7188 34.8612L22.6623 36.0591L22.1178 36.3499Z" fill="#559141"/>
<path opacity="0.3" fill-rule="evenodd" clip-rule="evenodd" d="M29.7954 24.8781C29.5544 24.5997 29.3416 24.0535 29.5404 23.8813C30.12 23.3786 30.0902 24.2936 30.4183 24.3379C30.6819 24.3732 31.4219 23.7924 31.4408 23.527C31.5548 21.9323 28.6152 21.0043 26.7606 22.6122C24.8637 24.2577 25.4144 27.2568 27.0091 27.3705C27.2609 27.3878 27.8817 26.7878 27.8841 26.5357C27.8872 26.2042 27.0707 26.1243 27.7367 25.5463C27.9201 25.3877 28.4092 25.6423 28.6368 25.8827C28.9667 26.2296 29.7421 27.5371 29.7421 27.5371C30.0958 27.9451 30.7135 27.9894 31.1214 27.6353C31.5291 27.2822 31.7202 26.8631 31.2193 26.2563C31.2193 26.2563 29.8675 24.9611 29.7954 24.8781Z" fill="#C56F2C"/>
<path fill-rule="evenodd" clip-rule="evenodd" d="M29.6846 24.812C29.4703 24.5719 29.2776 24.0977 29.4486 23.9444C29.9482 23.4977 29.9346 24.2981 30.2217 24.3322C30.4525 24.3591 31.0922 23.8421 31.1046 23.6101C31.1832 22.215 28.602 21.4427 27.003 22.8717C25.3669 24.334 25.8866 26.9484 27.2821 27.0268C27.5017 27.0398 28.0376 26.5064 28.0358 26.2858C28.0342 25.9965 27.3196 25.9377 27.8942 25.4238C28.0534 25.2819 28.4837 25.4981 28.6853 25.7053C28.9784 26.0043 29.6732 27.1374 29.6732 27.1374C29.9876 27.4893 30.5278 27.5193 30.8797 27.2052C31.2322 26.8902 31.3933 26.5212 30.9478 25.9984C30.9472 25.9984 29.7487 24.8832 29.6846 24.812Z" fill="url(#paint6_linear_2562_8336)"/>
<path opacity="0.3" fill-rule="evenodd" clip-rule="evenodd" d="M17.3295 32.4658C17.0712 32.1322 16.8627 31.4944 17.1006 31.3104C17.7951 30.7721 17.7034 31.8166 18.0754 31.8875C18.3743 31.9445 19.2568 31.3269 19.2956 31.0251C19.5257 29.209 16.2234 27.9629 14.0024 29.6845C11.7294 31.4464 12.1708 34.9102 13.9866 35.1403C14.2725 35.1762 15.0206 34.5292 15.0391 34.2414C15.0633 33.8629 14.135 33.7197 14.9332 33.1008C15.1531 32.9305 15.6958 33.2529 15.9412 33.542C16.2968 33.9595 17.1006 35.503 17.1006 35.503C17.4794 35.9918 18.1829 36.0811 18.6714 35.7022C19.1599 35.3237 19.4043 34.8569 18.8709 34.1314C18.8715 34.1314 17.4073 32.5653 17.3295 32.4658Z" fill="#C56F2C"/>
<path fill-rule="evenodd" clip-rule="evenodd" d="M16.9364 32.0914C16.6595 31.7268 16.4411 31.0326 16.7013 30.835C17.4605 30.2598 17.349 31.391 17.7526 31.4728C18.0763 31.5382 19.0409 30.8784 19.0864 30.5513C19.3572 28.584 15.7887 27.1935 13.3596 29.035C10.8734 30.9196 11.3114 34.6829 13.279 34.9533C13.5894 34.9963 14.4081 34.3025 14.4317 33.9902C14.462 33.5801 13.4565 33.4144 14.3301 32.7527C14.5707 32.5697 15.1559 32.9259 15.4182 33.2425C15.7986 33.7 16.6536 35.3842 16.6536 35.3842C17.0587 35.9185 17.8204 36.0235 18.3554 35.618C18.89 35.2129 19.1605 34.7089 18.5896 33.9162C18.5893 33.9168 17.0191 32.2004 16.9364 32.0914Z" fill="url(#paint7_radial_2562_8336)"/>
<path opacity="0.3" fill-rule="evenodd" clip-rule="evenodd" d="M17.04 32.0917C16.7947 31.7454 16.6125 31.0949 16.86 30.9199C17.5811 30.4091 17.4439 31.4551 17.815 31.5428C18.1133 31.6131 19.0274 31.0305 19.0791 30.7288C19.3898 28.9129 16.1234 27.5169 13.816 29.1511C11.4544 30.8242 11.7474 34.3254 13.5632 34.6358C13.8495 34.6844 14.6294 34.0664 14.6607 33.7774C14.7016 33.3977 13.7748 33.2137 14.6037 32.6264C14.832 32.465 15.3639 32.8119 15.5977 33.1136C15.9369 33.5485 16.6785 35.1357 16.6785 35.1357C17.0381 35.6431 17.7413 35.7633 18.249 35.4037C18.757 35.0443 19.0228 34.5856 18.5172 33.8335C18.5172 33.8335 17.1137 32.1952 17.04 32.0917Z" fill="#C56F2C"/>
<path opacity="0.3" fill-rule="evenodd" clip-rule="evenodd" d="M26.9487 34.4624C27.0417 34.1635 27.3406 33.7645 27.5537 33.8308C28.1769 34.0232 27.5035 34.4128 27.6188 34.6696C27.7117 34.8753 28.4635 35.1485 28.663 35.0432C29.8648 34.4088 29.2137 31.8703 27.221 31.2551C25.1816 30.6251 23.2651 32.3697 23.8985 33.5715C23.9986 33.7608 24.7107 33.9398 24.8941 33.828C25.1345 33.6815 24.8253 33.0561 25.5418 33.2776C25.7391 33.3386 25.7748 33.8057 25.7035 34.0783C25.6013 34.4717 25.0059 35.6187 25.0059 35.6187C24.8699 36.0577 25.1159 36.5229 25.5545 36.6586C25.9928 36.7943 26.3806 36.7432 26.5935 36.1097C26.5941 36.1094 26.9218 34.5519 26.9487 34.4624Z" fill="#C56F2C"/>
<path fill-rule="evenodd" clip-rule="evenodd" d="M27.0066 34.0632C27.111 33.7398 27.439 33.3108 27.6701 33.3845C28.3435 33.601 27.6082 34.0155 27.7311 34.2949C27.829 34.5197 28.6409 34.8246 28.8596 34.713C30.1705 34.0384 29.494 31.2772 27.3393 30.5861C25.1338 29.8786 23.0339 31.7492 23.7083 33.0605C23.8139 33.2674 24.5846 33.4687 24.7847 33.3501C25.0471 33.194 24.7193 32.5122 25.4937 32.7606C25.7075 32.8291 25.7403 33.3365 25.6601 33.6307C25.5439 34.0573 24.8851 35.2948 24.8851 35.2948C24.733 35.7687 24.9935 36.2764 25.468 36.4282C25.9423 36.5803 26.3642 36.5304 26.6024 35.8455C26.6024 35.8455 26.9759 34.1598 27.0066 34.0632Z" fill="url(#paint8_radial_2562_8336)"/>
<path opacity="0.3" fill-rule="evenodd" clip-rule="evenodd" d="M27.0512 34.1263C27.1575 33.8295 27.4747 33.4417 27.6868 33.5173C28.3048 33.7378 27.6103 34.1006 27.7153 34.3636C27.7996 34.5745 28.5436 34.8818 28.7493 34.7845C29.9846 34.1988 29.441 31.6188 27.4641 30.9131C25.4408 30.1914 23.4379 31.8619 24.0233 33.0973C24.1159 33.2924 24.8243 33.503 25.0133 33.3987C25.2614 33.2617 24.9774 32.6196 25.6883 32.8736C25.884 32.9436 25.8995 33.4151 25.8162 33.6852C25.6963 34.0767 25.0474 35.2039 25.0474 35.2039C24.8925 35.6395 25.1186 36.1177 25.5541 36.2729C25.989 36.4281 26.3812 36.394 26.6231 35.7665C26.6231 35.7665 27.0199 34.2152 27.0512 34.1263Z" fill="#C56F2C"/>
<path opacity="0.3" fill-rule="evenodd" clip-rule="evenodd" d="M11.1642 19.2575C11.425 19.0732 11.9144 18.9369 12.0458 19.1224C12.4299 19.6651 11.6431 19.5614 11.5768 19.8405C11.5241 20.0647 11.9621 20.7521 12.1892 20.7917C13.5546 21.0259 14.6056 18.5695 13.3768 16.8336C12.1201 15.0565 9.48684 15.2761 9.25266 16.6413C9.21611 16.8572 9.68044 17.4435 9.89789 17.4671C10.1832 17.4977 10.322 16.8008 10.7634 17.4249C10.8851 17.5969 10.6237 17.9968 10.3969 18.1724C10.0695 18.4273 8.87537 18.9846 8.87537 18.9846C8.49375 19.255 8.40299 19.7838 8.6731 20.1657C8.94321 20.5476 9.28828 20.7477 9.85421 20.3683C9.85421 20.3683 11.0864 19.3129 11.1642 19.2575Z" fill="#C56F2C"/>
<path fill-rule="evenodd" clip-rule="evenodd" d="M11.4592 18.971C11.7442 18.774 12.276 18.6315 12.4166 18.8348C12.8268 19.4279 11.9746 19.3062 11.8997 19.6085C11.8399 19.8511 12.3067 20.6026 12.5523 20.6475C14.0311 20.917 15.2002 18.2651 13.888 16.3672C12.5449 14.425 9.68549 14.6319 9.41569 16.111C9.37294 16.344 9.87073 16.9864 10.1058 17.014C10.415 17.0508 10.5736 16.2963 11.0457 16.978C11.1754 17.1661 10.8867 17.5969 10.6389 17.7847C10.2805 18.0572 8.97893 18.6483 8.97893 18.6483C8.56106 18.9367 8.45636 19.5094 8.74537 19.927C9.03469 20.3448 9.4064 20.566 10.0247 20.1602C10.0247 20.1602 11.374 19.0299 11.4592 18.971Z" fill="url(#paint9_radial_2562_8336)"/>
<path opacity="0.3" fill-rule="evenodd" clip-rule="evenodd" d="M11.4556 19.0494C11.7257 18.8753 12.2234 18.7595 12.3474 18.9521C12.7098 19.5141 11.9236 19.3759 11.8449 19.6534C11.7823 19.8768 12.1925 20.5874 12.4189 20.6363C13.7819 20.9312 14.9453 18.5073 13.7856 16.7085C12.5989 14.8676 9.94175 14.9739 9.64748 16.3362C9.60071 16.5509 10.0421 17.1614 10.2602 17.1946C10.5458 17.2379 10.7155 16.5434 11.1325 17.1893C11.2462 17.3671 10.9668 17.758 10.7313 17.925C10.3909 18.1669 9.16611 18.6758 9.16611 18.6758C8.77024 18.9308 8.65625 19.4583 8.9118 19.8542C9.16673 20.2497 9.50437 20.4659 10.0904 20.1091C10.0904 20.1091 11.375 19.1018 11.4556 19.0494Z" fill="#C56F2C"/>
<path opacity="0.3" fill-rule="evenodd" clip-rule="evenodd" d="M31.8394 16.3996C32.1113 16.1106 32.6733 15.8231 32.8792 16.017C33.4811 16.5827 32.4976 16.6511 32.4865 17.0076C32.4775 17.2932 33.1806 18.0227 33.4669 18.0141C35.1873 17.9608 35.8594 14.7102 33.9337 12.9005C31.9633 11.0482 28.8108 11.9672 28.8644 13.6879C28.8728 13.9593 29.5837 14.5587 29.8541 14.5336C30.2091 14.5004 30.2054 13.6173 30.8977 14.2678C31.0879 14.4469 30.8683 14.9979 30.636 15.2687C30.3002 15.6599 28.9849 16.6338 28.9849 16.6338C28.5869 17.0575 28.607 17.7238 29.0311 18.1222C29.4545 18.5202 29.9238 18.6788 30.5192 18.0763C30.5192 18.0763 31.7585 16.4863 31.8394 16.3996Z" fill="#C56F2C"/>
<path fill-rule="evenodd" clip-rule="evenodd" d="M31.8394 15.8817C32.1113 15.5927 32.6733 15.3052 32.8792 15.4988C33.4811 16.0644 32.4976 16.1332 32.4865 16.4894C32.4775 16.7753 33.1806 17.5048 33.4669 17.4958C35.1873 17.4429 35.8594 14.1919 33.9337 12.3826C31.9633 10.5303 28.8108 11.4496 28.8644 13.17C28.8728 13.4411 29.5837 14.0408 29.8541 14.0157C30.2091 13.9825 30.2054 13.0994 30.8977 13.7499C31.0879 13.9289 30.8683 14.4803 30.636 14.7507C30.3002 15.142 28.9849 16.1162 28.9849 16.1162C28.5869 16.5399 28.607 17.2059 29.0311 17.6046C29.4545 18.0026 29.9238 18.1609 30.5192 17.5584C30.5192 17.5584 31.7585 15.9681 31.8394 15.8817Z" fill="url(#paint10_linear_2562_8336)"/>
<defs>
<filter id="filter0_di_2562_8336" x="0" y="0" width="49" height="50" filterUnits="userSpaceOnUse" color-interpolation-filters="sRGB">
<feFlood flood-opacity="0" result="BackgroundImageFix"/>
<feColorMatrix in="SourceAlpha" type="matrix" values="0 0 0 0 0 0 0 0 0 0 0 0 0 0 0 0 0 0 127 0" result="hardAlpha"/>
<feOffset dx="1" dy="1"/>
<feGaussianBlur stdDeviation="1"/>
<feComposite in2="hardAlpha" operator="out"/>
<feColorMatrix type="matrix" values="0 0 0 0 0 0 0 0 0 0 0 0 0 0 0 0 0 0 0.09 0"/>
<feBlend mode="normal" in2="BackgroundImageFix" result="effect1_dropShadow_2562_8336"/>
<feBlend mode="normal" in="SourceGraphic" in2="effect1_dropShadow_2562_8336" result="shape"/>
<feColorMatrix in="SourceAlpha" type="matrix" values="0 0 0 0 0 0 0 0 0 0 0 0 0 0 0 0 0 0 127 0" result="hardAlpha"/>
<feOffset dy="4"/>
<feGaussianBlur stdDeviation="5"/>
<feComposite in2="hardAlpha" operator="arithmetic" k2="-1" k3="1"/>
<feColorMatrix type="matrix" values="0 0 0 0 0 0 0 0 0 0 0 0 0 0 0 0 0 0 0.09 0"/>
<feBlend mode="normal" in2="shape" result="effect2_innerShadow_2562_8336"/>
</filter>
<linearGradient id="paint0_linear_2562_8336" x1="11.0435" y1="35.6555" x2="35.3398" y2="11.3591" gradientUnits="userSpaceOnUse">
<stop offset="0.0053" stop-color="#C6A97D"/>
<stop offset="0.3473" stop-color="#C4A67B"/>
<stop offset="0.5697" stop-color="#BE9E74"/>
<stop offset="0.758" stop-color="#B38F69"/>
<stop offset="0.9263" stop-color="#A47A5A"/>
<stop offset="1" stop-color="#9B6E51"/>
</linearGradient>
<linearGradient id="paint1_linear_2562_8336" x1="6.29905" y1="24.3487" x2="39.9545" y2="24.3487" gradientUnits="userSpaceOnUse">
<stop offset="0.0053" stop-color="#B92A29"/>
<stop offset="0.4232" stop-color="#B62A29"/>
<stop offset="0.6949" stop-color="#AE2927"/>
<stop offset="0.9243" stop-color="#9F2824"/>
<stop offset="1" stop-color="#982823"/>
</linearGradient>
<linearGradient id="paint2_linear_2562_8336" x1="5.99987" y1="24.2028" x2="40.2374" y2="24.2028" gradientUnits="userSpaceOnUse">
<stop stop-color="#E2A742"/>
<stop offset="1" stop-color="#F8CE52"/>
</linearGradient>
<linearGradient id="paint3_linear_2562_8336" x1="16.3685" y1="13.5149" x2="18.6944" y2="18.5318" gradientUnits="userSpaceOnUse">
<stop stop-color="#85C04D"/>
<stop offset="1" stop-color="#559141"/>
</linearGradient>
<linearGradient id="paint4_linear_2562_8336" x1="18.9619" y1="8.06902" x2="21.8438" y2="14.285" gradientUnits="userSpaceOnUse">
<stop stop-color="#85C04D"/>
<stop offset="1" stop-color="#559141"/>
</linearGradient>
<linearGradient id="paint5_linear_2562_8336" x1="26.9233" y1="17.2858" x2="22.7755" y2="20.9426" gradientUnits="userSpaceOnUse">
<stop stop-color="#85C04D"/>
<stop offset="1" stop-color="#559141"/>
</linearGradient>
<linearGradient id="paint6_linear_2562_8336" x1="26.8895" y1="27.0429" x2="31.0182" y2="23.0072" gradientUnits="userSpaceOnUse">
<stop offset="0.0053" stop-color="#C6A97D"/>
<stop offset="0.3473" stop-color="#C4A67B"/>
<stop offset="0.5697" stop-color="#BE9E74"/>
<stop offset="0.758" stop-color="#B38F69"/>
<stop offset="0.9263" stop-color="#A47A5A"/>
<stop offset="1" stop-color="#9B6E51"/>
</linearGradient>
<radialGradient id="paint7_radial_2562_8336" cx="0" cy="0" r="1" gradientUnits="userSpaceOnUse" gradientTransform="translate(15.3735 32.019) scale(3.78726)">
<stop stop-color="#FBF2E8"/>
<stop offset="0.2956" stop-color="#F9EEE2"/>
<stop offset="0.6754" stop-color="#F3E3D2"/>
<stop offset="1" stop-color="#ECD6BF"/>
</radialGradient>
<radialGradient id="paint8_radial_2562_8336" cx="0" cy="0" r="1" gradientUnits="userSpaceOnUse" gradientTransform="translate(26.3845 33.0823) rotate(54.9512) scale(2.81157)">
<stop stop-color="#FBF2E8"/>
<stop offset="0.2956" stop-color="#F9EEE2"/>
<stop offset="0.6754" stop-color="#F3E3D2"/>
<stop offset="1" stop-color="#ECD6BF"/>
</radialGradient>
<radialGradient id="paint9_radial_2562_8336" cx="0" cy="0" r="1" gradientUnits="userSpaceOnUse" gradientTransform="translate(11.5655 17.7915) rotate(92.499) scale(2.86651)">
<stop stop-color="#FBF2E8"/>
<stop offset="0.2956" stop-color="#F9EEE2"/>
<stop offset="0.6754" stop-color="#F3E3D2"/>
<stop offset="1" stop-color="#ECD6BF"/>
</radialGradient>
<linearGradient id="paint10_linear_2562_8336" x1="28.9373" y1="17.511" x2="34.0009" y2="12.4474" gradientUnits="userSpaceOnUse">
<stop offset="0.0053" stop-color="#C6A97D"/>
<stop offset="0.3473" stop-color="#C4A67B"/>
<stop offset="0.5697" stop-color="#BE9E74"/>
<stop offset="0.758" stop-color="#B38F69"/>
<stop offset="0.9263" stop-color="#A47A5A"/>
<stop offset="1" stop-color="#9B6E51"/>
</linearGradient>
</defs>
</svg>
