<svg width="49" height="49" viewBox="0 0 49 49" fill="none" xmlns="http://www.w3.org/2000/svg">
<g filter="url(#filter0_di_2562_8397)">
<circle cx="23.5" cy="23.5" r="22.5" fill="white"/>
</g>
<path opacity="0.2" fill-rule="evenodd" clip-rule="evenodd" d="M20.5895 28.2128C20.4658 28.2128 20.3459 28.224 20.2237 28.2311C19.6658 27.1495 18.8128 26.2483 17.7704 25.6277C17.7203 24.3808 17.3254 23.2226 16.6674 22.2541C17.3721 21.2173 17.7839 19.9656 17.7839 18.6179C17.7839 18.5058 17.7727 18.3964 17.7667 18.285C19.9685 17.4526 21.5362 15.3303 21.5362 12.8375C21.5362 9.61862 18.9268 7.00806 15.7065 7.00806C12.6718 7.00806 10.1808 9.32832 9.90544 12.2908C6.99746 12.9301 4.82031 15.5183 4.82031 18.6179C4.82031 19.9656 5.23242 21.2173 5.93672 22.2541C5.23205 23.2913 4.82031 24.5426 4.82031 25.8903C4.82031 28.2603 6.09701 30.3279 7.99544 31.4578C8.1348 34.9147 10.9729 37.6766 14.4634 37.6766C14.5871 37.6766 14.7077 37.665 14.8292 37.6582C15.9056 39.7453 18.0783 41.176 20.5891 41.176C24.1692 41.176 27.0712 38.2736 27.0712 34.6938C27.0716 31.1152 24.1696 28.2128 20.5895 28.2128Z" fill="#7B4F3B"/>
<path fill-rule="evenodd" clip-rule="evenodd" d="M22.3284 12.1148C22.3284 15.3344 19.7189 17.945 16.499 17.945C13.2797 17.945 10.6699 15.3348 10.6699 12.1148C10.6699 8.89596 13.2794 6.28613 16.499 6.28613C19.7189 6.28613 22.3284 8.89596 22.3284 12.1148Z" fill="url(#paint0_linear_2562_8397)"/>
<path fill-rule="evenodd" clip-rule="evenodd" d="M21.7763 12.1148C21.7763 15.0295 19.4142 17.3924 16.4991 17.3924C13.5848 17.3924 11.2227 15.0295 11.2227 12.1148C11.2227 9.20123 13.5848 6.83838 16.4991 6.83838C19.4138 6.83838 21.7763 9.20123 21.7763 12.1148Z" fill="#F5F2CB"/>
<path fill-rule="evenodd" clip-rule="evenodd" d="M21.6982 12.1148C21.6982 14.9858 19.3705 17.3143 16.4991 17.3143C13.6281 17.3143 11.3008 14.9858 11.3008 12.1148C11.3008 9.24422 13.6281 6.91687 16.4991 6.91687C19.3701 6.91687 21.6982 9.2446 21.6982 12.1148Z" fill="url(#paint1_linear_2562_8397)"/>
<path opacity="0.5" fill-rule="evenodd" clip-rule="evenodd" d="M19.5117 15.2018C16.9635 15.2018 14.8969 13.1352 14.8969 10.5863C14.8969 9.41646 15.3359 8.35049 16.0544 7.53784C13.8896 7.91969 12.2441 9.80429 12.2441 12.0775C12.2441 14.6264 14.3103 16.6926 16.8592 16.6926C18.2376 16.6926 19.4717 16.0854 20.3172 15.1271C20.0553 15.1734 19.787 15.2018 19.5117 15.2018Z" fill="url(#paint2_linear_2562_8397)"/>
<path fill-rule="evenodd" clip-rule="evenodd" d="M15.6891 9.91759C15.9891 10.6047 16.0739 11.2309 15.8793 11.315C15.6846 11.4002 15.2837 10.9122 14.984 10.2247C14.684 9.53723 14.5996 8.91177 14.7939 8.82695C14.9893 8.74214 15.3894 9.23048 15.6891 9.91759Z" fill="#F5F2CB"/>
<path fill-rule="evenodd" clip-rule="evenodd" d="M17.986 14.2977C18.2857 14.9851 18.3713 15.611 18.1762 15.6958C17.9812 15.7802 17.5806 15.2926 17.281 14.6052C16.9813 13.9181 16.8962 13.2922 17.0908 13.207C17.2862 13.1218 17.686 13.6106 17.986 14.2977Z" fill="#F5F2CB"/>
<path fill-rule="evenodd" clip-rule="evenodd" d="M14.3083 13.4361C14.8904 12.9635 15.4699 12.7124 15.6044 12.8776C15.7382 13.0423 15.3761 13.5598 14.794 14.0332C14.2126 14.5066 13.6327 14.7566 13.4986 14.5914C13.3645 14.4266 13.7269 13.9092 14.3083 13.4361Z" fill="#F5F2CB"/>
<path fill-rule="evenodd" clip-rule="evenodd" d="M18.4703 10.3865C19.052 9.91314 19.6319 9.66281 19.766 9.8287C19.9005 9.9931 19.5381 10.5102 18.9564 10.9836C18.375 11.457 17.7951 11.7073 17.6606 11.5422C17.5268 11.3774 17.8889 10.8607 18.4703 10.3865Z" fill="#F5F2CB"/>
<path fill-rule="evenodd" clip-rule="evenodd" d="M16.6945 9.73305C16.78 9.16587 16.9799 8.72462 17.1402 8.74928C17.3013 8.77356 17.3629 9.25368 17.2773 9.82122C17.1918 10.3891 16.9919 10.8293 16.8316 10.8054C16.6706 10.7811 16.6097 10.3017 16.6945 9.73305Z" fill="#F5F2CB"/>
<path fill-rule="evenodd" clip-rule="evenodd" d="M16.0225 14.7199C16.1081 14.1528 16.308 13.7119 16.4686 13.7358C16.6293 13.7605 16.6906 14.2402 16.605 14.8077C16.5198 15.3749 16.3203 15.8154 16.16 15.7919C15.999 15.7676 15.9377 15.2875 16.0225 14.7199Z" fill="#F5F2CB"/>
<path fill-rule="evenodd" clip-rule="evenodd" d="M18.9009 13.0841C18.3992 12.8042 18.0569 12.4627 18.1365 12.32C18.2161 12.1788 18.6861 12.2901 19.1875 12.5696C19.6893 12.8494 20.0316 13.1913 19.9527 13.3329C19.8724 13.4753 19.402 13.3636 18.9009 13.0841Z" fill="#F5F2CB"/>
<path fill-rule="evenodd" clip-rule="evenodd" d="M14.1081 12.255C13.5499 12.1205 13.1277 11.8836 13.1665 11.7248C13.205 11.5668 13.6881 11.5477 14.2463 11.6826C14.8042 11.8167 15.226 12.054 15.1883 12.2117C15.1494 12.3704 14.6659 12.3899 14.1081 12.255Z" fill="#F5F2CB"/>
<path fill-rule="evenodd" clip-rule="evenodd" d="M18.5772 17.8956C18.5772 21.4754 15.6752 24.3777 12.0947 24.3777C8.51528 24.3777 5.61328 21.4754 5.61328 17.8956C5.61328 14.3162 8.51528 11.4142 12.0947 11.4142C15.6756 11.4142 18.5772 14.3162 18.5772 17.8956Z" fill="url(#paint3_linear_2562_8397)"/>
<path fill-rule="evenodd" clip-rule="evenodd" d="M17.9639 17.8956C17.9639 21.1357 15.3369 23.7631 12.0957 23.7631C8.85553 23.7631 6.22852 21.1357 6.22852 17.8956C6.22852 14.6555 8.85553 12.0281 12.0957 12.0281C15.3366 12.0281 17.9639 14.6555 17.9639 17.8956Z" fill="#F5F2CB"/>
<path fill-rule="evenodd" clip-rule="evenodd" d="M17.8758 17.8952C17.8758 21.0879 15.2876 23.6768 12.0945 23.6768C8.90261 23.6768 6.31445 21.0879 6.31445 17.8952C6.31445 14.704 8.90261 12.1147 12.0945 12.1147C15.288 12.1147 17.8758 14.704 17.8758 17.8952Z" fill="url(#paint4_linear_2562_8397)"/>
<path opacity="0.5" fill-rule="evenodd" clip-rule="evenodd" d="M15.4458 21.3274C12.6121 21.3274 10.3151 19.0295 10.3151 16.1951C10.3151 14.8949 10.8034 13.7094 11.6018 12.8052C9.19491 13.23 7.36523 15.3261 7.36523 17.8537C7.36523 20.6881 9.66233 22.9855 12.4963 22.9855C14.029 22.9855 15.4013 22.31 16.3418 21.2444C16.0503 21.2956 15.7529 21.3274 15.4458 21.3274Z" fill="url(#paint5_linear_2562_8397)"/>
<path fill-rule="evenodd" clip-rule="evenodd" d="M11.1917 15.4519C11.5253 16.216 11.6202 16.9121 11.4031 17.0059C11.1868 17.1 10.7411 16.5579 10.4078 15.7934C10.0745 15.0294 9.97959 14.3337 10.1967 14.2391C10.4134 14.145 10.8587 14.6875 11.1917 15.4519Z" fill="#F5F2CB"/>
<path fill-rule="evenodd" clip-rule="evenodd" d="M13.7466 20.3222C14.0799 21.0866 14.1744 21.7823 13.9573 21.8765C13.741 21.9706 13.2956 21.4281 12.962 20.6641C12.6291 19.9 12.5349 19.2043 12.7505 19.1094C12.9679 19.0152 13.4133 19.5581 13.7466 20.3222Z" fill="#F5F2CB"/>
<path fill-rule="evenodd" clip-rule="evenodd" d="M9.6558 19.3643C10.3022 18.8386 10.9478 18.5595 11.0965 18.7429C11.2452 18.926 10.8428 19.5014 10.1957 20.0278C9.54969 20.5535 8.90442 20.8311 8.75572 20.6484C8.60626 20.465 9.00979 19.8907 9.6558 19.3643Z" fill="#F5F2CB"/>
<path fill-rule="evenodd" clip-rule="evenodd" d="M14.2867 15.9731C14.9331 15.447 15.5787 15.1691 15.7278 15.3525C15.8769 15.5352 15.4741 16.1102 14.8269 16.6371C14.1806 17.1631 13.5357 17.4411 13.3866 17.258C13.2371 17.0746 13.6403 16.5003 14.2867 15.9731Z" fill="#F5F2CB"/>
<path fill-rule="evenodd" clip-rule="evenodd" d="M12.3101 15.2472C12.4054 14.6158 12.6277 14.1252 12.8063 14.1525C12.9852 14.1801 13.0532 14.7133 12.958 15.3443C12.8631 15.9754 12.6411 16.4652 12.4629 16.4387C12.2832 16.4114 12.2159 15.8783 12.3101 15.2472Z" fill="#F5F2CB"/>
<path fill-rule="evenodd" clip-rule="evenodd" d="M11.5623 20.7914C11.6572 20.1604 11.8795 19.6705 12.0581 19.6971C12.2371 19.7243 12.3051 20.2575 12.2102 20.889C12.1153 21.5197 11.8933 22.0099 11.7151 21.9833C11.5358 21.9564 11.4674 21.4221 11.5623 20.7914Z" fill="#F5F2CB"/>
<path fill-rule="evenodd" clip-rule="evenodd" d="M14.7629 18.9727C14.2054 18.6618 13.8243 18.2818 13.9133 18.1238C14.0018 17.9657 14.5245 18.0901 15.082 18.401C15.6394 18.7122 16.0202 19.0922 15.932 19.2495C15.8438 19.4076 15.32 19.2835 14.7629 18.9727Z" fill="#F5F2CB"/>
<path fill-rule="evenodd" clip-rule="evenodd" d="M9.43433 18.0508C8.8141 17.9014 8.34519 17.6384 8.38741 17.4613C8.43 17.2856 8.96804 17.2643 9.58789 17.4142C10.2081 17.5636 10.677 17.8274 10.6352 18.0026C10.5926 18.179 10.0553 18.2003 9.43433 18.0508Z" fill="#F5F2CB"/>
<path fill-rule="evenodd" clip-rule="evenodd" d="M18.5772 25.1688C18.5772 28.7478 15.6752 31.6502 12.0947 31.6502C8.51528 31.6502 5.61328 28.7482 5.61328 25.1688C5.61328 21.589 8.51528 18.6866 12.0947 18.6866C15.6756 18.6866 18.5772 21.589 18.5772 25.1688Z" fill="url(#paint6_linear_2562_8397)"/>
<path fill-rule="evenodd" clip-rule="evenodd" d="M17.9639 25.1688C17.9639 28.4089 15.3369 31.0359 12.0957 31.0359C8.85553 31.0359 6.22852 28.4089 6.22852 25.1688C6.22852 21.9283 8.85553 19.3013 12.0957 19.3013C15.3366 19.3009 17.9639 21.9283 17.9639 25.1688Z" fill="#F5F2CB"/>
<path fill-rule="evenodd" clip-rule="evenodd" d="M17.8758 25.1684C17.8758 28.3607 15.2876 30.9496 12.0945 30.9496C8.90261 30.9496 6.31445 28.3607 6.31445 25.1684C6.31445 21.9768 8.90261 19.3879 12.0945 19.3879C15.288 19.3879 17.8758 21.9768 17.8758 25.1684Z" fill="url(#paint7_linear_2562_8397)"/>
<path opacity="0.5" fill-rule="evenodd" clip-rule="evenodd" d="M15.4458 28.6006C12.6121 28.6006 10.3151 26.3023 10.3151 23.4683C10.3151 22.1681 10.8034 20.9826 11.6018 20.0784C9.19491 20.5032 7.36523 22.5989 7.36523 25.1269C7.36523 27.9609 9.66233 30.2584 12.4963 30.2584C14.029 30.2584 15.4013 29.5828 16.3418 28.5176C16.0503 28.568 15.7529 28.6006 15.4458 28.6006Z" fill="url(#paint8_linear_2562_8397)"/>
<path fill-rule="evenodd" clip-rule="evenodd" d="M11.1917 22.7247C11.5253 23.4888 11.6202 24.1849 11.4031 24.279C11.1868 24.3732 10.7411 23.8307 10.4078 23.0666C10.0745 22.3025 9.97959 21.6068 10.1967 21.5123C10.4134 21.4177 10.8587 21.9606 11.1917 22.7247Z" fill="#F5F2CB"/>
<path fill-rule="evenodd" clip-rule="evenodd" d="M13.7466 27.5951C14.0799 28.3595 14.1744 29.0549 13.9573 29.1494C13.741 29.2435 13.2956 28.7014 12.962 27.9373C12.6291 27.1729 12.5349 26.4772 12.7505 26.3823C12.9679 26.2877 13.4133 26.8314 13.7466 27.5951Z" fill="#F5F2CB"/>
<path fill-rule="evenodd" clip-rule="evenodd" d="M9.6558 26.6371C10.3022 26.1114 10.9478 25.8326 11.0965 26.0157C11.2452 26.1988 10.8428 26.7738 10.1957 27.3006C9.54969 27.8271 8.90442 28.1047 8.75572 27.9216C8.60626 27.7381 9.00979 27.1631 9.6558 26.6371Z" fill="#F5F2CB"/>
<path fill-rule="evenodd" clip-rule="evenodd" d="M14.2867 23.2459C14.9331 22.7198 15.5787 22.4418 15.7278 22.6249C15.8769 22.808 15.4741 23.383 14.8269 23.9095C14.1806 24.4363 13.5357 24.7139 13.3866 24.5308C13.2371 24.3474 13.6403 23.7727 14.2867 23.2459Z" fill="#F5F2CB"/>
<path fill-rule="evenodd" clip-rule="evenodd" d="M12.3101 22.5196C12.4054 21.8885 12.6277 21.3983 12.8063 21.4253C12.9852 21.4525 13.0532 21.9864 12.958 22.6171C12.8631 23.2486 12.6411 23.738 12.4629 23.7115C12.2832 23.6846 12.2159 23.1511 12.3101 22.5196Z" fill="#F5F2CB"/>
<path fill-rule="evenodd" clip-rule="evenodd" d="M11.5623 28.0643C11.6572 27.4336 11.8795 26.9434 12.0581 26.9699C12.2371 26.9972 12.3051 27.5307 12.2102 28.1614C12.1153 28.7925 11.8933 29.2827 11.7151 29.2562C11.5358 29.2293 11.4674 28.6953 11.5623 28.0643Z" fill="#F5F2CB"/>
<path fill-rule="evenodd" clip-rule="evenodd" d="M14.7629 26.2455C14.2054 25.9346 13.8243 25.5546 13.9133 25.3955C14.0018 25.2382 14.5245 25.3622 15.082 25.6731C15.6394 25.9839 16.0202 26.3643 15.932 26.5216C15.8438 26.68 15.32 26.5563 14.7629 26.2455Z" fill="#F5F2CB"/>
<path fill-rule="evenodd" clip-rule="evenodd" d="M9.43433 25.3238C8.8141 25.1747 8.34519 24.9109 8.38741 24.7342C8.43 24.5586 8.96804 24.5376 9.58789 24.6871C10.2081 24.8365 10.677 25.1003 10.6352 25.2759C10.5926 25.4519 10.0553 25.4736 9.43433 25.3238Z" fill="#F5F2CB"/>
<path fill-rule="evenodd" clip-rule="evenodd" d="M21.7393 30.4729C21.7393 34.0526 18.8373 36.955 15.2572 36.955C11.6774 36.955 8.77539 34.0526 8.77539 30.4729C8.77539 26.8935 11.6774 23.9915 15.2572 23.9915C18.8377 23.9915 21.7393 26.8935 21.7393 30.4729Z" fill="url(#paint9_linear_2562_8397)"/>
<path fill-rule="evenodd" clip-rule="evenodd" d="M21.1257 30.4729C21.1257 33.7134 18.4987 36.3408 15.2578 36.3408C12.0176 36.3408 9.39062 33.7134 9.39062 30.4729C9.39062 27.2327 12.0176 24.6053 15.2578 24.6053C18.4983 24.6053 21.1257 27.2327 21.1257 30.4729Z" fill="#F5F2CB"/>
<path fill-rule="evenodd" clip-rule="evenodd" d="M21.0382 30.4725C21.0382 33.6652 18.4501 36.2541 15.257 36.2541C12.0647 36.2541 9.47656 33.6652 9.47656 30.4725C9.47656 27.2813 12.0647 24.6924 15.257 24.6924C18.4501 24.6924 21.0382 27.2813 21.0382 30.4725Z" fill="url(#paint10_linear_2562_8397)"/>
<path opacity="0.5" fill-rule="evenodd" clip-rule="evenodd" d="M18.6079 33.905C15.7743 33.905 13.4768 31.6075 13.4768 28.7731C13.4768 27.4725 13.9651 26.287 14.7636 25.3832C12.357 25.8076 10.5273 27.9037 10.5273 30.4317C10.5273 33.2661 12.8244 35.5632 15.6581 35.5632C17.1914 35.5632 18.5631 34.8876 19.5035 33.8224C19.2124 33.8729 18.9146 33.905 18.6079 33.905Z" fill="url(#paint11_linear_2562_8397)"/>
<path fill-rule="evenodd" clip-rule="evenodd" d="M14.356 28.0292C14.6893 28.7933 14.7846 29.4894 14.5671 29.5832C14.3504 29.6773 13.9054 29.1352 13.5718 28.3707C13.2381 27.6066 13.144 26.9109 13.3607 26.8164C13.5774 26.7222 14.0231 27.2648 14.356 28.0292Z" fill="#F5F2CB"/>
<path fill-rule="evenodd" clip-rule="evenodd" d="M16.9107 32.8994C17.244 33.6639 17.3389 34.3596 17.1218 34.4538C16.9051 34.5483 16.4597 34.0054 16.1264 33.2413C15.7932 32.4772 15.6986 31.7819 15.915 31.6866C16.1324 31.5925 16.5778 32.1354 16.9107 32.8994Z" fill="#F5F2CB"/>
<path fill-rule="evenodd" clip-rule="evenodd" d="M12.8199 31.942C13.4666 31.4163 14.1119 31.1372 14.261 31.3207C14.4097 31.5041 14.0069 32.0791 13.3601 32.6056C12.7138 33.1317 12.0685 33.4089 11.9198 33.2262C11.7703 33.0424 12.1738 32.4681 12.8199 31.942Z" fill="#F5F2CB"/>
<path fill-rule="evenodd" clip-rule="evenodd" d="M17.4505 28.5504C18.0969 28.0243 18.7422 27.7463 18.8916 27.9298C19.0407 28.1129 18.6376 28.6875 17.9908 29.2143C17.3448 29.7408 16.6991 30.0188 16.5508 29.8353C16.401 29.6519 16.8038 29.0776 17.4505 28.5504Z" fill="#F5F2CB"/>
<path fill-rule="evenodd" clip-rule="evenodd" d="M15.4744 27.8245C15.5697 27.193 15.7916 26.7025 15.9702 26.7301C16.1488 26.7574 16.2172 27.2906 16.1223 27.9216C16.0274 28.5527 15.805 29.0425 15.6268 29.0164C15.4471 28.9887 15.3799 28.4559 15.4744 27.8245Z" fill="#F5F2CB"/>
<path fill-rule="evenodd" clip-rule="evenodd" d="M14.7262 33.3692C14.8214 32.7382 15.0434 32.2479 15.2223 32.2745C15.4013 32.3021 15.4693 32.8349 15.3744 33.4664C15.2791 34.0974 15.0576 34.5873 14.8794 34.5607C14.6996 34.5338 14.6316 33.9995 14.7262 33.3692Z" fill="#F5F2CB"/>
<path fill-rule="evenodd" clip-rule="evenodd" d="M17.9272 31.5499C17.3697 31.2391 16.989 30.8591 17.0771 30.7007C17.1661 30.5426 17.6888 30.667 18.2462 30.9779C18.8033 31.2891 19.1841 31.6691 19.0963 31.8264C19.0077 31.9852 18.4842 31.8608 17.9272 31.5499Z" fill="#F5F2CB"/>
<path fill-rule="evenodd" clip-rule="evenodd" d="M12.5988 30.6282C11.9785 30.4788 11.5092 30.2153 11.5515 30.0386C11.5944 29.863 12.1321 29.8421 12.752 29.9915C13.3722 30.141 13.8415 30.4048 13.7992 30.58C13.7567 30.7564 13.2194 30.778 12.5988 30.6282Z" fill="#F5F2CB"/>
<path fill-rule="evenodd" clip-rule="evenodd" d="M27.8639 33.9723C27.8639 37.552 24.9619 40.454 21.3818 40.454C17.802 40.454 14.9004 37.552 14.9004 33.9723C14.9004 30.3929 17.802 27.4905 21.3818 27.4905C24.9619 27.4905 27.8639 30.3929 27.8639 33.9723Z" fill="url(#paint12_linear_2562_8397)"/>
<path fill-rule="evenodd" clip-rule="evenodd" d="M27.2491 33.9723C27.2491 37.2124 24.6221 39.8398 21.3812 39.8398C18.1407 39.8398 15.5137 37.2124 15.5137 33.9723C15.5137 30.7317 18.1407 28.1047 21.3812 28.1047C24.6221 28.1047 27.2491 30.7317 27.2491 33.9723Z" fill="#F5F2CB"/>
<path fill-rule="evenodd" clip-rule="evenodd" d="M27.1629 33.9719C27.1629 37.1642 24.5743 39.7531 21.3817 39.7531C18.1893 39.7531 15.6016 37.1642 15.6016 33.9719C15.6016 30.7807 18.1893 28.1914 21.3817 28.1914C24.5743 28.1914 27.1629 30.7807 27.1629 33.9719Z" fill="url(#paint13_linear_2562_8397)"/>
<path opacity="0.5" fill-rule="evenodd" clip-rule="evenodd" d="M24.7329 37.4045C21.8993 37.4045 19.6018 35.1063 19.6018 32.2723C19.6018 30.972 20.0901 29.7865 20.8886 28.8823C18.482 29.3071 16.6523 31.4032 16.6523 33.9308C16.6523 36.7652 18.9494 39.0623 21.7831 39.0623C23.3164 39.0623 24.6881 38.3872 25.6285 37.3216C25.3371 37.3724 25.0393 37.4045 24.7329 37.4045Z" fill="url(#paint14_linear_2562_8397)"/>
<path fill-rule="evenodd" clip-rule="evenodd" d="M20.4809 31.5285C20.8142 32.2929 20.9091 32.989 20.692 33.0828C20.4753 33.177 20.0303 32.6344 19.6967 31.8703C19.3634 31.1063 19.2689 30.4106 19.4856 30.316C19.7023 30.2219 20.1476 30.7644 20.4809 31.5285Z" fill="#F5F2CB"/>
<path fill-rule="evenodd" clip-rule="evenodd" d="M23.0356 36.3987C23.3689 37.1635 23.4638 37.8589 23.2467 37.9534C23.0304 38.0475 22.5846 37.505 22.2514 36.741C21.9181 35.9765 21.8235 35.2808 22.0403 35.1859C22.257 35.0917 22.7023 35.635 23.0356 36.3987Z" fill="#F5F2CB"/>
<path fill-rule="evenodd" clip-rule="evenodd" d="M18.9449 35.4416C19.5916 34.9155 20.2369 34.6368 20.386 34.8202C20.5347 35.0029 20.1319 35.5787 19.4852 36.1051C18.8388 36.6312 18.1935 36.9088 18.0448 36.7261C17.8953 36.5419 18.2985 35.9673 18.9449 35.4416Z" fill="#F5F2CB"/>
<path fill-rule="evenodd" clip-rule="evenodd" d="M23.5732 32.0504C24.2207 31.524 24.8652 31.246 25.0146 31.4294C25.1633 31.6125 24.7606 32.1875 24.1142 32.714C23.4674 33.2404 22.8225 33.518 22.6735 33.3353C22.5247 33.1515 22.9275 32.5772 23.5732 32.0504Z" fill="#F5F2CB"/>
<path fill-rule="evenodd" clip-rule="evenodd" d="M21.5991 31.3237C21.6947 30.6923 21.9167 30.2021 22.0952 30.2294C22.2742 30.2566 22.3422 30.7902 22.2473 31.4209C22.152 32.0527 21.9305 32.5421 21.7519 32.5152C21.5725 32.4883 21.5049 31.9555 21.5991 31.3237Z" fill="#F5F2CB"/>
<path fill-rule="evenodd" clip-rule="evenodd" d="M20.8513 36.868C20.9463 36.2373 21.1682 35.7474 21.3475 35.774C21.5265 35.8009 21.5941 36.3344 21.4989 36.9655C21.404 37.5962 21.1824 38.0864 21.0042 38.0599C20.8248 38.0333 20.7564 37.4994 20.8513 36.868Z" fill="#F5F2CB"/>
<path fill-rule="evenodd" clip-rule="evenodd" d="M24.0522 35.0496C23.4947 34.7387 23.114 34.3587 23.2021 34.2003C23.2911 34.0426 23.8138 34.167 24.3709 34.4779C24.9283 34.7888 25.3091 35.1691 25.2213 35.3264C25.1327 35.4841 24.6096 35.3604 24.0522 35.0496Z" fill="#F5F2CB"/>
<path fill-rule="evenodd" clip-rule="evenodd" d="M18.7234 34.1279C18.1032 33.9784 17.6339 33.715 17.6765 33.5383C17.7191 33.3627 18.2568 33.3414 18.8766 33.4912C19.4969 33.6407 19.9661 33.9041 19.9239 34.0797C19.8813 34.256 19.344 34.2777 18.7234 34.1279Z" fill="#F5F2CB"/>
<path opacity="0.2" fill-rule="evenodd" clip-rule="evenodd" d="M23.8129 27.7438C23.9258 27.7012 24.0368 27.653 24.1425 27.5891C25.4233 26.8202 25.5787 24.7749 24.4877 23.0204C24.3992 22.8769 24.3032 22.7428 24.2038 22.6131C24.181 22.5836 24.1589 22.5552 24.135 22.5264C24.0397 22.4069 23.9415 22.2922 23.8387 22.1849C23.8331 22.1793 23.8283 22.173 23.8227 22.1674C23.7076 22.0486 23.5876 21.9383 23.4651 21.8348C23.4531 21.8251 23.4416 21.8158 23.4296 21.8068C23.3089 21.7067 23.1849 21.6144 23.059 21.5314C23.0578 21.5307 23.0567 21.5296 23.0552 21.5292C22.095 20.8959 21.0111 20.7423 20.1898 21.234C18.9083 22.0037 18.7525 24.0475 19.8446 25.8017C20.6303 27.0661 21.8473 27.8309 22.9458 27.8753C22.9641 27.8761 22.9827 27.8776 23.0003 27.878C23.1296 27.8806 23.2585 27.8742 23.3836 27.8567C23.3878 27.8563 23.3919 27.8544 23.3967 27.8541C23.5118 27.8357 23.6231 27.807 23.7326 27.7707C23.7599 27.7625 23.7864 27.7535 23.8129 27.7438Z" fill="#7B4F3B"/>
<path fill-rule="evenodd" clip-rule="evenodd" d="M20.8547 20.1534C22.2588 19.8011 23.8206 21.0808 24.3407 23.0151C24.8611 24.9486 24.1445 26.8026 22.74 27.1572C21.3348 27.5114 19.7738 26.2287 19.2544 24.2948C18.7324 22.3612 19.4498 20.5084 20.8547 20.1534Z" fill="#48264C"/>
<path fill-rule="evenodd" clip-rule="evenodd" d="M20.3372 21.2273C20.4882 21.2022 20.6481 21.4799 20.6881 21.8445C20.7314 22.2092 20.6391 22.5264 20.4882 22.5499C20.3357 22.5746 20.1788 22.3007 20.1366 21.9346C20.0962 21.5699 20.1863 21.2538 20.3372 21.2273Z" fill="white"/>
<path fill-rule="evenodd" clip-rule="evenodd" d="M22.6838 21.6375C23.2054 23.5718 22.4862 25.4273 21.0832 25.7785C20.6871 25.8775 20.2821 25.845 19.8887 25.7045C20.6161 26.8026 21.7165 27.4139 22.741 27.1576C24.1455 26.803 24.8621 24.949 24.3416 23.0155C23.9669 21.6259 23.0548 20.5775 22.0501 20.2263C22.3214 20.6369 22.5433 21.1122 22.6838 21.6375Z" fill="#300D33"/>
<path opacity="0.2" fill-rule="evenodd" clip-rule="evenodd" d="M29.9969 23.1237C30.0458 23.0337 30.0907 22.941 30.1239 22.8416C30.5237 21.6363 29.4906 20.2322 27.816 19.705C27.6796 19.6624 27.5436 19.6288 27.4076 19.6C27.3766 19.5936 27.3463 19.588 27.3153 19.5821C27.1875 19.5578 27.0609 19.538 26.935 19.526C26.9286 19.5256 26.9219 19.5241 26.9152 19.5238C26.7747 19.5107 26.6368 19.5058 26.5004 19.5073C26.4874 19.5073 26.475 19.5081 26.4623 19.5085C26.3289 19.5114 26.1978 19.5204 26.0704 19.5365C26.0689 19.5365 26.0678 19.5365 26.067 19.5369C25.0971 19.6609 24.3136 20.1623 24.0569 20.9335C23.6567 22.1392 24.6879 23.5433 26.3637 24.0686C27.5698 24.4486 28.7777 24.2678 29.5108 23.6879C29.5231 23.6786 29.5351 23.6688 29.547 23.6595C29.6326 23.5889 29.7118 23.5142 29.7824 23.4335C29.785 23.4309 29.7869 23.4275 29.7895 23.4249C29.8538 23.3498 29.9098 23.2691 29.9607 23.1846C29.9734 23.1648 29.9853 23.1443 29.9969 23.1237Z" fill="#7B4F3B"/>
<path fill-rule="evenodd" clip-rule="evenodd" d="M23.2814 20.4023C23.6823 19.1981 25.3651 18.6469 27.0401 19.1741C28.7147 19.701 29.7475 21.1051 29.348 22.31C28.9475 23.5161 27.2636 24.0646 25.5882 23.5378C23.9124 23.0121 22.8816 21.6084 23.2814 20.4023Z" fill="#48264C"/>
<path fill-rule="evenodd" clip-rule="evenodd" d="M23.8306 21.2914C23.8836 21.1677 24.1646 21.1808 24.4527 21.3228C24.7426 21.4629 24.9339 21.6807 24.8805 21.8029C24.8263 21.9273 24.5498 21.9143 24.2591 21.7734C23.9703 21.6307 23.7794 21.4151 23.8306 21.2914Z" fill="white"/>
<path fill-rule="evenodd" clip-rule="evenodd" d="M25.2402 19.7502C26.9163 20.2763 27.9486 21.683 27.547 22.8857C27.4334 23.225 27.2185 23.5093 26.9293 23.7346C28.0842 23.7141 29.0546 23.1891 29.3482 22.3103C29.7477 21.1054 28.7153 19.7013 27.0403 19.1744C25.8361 18.7967 24.6315 18.9772 23.8984 19.5541C24.3296 19.5462 24.7858 19.606 25.2402 19.7502Z" fill="#300D33"/>
<path opacity="0.2" fill-rule="evenodd" clip-rule="evenodd" d="M28.6887 18.0266C28.7597 17.975 28.8277 17.9197 28.889 17.8555C29.6359 17.072 29.3504 15.6141 28.2523 14.5997C28.163 14.516 28.07 14.4408 27.9758 14.3699C27.9542 14.353 27.9333 14.3377 27.9112 14.322C27.8215 14.2567 27.7311 14.1958 27.6392 14.1408C27.634 14.1378 27.6291 14.1341 27.6243 14.1319C27.5211 14.071 27.4158 14.0164 27.31 13.969C27.3003 13.9641 27.291 13.9596 27.2809 13.9559C27.1774 13.9099 27.0728 13.8692 26.9685 13.8352C26.9678 13.8348 26.9667 13.8341 26.9659 13.8341C26.1735 13.577 25.3873 13.6783 24.9091 14.1797C24.1618 14.9632 24.4461 16.4196 25.5457 17.4344C26.3371 18.1656 27.334 18.466 28.1092 18.2855C28.1223 18.2822 28.135 18.2796 28.1477 18.2766C28.2385 18.2538 28.3274 18.225 28.4111 18.188C28.4137 18.1869 28.4167 18.1854 28.4193 18.1839C28.4963 18.1495 28.5692 18.1077 28.6391 18.061C28.6559 18.0494 28.673 18.0382 28.6887 18.0266Z" fill="#7B4F3B"/>
<path fill-rule="evenodd" clip-rule="evenodd" d="M24.3688 13.8246C25.116 13.068 26.5844 13.2761 27.6478 14.2917C28.7119 15.3068 28.9689 16.7442 28.2228 17.5023C27.4755 18.2604 26.0071 18.05 24.943 17.0341C23.8782 16.0197 23.6226 14.5839 24.3688 13.8246Z" fill="#48264C"/>
<path fill-rule="evenodd" clip-rule="evenodd" d="M24.4537 14.6963C24.5385 14.6226 24.7452 14.7362 24.9099 14.9496C25.0758 15.1622 25.139 15.3964 25.0534 15.4689C24.9675 15.5425 24.7642 15.4304 24.5976 15.2167C24.4324 15.0034 24.3685 14.771 24.4537 14.6963Z" fill="white"/>
<path fill-rule="evenodd" clip-rule="evenodd" d="M26.0824 14.0593C27.1473 15.0744 27.4032 16.5125 26.6563 17.2688C26.4456 17.481 26.1796 17.6155 25.8784 17.6779C26.7539 18.09 27.6778 18.0545 28.223 17.5023C28.9691 16.7446 28.7121 15.3068 27.648 14.2917C26.8831 13.5623 25.9113 13.2522 25.1465 13.4148C25.473 13.5691 25.7944 13.7828 26.0824 14.0593Z" fill="#300D33"/>
<path opacity="0.2" fill-rule="evenodd" clip-rule="evenodd" d="M39.159 14.9197L38.7028 15.3128C38.7032 15.3136 38.7036 15.3139 38.7039 15.3147L38.5881 15.4152C38.5235 15.0546 38.4405 14.6929 38.3202 14.3335C36.9991 10.4044 32.7639 8.17829 28.858 9.36457L29.0313 9.88654C29.0321 9.88654 29.0332 9.88616 29.0332 9.88616L29.2746 10.6047H29.2738L29.628 11.6606C29.6262 11.6613 29.6236 11.6617 29.6213 11.6624L32.6186 20.5896L28.7448 23.9549C28.7463 23.9568 28.7481 23.9583 28.7496 23.9601L28.1103 24.5157L27.1434 25.3557L27.1441 25.3564L26.7496 25.6964C27.3605 26.4429 28.0805 27.0385 28.861 27.4962L25.8222 29.0763C25.8233 29.0785 25.8244 29.0804 25.8256 29.0827L24.6116 29.7137V29.7141L23.9372 30.0649L23.9376 30.0657L23.4747 30.3041C23.7467 30.8675 24.0774 31.3812 24.4529 31.8449L23.6929 31.951C23.6933 31.9533 23.6936 31.9551 23.694 31.9574L22.4905 32.1255V32.1263L21.8221 32.2193V32.2197L21.3633 32.2821C21.7974 36.2302 25.3843 38.9776 29.3773 38.4212C32.4333 37.993 34.8342 35.7524 35.6013 32.9561C37.8091 31.2254 39.0047 28.5129 38.8511 25.7995C41.5562 22.7518 41.7606 18.0964 39.159 14.9197Z" fill="#7B4F3B"/>
<path fill-rule="evenodd" clip-rule="evenodd" d="M35.5581 13.5696C34.3236 9.89152 30.1834 7.86046 26.3145 9.03516L30.7872 22.3585C34.6577 21.1827 36.7945 17.2483 35.5581 13.5696Z" fill="#FC5A43"/>
<path fill-rule="evenodd" clip-rule="evenodd" d="M34.2816 14.0269C33.1797 10.7487 29.7293 8.86332 26.5762 9.82169L30.564 21.7006C33.7189 20.7411 35.3838 17.3097 34.2816 14.0269Z" fill="#FC7852"/>
<path fill-rule="evenodd" clip-rule="evenodd" d="M33.1788 14.2914C32.2847 11.6289 29.4836 10.1 26.9238 10.879L30.161 20.5184C32.7215 19.7405 34.0722 16.9539 33.1788 14.2914Z" fill="#EF452B"/>
<path fill-rule="evenodd" clip-rule="evenodd" d="M26.3355 9.10345C29.9003 8.51722 33.4625 10.4949 34.595 13.8624C35.7245 17.2273 34.0267 20.8037 30.7638 22.2867L30.9371 22.8094C34.845 21.6239 36.9422 17.4792 35.6244 13.55C34.3028 9.62167 30.0681 7.39482 26.1621 8.58148L26.3355 9.10345Z" fill="#E43318"/>
<path fill-rule="evenodd" clip-rule="evenodd" d="M30.9473 18.0575C31.3329 18.0583 31.578 18.0389 31.5855 18.2533C31.5903 18.4719 31.4308 18.785 31.0545 18.6882C30.5236 18.5508 30.3514 18.5111 30.3439 18.2955C30.3375 18.0803 30.5625 18.0575 30.9473 18.0575Z" fill="#CBD655"/>
<path fill-rule="evenodd" clip-rule="evenodd" d="M31.2435 16.1069C31.6679 15.9672 31.9306 15.8536 32.0173 16.0931C32.1039 16.3345 32.0427 16.7473 31.5902 16.7739C30.9584 16.8139 30.7551 16.8337 30.6681 16.5934C30.5814 16.3543 30.8198 16.2478 31.2435 16.1069Z" fill="#CBD655"/>
<path fill-rule="evenodd" clip-rule="evenodd" d="M29.905 13.1428C30.1276 12.7598 30.2502 12.5017 30.4706 12.6343C30.6918 12.7673 30.9138 13.1286 30.5995 13.441C30.1542 13.8793 30.0167 14.0268 29.797 13.8935C29.5765 13.7634 29.6834 13.5265 29.905 13.1428Z" fill="#CBD655"/>
<path fill-rule="evenodd" clip-rule="evenodd" d="M28.456 12.2469C28.5583 11.8146 28.6017 11.5288 28.8494 11.5968C29.0964 11.6603 29.4098 11.9514 29.1999 12.3414C28.8995 12.8911 28.8105 13.0726 28.5621 13.0058C28.3166 12.9407 28.3528 12.6799 28.456 12.2469Z" fill="#CBD655"/>
<path fill-rule="evenodd" clip-rule="evenodd" d="M30.8268 14.3896C31.2325 14.152 31.478 13.9767 31.623 14.2084C31.7642 14.4374 31.7907 14.8839 31.3349 15.0128C30.6889 15.1903 30.4849 15.2557 30.3418 15.0229C30.2002 14.7931 30.4206 14.6295 30.8268 14.3896Z" fill="#CBD655"/>
<path fill-rule="evenodd" clip-rule="evenodd" d="M35.3383 25.732C38.5459 22.9447 38.8728 17.9063 36.0672 14.4805L24.4473 24.573C27.2555 28 32.131 28.5193 35.3383 25.732Z" fill="#FC5A43"/>
<path fill-rule="evenodd" clip-rule="evenodd" d="M34.3425 24.6321C37.2004 22.1478 37.6682 17.8679 35.3801 15.0746L25.0215 24.0739C27.3104 26.8672 31.479 27.119 34.3425 24.6321Z" fill="#FC7852"/>
<path fill-rule="evenodd" clip-rule="evenodd" d="M33.6153 23.6255C35.9367 21.6098 36.3156 18.135 34.4571 15.8685L26.0508 23.1719C27.9081 25.4388 31.2928 25.642 33.6153 23.6255Z" fill="#EF452B"/>
<path fill-rule="evenodd" clip-rule="evenodd" d="M36.0079 14.5298C38.0902 17.8932 37.5768 22.326 34.6404 24.8787C31.7056 27.4287 27.3763 27.203 24.512 24.5192L24.0547 24.913C26.8876 28.3743 31.9589 28.7655 35.3862 25.7907C38.8113 22.8117 39.2963 17.5947 36.4641 14.1367L36.0079 14.5298Z" fill="#E43318"/>
<path fill-rule="evenodd" clip-rule="evenodd" d="M28.8696 22.9398C29.0292 23.3299 29.1525 23.5709 28.9373 23.6673C28.7194 23.7633 28.3353 23.733 28.2759 23.3112C28.193 22.7164 28.1612 22.5254 28.3768 22.4275C28.592 22.3315 28.709 22.5501 28.8696 22.9398Z" fill="#CBD655"/>
<path fill-rule="evenodd" clip-rule="evenodd" d="M30.9679 22.4251C31.2863 22.7957 31.5108 23.0143 31.3046 23.203C31.0965 23.3916 30.653 23.5011 30.437 23.0546C30.1329 22.4314 30.0275 22.2341 30.2341 22.0462C30.4411 21.8571 30.6481 22.0548 30.9679 22.4251Z" fill="#CBD655"/>
<path fill-rule="evenodd" clip-rule="evenodd" d="M33.4088 19.8305C33.8893 19.8956 34.202 19.9113 34.1587 20.19C34.1179 20.4691 33.8441 20.8461 33.3968 20.6578C32.7669 20.3895 32.561 20.3122 32.6029 20.0331C32.6432 19.7562 32.9275 19.7655 33.4088 19.8305Z" fill="#CBD655"/>
<path fill-rule="evenodd" clip-rule="evenodd" d="M33.7117 17.9896C34.1914 17.913 34.4993 17.8379 34.5348 18.1162C34.5729 18.3931 34.4092 18.8329 33.9269 18.7824C33.2454 18.7084 33.0242 18.6942 32.9876 18.4151C32.951 18.1383 33.2297 18.0665 33.7117 17.9896Z" fill="#CBD655"/>
<path fill-rule="evenodd" clip-rule="evenodd" d="M32.5319 21.2855C32.9433 21.5963 33.2235 21.7727 33.049 22.0156C32.8753 22.2539 32.4352 22.4677 32.1142 22.06C31.6644 21.4805 31.513 21.3012 31.6883 21.0591C31.862 20.8192 32.1198 20.975 32.5319 21.2855Z" fill="#CBD655"/>
<path fill-rule="evenodd" clip-rule="evenodd" d="M31.5585 32.9527C35.3288 30.9922 36.8233 26.1694 34.8958 22.1827L21.2402 29.281C23.1686 33.2695 27.7881 34.9135 31.5585 32.9527Z" fill="#FC5A43"/>
<path fill-rule="evenodd" clip-rule="evenodd" d="M30.8465 31.65C34.2062 29.9029 35.6611 25.8504 34.0892 22.6002L21.9141 28.9299C23.4871 32.1809 27.4819 33.4004 30.8465 31.65Z" fill="#FC7852"/>
<path fill-rule="evenodd" clip-rule="evenodd" d="M30.3738 30.5025C33.1021 29.0838 34.2817 25.7936 33.0046 23.1558L23.125 28.2928C24.4006 30.9314 27.6448 31.9197 30.3738 30.5025Z" fill="#EF452B"/>
<path fill-rule="evenodd" clip-rule="evenodd" d="M34.8263 22.2164C36.0653 25.974 34.53 30.1636 31.0784 31.9593C27.629 33.7538 23.472 32.5223 21.3146 29.2433L20.7773 29.5194C22.7232 33.5468 27.5629 35.1127 31.5903 33.02C35.6169 30.9247 37.3068 25.9654 35.3613 21.9403L34.8263 22.2164Z" fill="#E43318"/>
<path fill-rule="evenodd" clip-rule="evenodd" d="M25.9193 28.7263C25.9836 29.1432 26.0468 29.4051 25.8159 29.4496C25.5805 29.4918 25.2147 29.3726 25.255 28.9486C25.3141 28.3511 25.3279 28.158 25.5595 28.1135C25.7919 28.0698 25.8543 28.3097 25.9193 28.7263Z" fill="#CBD655"/>
<path fill-rule="evenodd" clip-rule="evenodd" d="M28.0828 28.7161C28.3062 29.151 28.4733 29.4159 28.2289 29.5511C27.9827 29.6853 27.525 29.6886 27.4196 29.204C27.2698 28.5274 27.2137 28.3103 27.4585 28.1758C27.7032 28.0409 27.8586 28.2812 28.0828 28.7161Z" fill="#CBD655"/>
<path fill-rule="evenodd" clip-rule="evenodd" d="M31.0611 26.7631C31.5132 26.9387 31.8128 27.0273 31.7064 27.2884C31.601 27.5504 31.2472 27.8526 30.8567 27.5649C30.306 27.1566 30.1237 27.0336 30.2301 26.7717C30.334 26.5124 30.6083 26.5883 31.0611 26.7631Z" fill="#CBD655"/>
<path fill-rule="evenodd" clip-rule="evenodd" d="M31.7844 25.0448C32.269 25.0821 32.5859 25.0806 32.5552 25.3601C32.5276 25.6381 32.2657 26.0271 31.8091 25.866C31.1631 25.634 30.952 25.5686 30.9811 25.2884C31.0095 25.0115 31.298 25.007 31.7844 25.0448Z" fill="#CBD655"/>
<path fill-rule="evenodd" clip-rule="evenodd" d="M29.8685 27.9734C30.1955 28.3717 30.4267 28.609 30.1999 28.8048C29.9758 28.9961 29.4979 29.1007 29.2812 28.6299C28.9789 27.9604 28.8739 27.7507 29.1011 27.5568C29.3256 27.3629 29.5405 27.5748 29.8685 27.9734Z" fill="#CBD655"/>
<path fill-rule="evenodd" clip-rule="evenodd" d="M28.5876 37.4468C32.3254 36.9248 35.0084 33.3305 34.578 29.4211L21.0391 31.3125C21.4702 35.2229 24.8501 37.9698 28.5876 37.4468Z" fill="#FC5A43"/>
<path fill-rule="evenodd" clip-rule="evenodd" d="M28.3786 36.1462C31.7095 35.6795 34.1299 32.7188 33.7787 29.5314L21.707 31.2183C22.0601 34.4062 25.0428 36.6121 28.3786 36.1462Z" fill="#FC7852"/>
<path fill-rule="evenodd" clip-rule="evenodd" d="M28.3237 35.0443C31.0284 34.6658 32.9919 32.2618 32.7061 29.6744L22.9102 31.0434C23.1949 33.6312 25.6182 35.4217 28.3237 35.0443Z" fill="#EF452B"/>
<path fill-rule="evenodd" clip-rule="evenodd" d="M34.5091 29.4289C34.4318 32.9415 31.9026 35.994 28.4805 36.473C25.0607 36.9513 21.9457 34.6874 21.1114 31.3023L20.5801 31.3741C21.0142 35.3226 24.6015 38.0696 28.5945 37.5132C32.5871 36.9535 35.4734 33.3028 35.0385 29.3561L34.5091 29.4289Z" fill="#E43318"/>
<path fill-rule="evenodd" clip-rule="evenodd" d="M35.1641 32.359C35.0946 32.727 35.07 32.9654 34.8634 32.9336C34.6538 32.8992 34.3825 32.6911 34.5424 32.3481C34.7692 31.8654 34.8376 31.7085 35.0457 31.7395C35.2523 31.7712 35.2333 31.9913 35.1641 32.359Z" fill="#CBD655"/>
<path fill-rule="evenodd" clip-rule="evenodd" d="M26.9338 32.869C26.9914 33.2987 27.0523 33.5707 26.8075 33.6114C26.5617 33.6503 26.178 33.5176 26.234 33.0801C26.3088 32.4688 26.3263 32.2712 26.5707 32.2312C26.8162 32.1909 26.8748 32.4386 26.9338 32.869Z" fill="#CBD655"/>
<path fill-rule="evenodd" clip-rule="evenodd" d="M30.0086 32.1177C30.3347 32.3991 30.5601 32.5616 30.3923 32.7484C30.2264 32.9371 29.8412 33.0847 29.5991 32.7282C29.2591 32.2227 29.1425 32.0661 29.3103 31.879C29.4735 31.6929 29.6813 31.8367 30.0086 32.1177Z" fill="#CBD655"/>
<path fill-rule="evenodd" clip-rule="evenodd" d="M31.1243 30.8944C31.5188 31.0696 31.7849 31.1623 31.6765 31.3861C31.5712 31.611 31.236 31.8595 30.902 31.589C30.4293 31.203 30.272 31.0853 30.3804 30.8604C30.4861 30.6362 30.7286 30.7177 31.1243 30.8944Z" fill="#CBD655"/>
<path fill-rule="evenodd" clip-rule="evenodd" d="M28.6499 32.7767C28.8064 33.2075 28.9293 33.4747 28.6812 33.5711C28.4369 33.6648 28.0061 33.6103 27.9642 33.1518C27.9093 32.5017 27.8839 32.2951 28.1316 32.1998C28.3778 32.1045 28.4948 32.3467 28.6499 32.7767Z" fill="#CBD655"/>
<defs>
<filter id="filter0_di_2562_8397" x="0" y="0" width="49" height="50" filterUnits="userSpaceOnUse" color-interpolation-filters="sRGB">
<feFlood flood-opacity="0" result="BackgroundImageFix"/>
<feColorMatrix in="SourceAlpha" type="matrix" values="0 0 0 0 0 0 0 0 0 0 0 0 0 0 0 0 0 0 127 0" result="hardAlpha"/>
<feOffset dx="1" dy="1"/>
<feGaussianBlur stdDeviation="1"/>
<feComposite in2="hardAlpha" operator="out"/>
<feColorMatrix type="matrix" values="0 0 0 0 0 0 0 0 0 0 0 0 0 0 0 0 0 0 0.09 0"/>
<feBlend mode="normal" in2="BackgroundImageFix" result="effect1_dropShadow_2562_8397"/>
<feBlend mode="normal" in="SourceGraphic" in2="effect1_dropShadow_2562_8397" result="shape"/>
<feColorMatrix in="SourceAlpha" type="matrix" values="0 0 0 0 0 0 0 0 0 0 0 0 0 0 0 0 0 0 127 0" result="hardAlpha"/>
<feOffset dy="4"/>
<feGaussianBlur stdDeviation="5"/>
<feComposite in2="hardAlpha" operator="arithmetic" k2="-1" k3="1"/>
<feColorMatrix type="matrix" values="0 0 0 0 0 0 0 0 0 0 0 0 0 0 0 0 0 0 0.09 0"/>
<feBlend mode="normal" in2="shape" result="effect2_innerShadow_2562_8397"/>
</filter>
<linearGradient id="paint0_linear_2562_8397" x1="10.67" y1="12.1154" x2="22.3284" y2="12.1154" gradientUnits="userSpaceOnUse">
<stop stop-color="#85C04D"/>
<stop offset="1" stop-color="#559141"/>
</linearGradient>
<linearGradient id="paint1_linear_2562_8397" x1="11.3006" y1="12.1156" x2="21.6981" y2="12.1156" gradientUnits="userSpaceOnUse">
<stop stop-color="#85C04D"/>
<stop offset="1" stop-color="#CDD75A"/>
</linearGradient>
<linearGradient id="paint2_linear_2562_8397" x1="12.2441" y1="12.1153" x2="20.317" y2="12.1153" gradientUnits="userSpaceOnUse">
<stop stop-color="#85C04D"/>
<stop offset="1" stop-color="#559141"/>
</linearGradient>
<linearGradient id="paint3_linear_2562_8397" x1="5.61365" y1="17.8959" x2="18.5773" y2="17.8959" gradientUnits="userSpaceOnUse">
<stop stop-color="#85C04D"/>
<stop offset="1" stop-color="#559141"/>
</linearGradient>
<linearGradient id="paint4_linear_2562_8397" x1="6.31479" y1="17.8957" x2="17.8759" y2="17.8957" gradientUnits="userSpaceOnUse">
<stop stop-color="#85C04D"/>
<stop offset="1" stop-color="#CDD75A"/>
</linearGradient>
<linearGradient id="paint5_linear_2562_8397" x1="7.36538" y1="17.8953" x2="16.342" y2="17.8953" gradientUnits="userSpaceOnUse">
<stop stop-color="#85C04D"/>
<stop offset="1" stop-color="#559141"/>
</linearGradient>
<linearGradient id="paint6_linear_2562_8397" x1="5.61365" y1="25.1683" x2="18.5773" y2="25.1683" gradientUnits="userSpaceOnUse">
<stop stop-color="#85C04D"/>
<stop offset="1" stop-color="#559141"/>
</linearGradient>
<linearGradient id="paint7_linear_2562_8397" x1="6.31479" y1="25.1686" x2="17.8759" y2="25.1686" gradientUnits="userSpaceOnUse">
<stop stop-color="#85C04D"/>
<stop offset="1" stop-color="#CDD75A"/>
</linearGradient>
<linearGradient id="paint8_linear_2562_8397" x1="7.36538" y1="25.1682" x2="16.342" y2="25.1682" gradientUnits="userSpaceOnUse">
<stop stop-color="#85C04D"/>
<stop offset="1" stop-color="#559141"/>
</linearGradient>
<linearGradient id="paint9_linear_2562_8397" x1="8.77573" y1="30.4732" x2="21.7394" y2="30.4732" gradientUnits="userSpaceOnUse">
<stop stop-color="#85C04D"/>
<stop offset="1" stop-color="#559141"/>
</linearGradient>
<linearGradient id="paint10_linear_2562_8397" x1="9.47686" y1="30.4732" x2="21.0383" y2="30.4732" gradientUnits="userSpaceOnUse">
<stop stop-color="#85C04D"/>
<stop offset="1" stop-color="#CDD75A"/>
</linearGradient>
<linearGradient id="paint11_linear_2562_8397" x1="10.5275" y1="30.4728" x2="19.5037" y2="30.4728" gradientUnits="userSpaceOnUse">
<stop stop-color="#85C04D"/>
<stop offset="1" stop-color="#559141"/>
</linearGradient>
<linearGradient id="paint12_linear_2562_8397" x1="14.9005" y1="33.9723" x2="27.8638" y2="33.9723" gradientUnits="userSpaceOnUse">
<stop stop-color="#85C04D"/>
<stop offset="1" stop-color="#559141"/>
</linearGradient>
<linearGradient id="paint13_linear_2562_8397" x1="15.6017" y1="33.9723" x2="27.1628" y2="33.9723" gradientUnits="userSpaceOnUse">
<stop stop-color="#85C04D"/>
<stop offset="1" stop-color="#CDD75A"/>
</linearGradient>
<linearGradient id="paint14_linear_2562_8397" x1="16.6523" y1="33.972" x2="25.6286" y2="33.972" gradientUnits="userSpaceOnUse">
<stop stop-color="#85C04D"/>
<stop offset="1" stop-color="#559141"/>
</linearGradient>
</defs>
</svg>
