<svg width="30" height="30" viewBox="0 0 30 30" fill="none" xmlns="http://www.w3.org/2000/svg">
<path fill-rule="evenodd" clip-rule="evenodd" d="M9.41291 4.33709C9.77903 4.7032 9.77903 5.2968 9.41291 5.66291L7.26333 7.8125H18.75C22.7195 7.8125 25.9375 11.0305 25.9375 15C25.9375 18.9695 22.7196 22.1875 18.75 22.1875H10C9.48224 22.1875 9.06251 21.7678 9.06251 21.25C9.06251 20.7322 9.48224 20.3125 10 20.3125H18.75C21.684 20.3125 24.0625 17.934 24.0625 15C24.0625 12.066 21.684 9.6875 18.75 9.6875H7.26333L9.41291 11.8371C9.77903 12.2032 9.77903 12.7968 9.41291 13.1629C9.0468 13.529 8.4532 13.529 8.08709 13.1629L4.33709 9.41291C3.97097 9.0468 3.97097 8.4532 4.33709 8.08709L8.08709 4.33709C8.4532 3.97097 9.0468 3.97097 9.41291 4.33709Z" fill="#303030"/>
</svg>
