<svg width="199" height="199" viewBox="0 0 199 199" fill="none" xmlns="http://www.w3.org/2000/svg">
<circle cx="98.5" cy="100.5" r="89.5" stroke="#E7F8D5" stroke-width="6"/>
<path d="M171 100C171 60.2355 138.765 28 99 28" stroke="#9CCB67"/>
<path d="M153 93C153 65.938 131.062 44 104 44" stroke="#9CCB67"/>
<path d="M46.085 29.8229C42.1522 24.6927 34.7479 23.6765 30.1147 28.1842C23.1756 34.9355 17.2437 42.6784 12.5216 51.178C5.90018 63.0965 1.79884 76.2486 0.47216 89.8182C-0.854516 103.388 0.621782 117.085 4.80944 130.061C8.99709 143.036 15.8067 155.012 24.8158 165.246C33.8248 175.48 44.8409 183.753 57.1806 189.552C69.5202 195.351 82.9199 198.552 96.5482 198.956C110.177 199.361 123.743 196.96 136.404 191.903C145.434 188.297 153.866 183.394 161.443 177.367C166.502 173.343 166.433 165.87 161.843 161.318V161.318C157.252 156.767 149.886 156.884 144.685 160.723C139.47 164.572 133.771 167.748 127.722 170.164C118.039 174.031 107.665 175.867 97.2427 175.558C86.8206 175.248 76.5733 172.8 67.1368 168.366C57.7002 163.931 49.2758 157.604 42.3863 149.778C35.4967 141.952 30.2892 132.793 27.0867 122.871C23.8843 112.948 22.7553 102.473 23.7698 92.096C24.7844 81.7188 27.9208 71.6609 32.9845 62.5464C36.1478 56.8526 40.0211 51.6028 44.5001 46.9178C48.9671 42.2454 50.0178 34.953 46.085 29.8229V29.8229Z" fill="#9CCB67"/>
<circle cx="150" cy="171" r="19.5" fill="white" stroke="#9CCB67"/>
<circle cx="40" cy="33" r="19.5" fill="white" stroke="#9CCB67"/>
</svg>
