<svg width="24" height="24" viewBox="0 0 24 24" fill="none" xmlns="http://www.w3.org/2000/svg">
<path d="M10.5367 5.39412C10.8714 5.05938 11.4141 5.05938 11.7489 5.39412C12.0836 5.72885 12.0836 6.27157 11.7489 6.6063L7.21193 11.1431H18.8571C19.2966 11.1431 19.6589 11.474 19.7084 11.9002L19.7142 12.0002C19.7142 12.4736 19.3305 12.8574 18.8571 12.8574H7.21193L11.7489 17.3941C12.0579 17.7031 12.0816 18.1893 11.8202 18.5256L11.7489 18.6063C11.4141 18.941 10.8714 18.941 10.5367 18.6063L4.5367 12.6063L4.47395 12.5363C4.47196 12.5338 4.46999 12.5313 4.46803 12.5289C4.46332 12.5229 4.45858 12.5167 4.45393 12.5105C4.43864 12.4897 4.42426 12.4684 4.41085 12.4465C4.40445 12.4362 4.39836 12.4257 4.39251 12.4151C4.38318 12.3982 4.37425 12.3807 4.36592 12.3629C4.35908 12.3483 4.35267 12.3335 4.3467 12.3185C4.33992 12.3016 4.33375 12.2846 4.32811 12.2674C4.32398 12.2547 4.32001 12.2415 4.31637 12.2282C4.31122 12.2097 4.30676 12.1911 4.30293 12.1723C4.29996 12.1574 4.29733 12.1425 4.29509 12.1275C4.28887 12.0862 4.28564 12.0436 4.28564 12.0002L4.28904 12.0767C4.28727 12.0568 4.28619 12.0368 4.2858 12.0168L4.28564 12.0002C4.28564 11.9947 4.2857 11.9892 4.2858 11.9838C4.28616 11.9642 4.28724 11.9439 4.28904 11.9237C4.29059 11.9061 4.2926 11.8892 4.29509 11.8725C4.29733 11.858 4.29996 11.843 4.30299 11.8282C4.30676 11.8093 4.31122 11.7907 4.31626 11.7723C4.32001 11.759 4.32398 11.7458 4.32828 11.7327C4.33375 11.7158 4.33992 11.6989 4.34659 11.6822C4.35267 11.667 4.35908 11.6521 4.36594 11.6374C4.37425 11.6197 4.38318 11.6022 4.39268 11.5851C4.39836 11.5747 4.40445 11.5643 4.41078 11.5539C4.42426 11.532 4.43864 11.5107 4.45391 11.4901C4.47877 11.4565 4.50636 11.4245 4.5367 11.3941L4.46803 11.4716C4.48936 11.4444 4.5123 11.4185 4.5367 11.3941L10.5367 5.39412Z" fill="#8F07CF"/>
</svg>
