<svg width="12" height="12" viewBox="0 0 12 12" fill="none" xmlns="http://www.w3.org/2000/svg">
<path d="M7.62258 5.99995L11.517 1.58632C11.7795 1.28877 11.7795 0.806361 11.517 0.508819C11.2544 0.211276 10.8288 0.211276 10.5662 0.508819L6.19648 5.4612C5.93395 5.75874 5.93395 6.24115 6.19648 6.5387L10.5662 11.4911C10.8288 11.7886 11.2544 11.7886 11.517 11.4911C11.7795 11.1935 11.7795 10.7111 11.517 10.4136L7.62258 5.99995Z" fill="#8F07CF"/>
<path d="M1.90872 5.99995L5.8031 1.58632C6.06563 1.28877 6.06563 0.806361 5.8031 0.508819C5.54056 0.211276 5.1149 0.211276 4.85237 0.508819L0.482617 5.4612C0.22008 5.75874 0.22008 6.24115 0.482617 6.5387L4.85237 11.4911C5.1149 11.7886 5.54056 11.7886 5.8031 11.4911C6.06563 11.1935 6.06563 10.7111 5.8031 10.4136L1.90872 5.99995Z" fill="#8F07CF"/>
</svg>
