<svg width="16" height="16" viewBox="0 0 16 16" fill="none" xmlns="http://www.w3.org/2000/svg">
<path d="M3.59608 3.59583C3.81924 3.37268 4.18104 3.37268 4.4042 3.59583L8.00014 7.19132L11.5961 3.59583C11.8021 3.38984 12.1262 3.374 12.3504 3.5483L12.4042 3.59583C12.6274 3.81899 12.6274 4.1808 12.4042 4.40396L8.80871 7.9999L12.4042 11.5958C12.6102 11.8018 12.626 12.126 12.4517 12.3501L12.4042 12.404C12.181 12.6271 11.8192 12.6271 11.5961 12.404L8.00014 8.80847L4.4042 12.404C4.19821 12.6099 3.87408 12.6258 3.64991 12.4515L3.59608 12.404C3.37292 12.1808 3.37292 11.819 3.59608 11.5958L7.19157 7.9999L3.59608 4.40396C3.39009 4.19797 3.37424 3.87383 3.54854 3.64967L3.59608 3.59583Z" fill="#500082"/>
</svg>
