<svg width="24" height="24" viewBox="0 0 32 32" fill="none" xmlns="http://www.w3.org/2000/svg">
<path d="M16.0001 3.42871C16.6313 3.42871 17.143 3.94039 17.143 4.57157V14.8573H27.4287C28.0599 14.8573 28.5716 15.369 28.5716 16.0001C28.5716 16.6313 28.0599 17.143 27.4287 17.143H17.143V27.4287C17.143 28.0599 16.6313 28.5716 16.0001 28.5716C15.369 28.5716 14.8573 28.0599 14.8573 27.4287V17.143H4.57157C3.94039 17.143 3.42871 16.6313 3.42871 16.0001C3.42871 15.369 3.94039 14.8573 4.57157 14.8573H14.8573V4.57157C14.8573 3.94039 15.369 3.42871 16.0001 3.42871Z" fill="#8F07CF"/>
</svg>
