<svg width="20" height="22" viewBox="0 0 20 22" fill="none" xmlns="http://www.w3.org/2000/svg">
<path d="M14.2856 0.857178C14.759 0.857178 15.1427 1.24093 15.1427 1.71432L15.1433 2.70845C15.8632 2.82298 16.3293 3.00799 16.7975 3.25838C17.6356 3.70659 18.2933 4.36434 18.7415 5.20243C19.1487 5.96385 19.383 6.71967 19.4225 8.57067L19.4284 8.57146V14.8358L19.4239 15.3587C19.3889 17.2613 19.1539 18.0266 18.7415 18.7976C18.2933 19.6357 17.6356 20.2935 16.7975 20.7417C15.9594 21.1899 15.1281 21.4286 12.8356 21.4286H7.16414L6.64125 21.424C4.73861 21.3891 3.9733 21.1541 3.20226 20.7417C2.36416 20.2935 1.70642 19.6357 1.2582 18.7976C0.827912 17.9931 0.59072 17.1947 0.572433 15.1039L0.571289 9.16431V8.57146C0.616719 6.71967 0.850991 5.96385 1.2582 5.20243C1.70642 4.36434 2.36416 3.70659 3.20226 3.25838C3.67064 3.00788 4.1369 2.82283 4.85727 2.70831L4.857 1.71432C4.857 1.24093 5.24076 0.857178 5.71415 0.857178C6.18753 0.857178 6.57129 1.24093 6.57129 1.71432L6.57049 2.57744C6.75689 2.57346 6.9544 2.57146 7.16414 2.57146H12.8356C13.0456 2.57146 13.2434 2.57347 13.4301 2.57745L13.4284 1.71432C13.4284 1.24093 13.8122 0.857178 14.2856 0.857178ZM17.7133 10.2857H2.28557L2.28637 15.0783L2.29395 15.5659C2.32727 16.8577 2.46378 17.4168 2.76988 17.9892C3.05833 18.5285 3.47136 18.9416 4.01071 19.23C4.65042 19.5721 5.27353 19.7024 6.92161 19.7135H13.0781L13.5657 19.7059C14.8576 19.6726 15.4166 19.5361 15.989 19.23C16.5284 18.9416 16.9414 18.5285 17.2298 17.9892C17.572 17.3495 17.7022 16.7264 17.7134 15.0783L17.7133 10.2857ZM14.325 14.5715C14.696 14.5715 14.9881 14.6411 15.2325 14.7718C15.4769 14.9025 15.6688 15.0944 15.7995 15.3388C15.9302 15.5833 15.9999 15.8754 15.9999 16.2463V16.3252C15.9999 16.6961 15.9302 16.9882 15.7995 17.2327C15.6688 17.4771 15.4769 17.669 15.2325 17.7997C14.9881 17.9304 14.696 18 14.325 18H14.2461C13.8752 18 13.5831 17.9304 13.3387 17.7997C13.0942 17.669 12.9024 17.4771 12.7716 17.2327C12.6409 16.9882 12.5713 16.6961 12.5713 16.3252V16.2463C12.5713 15.8754 12.6409 15.5833 12.7716 15.3388C12.9024 15.0944 13.0942 14.9025 13.3387 14.7718C13.5831 14.6411 13.8752 14.5715 14.2461 14.5715H14.325ZM13.0781 4.28654H6.92161L6.57129 4.29089V5.14289C6.57129 5.61628 6.18753 6.00003 5.71415 6.00003C5.24076 6.00003 4.857 5.61628 4.857 5.14289L4.85636 4.45076C4.53005 4.52611 4.27176 4.63044 4.01071 4.77006C3.47136 5.0585 3.05833 5.47154 2.76988 6.01089C2.45324 6.60296 2.31807 7.18083 2.29087 8.5703L17.7081 8.57146L17.7058 8.43419C17.6724 7.14234 17.5359 6.58325 17.2298 6.01089C16.9414 5.47154 16.5284 5.0585 15.989 4.77006C15.728 4.63048 15.4698 4.52616 15.1436 4.45081L15.1427 5.14289C15.1427 5.61628 14.759 6.00003 14.2856 6.00003C13.8122 6.00003 13.4284 5.61628 13.4284 5.14289L13.4305 4.29106C13.3184 4.28887 13.2011 4.28737 13.0781 4.28654Z" fill="#8F07CF"/>
</svg>
