<svg width="16" height="15" viewBox="0 0 16 15" fill="none" xmlns="http://www.w3.org/2000/svg">
<path d="M4.6388 2.87559C4.91666 2.68994 5.2084 2.52891 5.51069 2.39354C6.36811 2.00955 6.79682 1.81756 7.36716 2.18707C7.9375 2.55657 7.9375 3.16269 7.9375 4.37494V5.31244C7.9375 6.49095 7.9375 7.08021 8.30362 7.44633C8.66974 7.81244 9.25899 7.81244 10.4375 7.81244H11.375C12.5873 7.81244 13.1934 7.81244 13.5629 8.38278C13.9324 8.95312 13.7404 9.38183 13.3564 10.2393C13.221 10.5415 13.06 10.8333 12.8744 11.1111C12.2219 12.0876 11.2946 12.8486 10.2097 13.298C9.12475 13.7474 7.93092 13.865 6.77915 13.6359C5.62739 13.4068 4.56943 12.8413 3.73906 12.0109C2.90868 11.1805 2.34319 10.1226 2.11409 8.97079C1.88499 7.81903 2.00257 6.6252 2.45197 5.54026C2.90136 4.45532 3.66239 3.52801 4.6388 2.87559Z" fill="#303030"/>
<path d="M14.1538 4.41813C13.6464 3.1302 12.6198 2.10362 11.3319 1.59624C10.3684 1.21668 9.5 2.08948 9.5 3.12501V5.62501C9.5 5.97019 9.77982 6.25001 10.125 6.25001H12.625C13.6605 6.25001 14.5333 5.3816 14.1538 4.41813Z" fill="#303030"/>
</svg>
