<svg width="24" height="24" viewBox="0 0 24 24" fill="none" xmlns="http://www.w3.org/2000/svg">
<path d="M11.1429 3.85693C15.1667 3.85693 18.4286 7.11886 18.4286 11.1426C18.4286 12.8458 17.8442 14.4124 16.865 15.653L20.749 19.5366C21.0837 19.8713 21.0837 20.414 20.749 20.7487C20.4142 21.0835 19.8715 21.0835 19.5368 20.7487L15.6532 16.8648C14.4127 17.844 12.846 18.4284 11.1429 18.4284C7.1191 18.4284 3.85718 15.1664 3.85718 11.1426C3.85718 7.11886 7.1191 3.85693 11.1429 3.85693ZM11.1429 5.57122C8.06588 5.57122 5.57146 8.06563 5.57146 11.1426C5.57146 14.2197 8.06588 16.7141 11.1429 16.7141C14.2199 16.7141 16.7143 14.2197 16.7143 11.1426C16.7143 8.06563 14.2199 5.57122 11.1429 5.57122Z" fill="#8F07CF"/>
</svg>
