<svg width="22" height="21" viewBox="0 0 22 21" fill="none" xmlns="http://www.w3.org/2000/svg">
<path d="M11.9176 2.3878C11.7591 2.02222 11.3986 1.78564 11.0001 1.78564C10.6017 1.78564 10.2412 2.02222 10.0827 2.3878L7.98993 7.21388L2.75337 7.71287C2.35669 7.75066 2.02031 8.02036 1.89717 8.39934C1.77403 8.77831 1.88765 9.19422 2.18635 9.45797L6.12952 12.9396L4.9859 18.0741C4.89927 18.463 5.05182 18.8663 5.37419 19.1005C5.69657 19.3347 6.12723 19.3552 6.47037 19.1526L11.0001 16.4783L15.5299 19.1526C15.873 19.3552 16.3037 19.3347 16.6261 19.1005C16.9485 18.8663 17.101 18.463 17.0144 18.0741L15.8708 12.9396L19.8139 9.45797C20.1126 9.19422 20.2262 8.77831 20.1031 8.39934C19.98 8.02036 19.6436 7.75066 19.2469 7.71287L14.0103 7.21388L11.9176 2.3878Z" stroke="#8F07CF" stroke-width="2" stroke-linejoin="round"/>
</svg>
