<svg width="16" height="15" viewBox="0 0 16 15" fill="none" xmlns="http://www.w3.org/2000/svg">
<path d="M14.5 7.5C14.5 10.9518 11.7018 13.75 8.25 13.75C4.79822 13.75 2 10.9518 2 7.5C2 4.04822 4.79822 1.25 8.25 1.25C11.7018 1.25 14.5 4.04822 14.5 7.5Z" fill="#303030"/>
<path fill-rule="evenodd" clip-rule="evenodd" d="M8.25 4.53125C8.50888 4.53125 8.71875 4.74112 8.71875 5V7.30584L10.144 8.73104C10.327 8.9141 10.327 9.2109 10.144 9.39396C9.9609 9.57701 9.6641 9.57701 9.48104 9.39396L7.91854 7.83146C7.83064 7.74355 7.78125 7.62432 7.78125 7.5V5C7.78125 4.74112 7.99112 4.53125 8.25 4.53125Z" fill="white"/>
</svg>
